<svg width="877" height="253" viewBox="0 0 877 253" fill="none" xmlns="http://www.w3.org/2000/svg">
<mask id="mask0" mask-type="alpha" maskUnits="userSpaceOnUse" x="0" y="0" width="877" height="253">
<rect y="0.435547" width="876.148" height="252.545" fill="#C4C4C4"/>
</mask>
<g mask="url(#mask0)">
<g opacity="0.5">
<path opacity="0.5" d="M1449.86 560.254L1304.55 380.876L1304.44 380.746L1150.42 447.674L964.984 388.298L887.424 271.115L887.328 270.959L820.383 292.977L657.756 137.927L658.837 137.001L657.487 137.668L657.282 137.477L657.223 137.798L550.005 191.236L472.108 123.708L471.695 122.639L471.697 123.623L471.421 124.016L403.271 125.997L367.602 71.9609L367.162 70.86L367 70.4399L366.586 70.63L234.67 130.869L-92.628 -36.6353L-92.6911 -36.7373L-92.8407 -36.671L-289.86 -14.0698L-505.006 -99.1231L-505.812 -99.4355L-360.493 79.9423L-360.387 80.0725L-206.365 13.1402L-20.9326 72.52L56.6316 189.703L56.7232 189.859L123.669 167.841L286.464 323.047L286.769 323.339L309.519 196.308L471.943 337.108L472.355 338.169L472.354 337.193L472.632 336.8L554.922 334.405L576.887 389.954L577.048 390.374L577.462 390.184L709.38 329.946L1036.68 497.448L1036.74 497.554L1036.89 497.487L1233.91 474.886L1449.06 559.935L1449.86 560.254ZM657.473 138.961L708.979 329.044L634.939 264.847L657.473 138.961ZM622.524 331.612L573.506 212.2L634.435 265.029L622.524 331.612ZM707.84 329.166L708.502 329.505L622.912 331.988L634.833 265.379L708.595 329.313L707.84 329.166ZM555.409 334.401L622.368 332.453L622.828 332.439L708.276 329.959L577.299 389.766L555.409 334.401ZM507.398 212.936L549.914 191.745L572.799 211.592L622.228 332.002L555.23 333.941L507.398 212.936ZM472.253 230.45L506.985 213.145L554.753 333.962L472.361 336.356L472.253 230.45ZM471.906 335.785L415.495 193.118L415.542 193.042L415.444 192.98L389.298 126.858L403.07 126.456L471.802 230.589L471.806 235.866L471.906 335.785ZM367.132 71.9987L388.65 126.414L321.981 128.352L366.743 71.4148L367.132 71.9987ZM388.823 126.873L414.769 192.515L322.166 128.802L388.823 126.873ZM471.574 336.2L378.163 255.217L378.345 255.324L415.203 193.612L471.574 336.2ZM309.622 195.791L321.582 128.916L414.982 193.169L378.001 255.078L309.622 195.791ZM46.6726 94.435L123.305 167.485L57.0112 189.28L46.6726 94.435ZM-20.2397 72.7338L46.1708 93.9981L56.4904 188.684L-20.2397 72.7338ZM-290.254 -13.7333L-360.328 79.4274L-504.379 -98.3761L-290.254 -13.7333ZM-289.804 -13.5698L-207.015 12.9382L-359.631 79.2412L-289.804 -13.5698ZM-94.2647 -36.0531L-206.389 12.6547L-288.815 -13.7318L-94.2647 -36.0531ZM-21.3307 71.9222L-205.736 12.8712L-92.8655 -36.1718L-21.3307 71.9222ZM233.126 130.589L46.4339 93.6079L46.2488 93.5786L-20.6394 72.1423L-92.1159 -35.8577L233.126 130.589ZM233.775 131.17L123.786 167.33L47.1003 94.2023L233.775 131.17ZM286.194 322.164L124.164 167.683L234.515 131.406L286.194 322.164ZM235.083 131.774L309.114 195.971L286.584 321.857L235.083 131.774ZM236.214 131.658L235.551 131.311L321.141 128.829L309.22 195.446L235.458 131.503L236.214 131.658ZM235.782 130.865L366.34 71.244L321.433 128.37L321.225 128.375L235.782 130.865ZM402.778 126.011L389.129 126.405L368.353 73.8508L402.778 126.011ZM471.801 229.829L403.561 126.44L471.694 124.46L471.801 229.829ZM472.147 125.04L506.829 212.752L472.255 229.986L472.247 222.099L472.147 125.04ZM549.57 191.452L507.24 212.545L472.479 124.612L549.57 191.452ZM656.023 138.871L572.507 210.741L550.348 191.531L656.023 138.871ZM657.1 138.491L634.538 264.51L573.126 211.274L572.971 210.902L657.1 138.491ZM819.894 293.139L709.542 329.408L657.861 138.65L819.894 293.139ZM820.267 293.489L896.953 366.612L710.278 329.648L820.267 293.489ZM897.379 366.388L820.75 293.333L887.044 271.538L897.379 366.388ZM964.293 388.08L897.878 366.816L887.567 272.138L964.293 388.08ZM1036.17 496.68L710.932 330.235L897.628 367.21L897.809 367.239L964.693 388.678L1036.17 496.68ZM1149.79 447.941L1036.92 496.992L965.382 388.894L1149.79 447.941ZM1150.44 448.162L1232.87 474.548L1038.32 496.878L1150.44 448.162ZM1303.68 381.573L1233.86 474.392L1151.07 447.876L1303.68 381.573ZM1448.43 559.192L1234.31 474.554L1304.38 381.384L1448.43 559.192Z" fill="white"/>
<g opacity="0.5">
<path opacity="0.5" d="M389.491 128.488C389.106 128.586 388.711 128.565 388.335 128.42C387.879 128.232 387.514 127.881 387.317 127.43C387.125 126.979 387.116 126.467 387.3 126.016C387.514 125.456 387.974 125.044 388.555 124.899C388.935 124.793 389.331 124.822 389.703 124.968C390.162 125.15 390.523 125.498 390.724 125.957C390.917 126.408 390.93 126.911 390.751 127.379C390.528 127.931 390.072 128.334 389.491 128.488Z" fill="white"/>
<path opacity="0.5" d="M315.528 96.2484C315.147 96.3468 314.748 96.3256 314.38 96.1796C313.916 95.9983 313.555 95.6416 313.354 95.1908C313.158 94.7398 313.153 94.228 313.332 93.7684C313.555 93.2164 314.011 92.8111 314.592 92.6598C314.973 92.5614 315.372 92.5826 315.739 92.7286C316.203 92.9099 316.568 93.2581 316.765 93.7174C316.958 94.177 316.971 94.6716 316.788 95.1398C316.564 95.6898 316.111 96.0949 315.528 96.2484Z" fill="white"/>
<path opacity="0.5" d="M310.004 197.95C309.492 198.082 308.965 198.044 308.474 197.852C307.86 197.612 307.377 197.145 307.114 196.54C306.854 195.931 306.841 195.262 307.089 194.648C307.377 193.908 307.988 193.372 308.759 193.166C309.27 193.03 309.797 193.063 310.289 193.255C310.903 193.503 311.39 193.966 311.649 194.575C311.909 195.184 311.926 195.854 311.678 196.468C311.384 197.201 310.781 197.741 310.004 197.95Z" fill="white"/>
<path opacity="0.5" d="M124.128 169.768C123.672 169.888 123.196 169.859 122.749 169.681C122.197 169.466 121.759 169.044 121.527 168.499C121.286 167.957 121.283 167.352 121.494 166.803C121.762 166.137 122.312 165.651 123.008 165.465C123.468 165.344 123.94 165.377 124.383 165.552C124.935 165.767 125.373 166.185 125.613 166.733C125.846 167.279 125.857 167.88 125.638 168.438C125.376 169.099 124.828 169.587 124.128 169.768Z" fill="white"/>
<path opacity="0.5" d="M130.448 112.373C129.991 112.493 129.511 112.46 129.068 112.286C128.521 112.071 128.078 111.653 127.842 111.109C127.606 110.565 127.598 109.955 127.817 109.403C128.081 108.736 128.627 108.252 129.327 108.074C129.787 107.945 130.259 107.978 130.706 108.152C131.253 108.368 131.692 108.794 131.928 109.338C132.165 109.882 132.172 110.486 131.953 111.044C131.691 111.704 131.141 112.189 130.448 112.373Z" fill="white"/>
<path opacity="0.5" d="M111.362 69.7561C110.903 69.8847 110.426 69.8521 109.979 69.6781C109.432 69.4628 108.993 69.0363 108.757 68.4921C108.516 67.9462 108.514 67.3448 108.729 66.7953C108.992 66.1282 109.542 65.6437 110.242 65.4574C110.702 65.337 111.175 65.3699 111.617 65.5443C112.165 65.7595 112.603 66.1777 112.843 66.7216C113.076 67.2743 113.087 67.8752 112.868 68.4353C112.611 69.0958 112.058 69.5783 111.362 69.7561Z" fill="white"/>
<path opacity="0.5" d="M70.8451 49.4008C70.3294 49.5332 69.7982 49.4959 69.3028 49.3084C68.6801 49.0566 68.1886 48.5858 67.9334 47.9762C67.6615 47.3679 67.6512 46.6857 67.895 46.0678C68.1901 45.3152 68.8057 44.7785 69.5906 44.5636C70.1027 44.4397 70.6375 44.4685 71.1294 44.6645C71.7473 44.9083 72.2389 45.3791 72.5065 45.9878C72.7706 46.605 72.7804 47.2789 72.5372 47.9051C72.2415 48.6494 71.6244 49.1945 70.8451 49.4008Z" fill="white"/>
<path opacity="0.5" d="M322.094 130.84C321.619 130.962 321.125 130.939 320.661 130.757C320.087 130.527 319.636 130.093 319.396 129.524C319.15 128.964 319.137 128.33 319.367 127.761C319.637 127.068 320.205 126.566 320.925 126.38C321.404 126.251 321.899 126.282 322.359 126.463C322.932 126.694 323.384 127.127 323.628 127.696C323.874 128.256 323.886 128.882 323.657 129.46C323.382 130.144 322.815 130.655 322.094 130.84Z" fill="white"/>
<path opacity="0.5" d="M47.0916 96.5949C46.5044 96.7487 45.8965 96.7166 45.3191 96.4867C44.6136 96.2092 44.0575 95.6761 43.7503 94.9743C43.447 94.2702 43.4391 93.4984 43.7142 92.7888C44.0541 91.9292 44.7621 91.3113 45.6599 91.0722C46.2387 90.9189 46.8508 90.9508 47.4235 91.1726C48.8948 91.7568 49.6117 93.4158 49.029 94.8788C48.6933 95.7402 47.9878 96.3641 47.0916 96.5949Z" fill="white"/>
<path opacity="0.5" d="M57.2614 191.28C56.8971 191.373 56.5233 191.355 56.1726 191.216C55.7341 191.041 55.391 190.706 55.202 190.278C55.0194 189.851 55.0082 189.373 55.1807 188.934C55.3888 188.404 55.8193 188.025 56.3694 187.878C56.7338 187.785 57.1076 187.804 57.4583 187.943C57.8971 188.121 58.2437 188.448 58.4289 188.881C58.6201 189.312 58.6227 189.786 58.4502 190.224C58.2442 190.754 57.8095 191.133 57.2614 191.28Z" fill="white"/>
<path opacity="0.5" d="M193.685 235.822C193.241 235.937 192.78 235.912 192.346 235.741C191.811 235.525 191.386 235.123 191.159 234.588C190.928 234.062 190.918 233.474 191.134 232.939C191.388 232.291 191.921 231.82 192.596 231.642C193.04 231.527 193.501 231.552 193.935 231.723C194.47 231.935 194.895 232.341 195.122 232.876C195.349 233.402 195.359 233.986 195.147 234.525C194.893 235.171 194.356 235.642 193.685 235.822Z" fill="white"/>
<path opacity="0.5" d="M235.196 133.142C234.76 133.261 234.311 133.235 233.898 133.067C233.377 132.866 232.967 132.471 232.745 131.949C232.524 131.443 232.511 130.876 232.719 130.348C232.967 129.73 233.483 129.272 234.136 129.098C234.572 128.987 235.017 129.014 235.434 129.181C236.507 129.597 237.032 130.815 236.604 131.892C236.361 132.519 235.842 132.976 235.196 133.142Z" fill="white"/>
<path opacity="0.5" d="M472.159 126.494C471.751 126.594 471.323 126.575 470.93 126.414C470.438 126.22 470.054 125.838 469.839 125.357C469.635 124.867 469.62 124.331 469.818 123.839C470.051 123.246 470.543 122.814 471.158 122.652C471.565 122.543 471.994 122.571 472.388 122.732C473.407 123.128 473.907 124.281 473.503 125.301C473.27 125.891 472.778 126.324 472.159 126.494Z" fill="white"/>
<path opacity="0.5" d="M367.408 73.2917C366.967 73.3982 366.514 73.3765 366.093 73.2091C365.567 73.0049 365.153 72.6017 364.929 72.088C364.707 71.5658 364.693 70.9901 364.905 70.4596C365.152 69.8248 365.677 69.367 366.334 69.1939C366.773 69.075 367.231 69.1046 367.657 69.276C368.739 69.6989 369.273 70.9372 368.84 72.0175C368.589 72.6567 368.069 73.1225 367.408 73.2917Z" fill="white"/>
<path opacity="0.5" d="M656.953 136.107C657.344 136.004 657.749 136.024 658.126 136.178C658.594 136.359 658.964 136.719 659.169 137.182C659.367 137.642 659.372 138.158 659.189 138.628C658.963 139.193 658.499 139.601 657.912 139.754C657.521 139.862 657.116 139.837 656.739 139.687C656.267 139.502 655.902 139.146 655.7 138.683C655.498 138.217 655.489 137.708 655.676 137.237C655.896 136.673 656.366 136.259 656.953 136.107Z" fill="white"/>
<path opacity="0.5" d="M572.034 208.221C572.592 208.077 573.177 208.111 573.716 208.324C574.388 208.588 574.915 209.102 575.207 209.761C575.491 210.425 575.505 211.165 575.236 211.832C574.92 212.642 574.248 213.241 573.401 213.465C572.842 213.612 572.265 213.57 571.727 213.36C571.051 213.097 570.519 212.583 570.235 211.92C569.947 211.252 569.929 210.516 570.198 209.845C570.523 209.034 571.187 208.444 572.034 208.221Z" fill="white"/>
<path opacity="0.5" d="M377.624 253.184C378.064 253.073 378.509 253.1 378.93 253.263C379.448 253.468 379.862 253.867 380.088 254.38C380.309 254.89 380.318 255.466 380.11 255.984C379.863 256.615 379.346 257.072 378.689 257.247C378.254 257.362 377.804 257.335 377.387 257.172C376.866 256.963 376.452 256.568 376.23 256.05C376.004 255.537 375.995 254.969 376.203 254.443C376.451 253.814 376.972 253.357 377.624 253.184Z" fill="white"/>
<path opacity="0.5" d="M758.185 231.528C758.743 231.376 759.324 231.41 759.867 231.623C760.534 231.891 761.066 232.401 761.35 233.064C761.634 233.728 761.652 234.468 761.382 235.136C761.066 235.95 760.398 236.544 759.551 236.763C758.997 236.907 758.412 236.873 757.868 236.657C757.201 236.394 756.67 235.884 756.386 235.22C756.098 234.557 756.084 233.825 756.353 233.149C756.67 232.341 757.342 231.747 758.185 231.528Z" fill="white"/>
<path opacity="0.5" d="M471.53 228.51C471.933 228.411 472.357 228.43 472.747 228.587C473.228 228.782 473.617 229.151 473.82 229.629C474.027 230.111 474.037 230.643 473.848 231.132C473.614 231.716 473.131 232.144 472.519 232.306C472.112 232.41 471.692 232.386 471.302 232.229C470.295 231.837 469.8 230.691 470.201 229.688C470.435 229.1 470.918 228.672 471.53 228.51Z" fill="white"/>
<path opacity="0.5" d="M414.798 191.335C415.175 191.236 415.57 191.258 415.933 191.404C416.389 191.582 416.745 191.927 416.941 192.373C417.13 192.825 417.142 193.324 416.963 193.779C416.743 194.323 416.289 194.728 415.722 194.874C415.342 194.977 414.951 194.951 414.583 194.805C413.647 194.436 413.186 193.37 413.554 192.434C413.773 191.882 414.228 191.483 414.798 191.335Z" fill="white"/>
<path opacity="0.5" d="M253.848 202.135C254.228 202.036 254.623 202.058 254.987 202.2C255.438 202.382 255.799 202.73 255.991 203.178C256.183 203.625 256.196 204.124 256.016 204.579C255.801 205.126 255.343 205.528 254.776 205.674C254.396 205.776 254.005 205.75 253.641 205.604C252.698 205.232 252.24 204.174 252.612 203.229C252.827 202.682 253.281 202.281 253.848 202.135Z" fill="white"/>
<path opacity="0.5" d="M163.739 204.398C164.124 204.303 164.51 204.325 164.878 204.471C165.329 204.649 165.686 204.998 165.882 205.445C166.075 205.892 166.083 206.395 165.907 206.846C165.688 207.39 165.234 207.795 164.663 207.941C164.283 208.044 163.896 208.018 163.532 207.871C162.59 207.504 162.127 206.438 162.503 205.496C162.718 204.951 163.168 204.546 163.739 204.398Z" fill="white"/>
<path opacity="0.5" d="M188.066 144.479C188.447 144.389 188.837 144.411 189.201 144.557C189.656 144.73 190.012 145.079 190.209 145.53C190.397 145.974 190.41 146.477 190.23 146.928C190.015 147.479 189.561 147.876 188.99 148.027C188.61 148.125 188.219 148.103 187.855 147.957C186.917 147.589 186.454 146.523 186.826 145.578C187.041 145.037 187.499 144.631 188.066 144.479Z" fill="white"/>
<path opacity="0.5" d="M687.57 249.205C687.955 249.107 688.346 249.128 688.709 249.275C689.165 249.452 689.521 249.797 689.713 250.248C689.906 250.695 689.918 251.194 689.735 251.654C689.519 252.197 689.065 252.598 688.498 252.745C688.114 252.843 687.723 252.821 687.363 252.675C686.421 252.307 685.962 251.241 686.334 250.3C686.55 249.755 687.004 249.354 687.57 249.205Z" fill="white"/>
<path opacity="0.5" d="M645.502 199.789C645.882 199.69 646.273 199.712 646.637 199.858C647.092 200.036 647.453 200.384 647.645 200.836C647.838 201.283 647.846 201.782 647.667 202.237C647.451 202.785 646.997 203.182 646.426 203.328C646.05 203.43 645.655 203.409 645.291 203.263C644.352 202.89 643.89 201.829 644.266 200.887C644.477 200.342 644.931 199.941 645.502 199.789Z" fill="white"/>
</g>
</g>
<path d="M-730.945 129.62L-461.676 147.302L-265.231 269.429L-265.106 269.575L-264.985 269.498L163.661 256.205L272.695 385.539L273.035 385.947L273.417 385.589L324.284 337.973L409.858 381.558L409.952 382.114L409.463 383.144L410.426 382.226L651.923 314.82L612.531 460.107L612.997 459.949L862.066 377.532L921.669 434.149L921.849 434.035L1062.08 349.18L1287.21 379.102L1416.21 526.517L1416.4 526.432L1659.09 409.817L1658.09 409.747L1388.82 392.073L1192.38 269.942L1192.24 269.797L1192.13 269.874L763.481 283.171L654.442 153.837L654.107 153.428L653.721 153.791L652.714 154.733L588.151 193.911L517.283 157.818L517.19 157.262L517.679 156.236L516.708 157.15L400.896 189.476L314.509 79.6462L314.614 79.2728L314.295 79.367L313.21 77.9929L313.884 79.509L65.0693 161.844L5.46992 105.223L5.29047 105.341L-134.945 190.191L-360.074 160.274L-489.079 12.8589L-489.256 12.9436L-731.945 129.55L-730.945 129.62ZM274.624 224.714L164.541 255.457L313.678 80.7428L274.624 224.714ZM275.068 225.153L365.663 199.86L254.405 301.301L275.068 225.153ZM164.812 255.926L274.473 225.317L253.813 301.499L164.808 256.174L165.68 256.149L164.812 255.926ZM273.081 385.178L164.829 256.768L253.679 302.022L254.156 302.263L323.782 337.727L273.081 385.178ZM324.197 337.329L254.526 301.859L366.712 199.567L400.742 190.065L434.995 233.617L324.197 337.329ZM410.365 381.224L324.689 337.588L435.329 234.04L463.31 269.616L410.365 381.224ZM461.078 275.548L463.718 269.988L588.13 194.491L602.45 201.782L541.904 258.45L541.769 258.472L541.779 258.569L411.134 380.842L461.078 275.548ZM653.897 154.587L672.682 236.956L603.36 201.65L653.193 155.013L653.897 154.587ZM672.264 237.338L542.844 258.3L602.947 202.042L672.264 237.338ZM541.843 259.241L549.918 342.703L550.16 342.678L411.273 381.453L541.843 259.241ZM550.401 342.608L542.296 258.882L672.824 237.74L652.072 314.219L550.401 342.608ZM921.65 433.399L862.634 377.336L979.872 338.555L921.65 433.399ZM922.504 433.027L980.614 338.351L1061.24 349.066L922.504 433.027ZM1657.05 410.223L1416.47 525.813L1389.06 392.621L1657.05 410.223ZM1415.83 525.263L1288 379.214L1388.51 392.569L1415.83 525.263ZM1387.55 391.905L1287.48 378.601L1193.56 271.297L1387.55 391.905ZM1192.15 270.476L1286.68 378.505L1062.8 348.751L1192.15 270.476ZM1191.2 270.433L1061.96 348.643L980.744 337.866L980.532 337.811L765.253 283.643L1191.2 270.433ZM979.532 338.107L862.201 376.934L764.273 283.938L979.532 338.107ZM763.381 283.816L861.628 377.116L613.73 459.146L763.381 283.816ZM613.47 458.632L652.515 314.658L762.598 283.919L613.47 458.632ZM762.33 283.45L652.666 314.056L673.33 237.871L762.331 283.196L761.464 283.229L762.33 283.45ZM673.462 237.352L673.249 237.243L654.401 154.61L762.313 282.604L673.462 237.352ZM650.983 156.356L602.856 201.399L588.662 194.173L650.983 156.356ZM516.775 158.151L587.621 194.23L464.099 269.186L516.775 158.151ZM467.485 260.815L463.541 269.121L435.685 233.704L516.011 158.532L467.485 260.815ZM515.868 157.919L435.353 233.278L401.249 189.923L515.868 157.919ZM400.39 189.616L367.435 198.813L315.247 81.36L400.39 189.616ZM366.878 198.752L366.528 199.065L275.217 224.558L314.296 80.4328L366.878 198.752ZM313.414 80.2234L163.763 255.557L65.511 162.253L313.414 80.2234ZM162.864 255.438L-52.3896 201.273L64.9405 162.437L162.864 255.438ZM5.48713 105.977L64.5076 162.035L-52.728 200.819L5.48713 105.977ZM4.63953 106.344L-53.4658 201.024L-134.099 190.31L4.63953 106.344ZM-134.813 190.734L-53.6002 201.504L-53.3922 201.563L161.891 255.734L-264.056 268.94L-134.813 190.734ZM-135.656 190.624L-265.004 268.896L-359.537 160.862L-135.656 190.624ZM-266.421 268.074L-460.403 147.469L-360.334 160.768L-266.421 268.074ZM-360.855 160.162L-461.37 146.803L-488.683 14.1002L-360.855 160.162ZM-489.329 13.5585L-461.923 146.75L-729.906 129.153L-489.329 13.5585Z" fill="white"/>
<path d="M601.442 203.413C601.791 203.706 602.221 203.877 602.683 203.915C603.262 203.945 603.824 203.761 604.256 203.379C604.691 203 604.951 202.47 604.985 201.895C605.033 201.201 604.749 200.546 604.217 200.092C603.865 199.799 603.435 199.628 602.972 199.595C602.393 199.556 601.835 199.744 601.399 200.123C600.969 200.509 600.708 201.035 600.666 201.61C600.623 202.304 600.9 202.96 601.442 203.413Z" fill="white"/>
<path d="M695.503 206.319C695.851 206.616 696.282 206.791 696.748 206.824C697.327 206.858 697.885 206.671 698.317 206.288C698.752 205.909 699.012 205.38 699.046 204.805C699.093 204.111 698.814 203.455 698.278 203.006C697.925 202.709 697.491 202.538 697.033 202.504C696.454 202.466 695.896 202.653 695.46 203.036C695.029 203.419 694.765 203.941 694.727 204.524C694.686 205.22 694.961 205.872 695.503 206.319Z" fill="white"/>
<path d="M671.661 239.115C672.016 239.408 672.446 239.583 672.908 239.612C673.481 239.651 674.041 239.468 674.476 239.08C674.908 238.702 675.17 238.172 675.203 237.599C675.25 236.905 674.973 236.249 674.437 235.796C674.084 235.503 673.654 235.332 673.19 235.303C672.617 235.26 672.059 235.447 671.623 235.83C671.188 236.209 670.927 236.735 670.894 237.318C670.846 238.01 671.127 238.661 671.661 239.115Z" fill="white"/>
<path d="M515.273 160.057C515.652 160.373 516.116 160.558 516.613 160.589C517.226 160.634 517.818 160.428 518.282 160.022C518.742 159.612 519.027 159.05 519.067 158.433C519.115 157.691 518.816 156.986 518.247 156.508C517.867 156.192 517.403 156.007 516.91 155.975C515.64 155.885 514.534 156.859 514.448 158.132C514.404 158.874 514.703 159.575 515.273 160.057Z" fill="white"/>
<path d="M652.534 155.903C652.865 156.182 653.276 156.344 653.709 156.374C654.252 156.41 654.777 156.229 655.185 155.877C655.595 155.512 655.843 155.015 655.875 154.473C655.921 153.823 655.657 153.204 655.152 152.777C654.821 152.498 654.41 152.336 653.977 152.306C652.859 152.232 651.883 153.086 651.811 154.209C651.765 154.859 652.025 155.481 652.534 155.903Z" fill="white"/>
<path d="M315.699 77.9198C315.324 77.6076 314.868 77.4175 314.387 77.3852C313.77 77.3454 313.182 77.543 312.718 77.9446C312.258 78.3584 311.977 78.9165 311.937 79.5291C311.893 80.2649 312.186 80.9509 312.76 81.4288C313.135 81.745 313.587 81.9354 314.08 81.9669C314.689 82.0115 315.28 81.8053 315.74 81.3956C316.209 80.9937 316.477 80.4386 316.517 79.8238C316.566 79.0899 316.272 78.3935 315.699 77.9198Z" fill="white"/>
<path d="M276.434 223.21C275.987 222.847 275.448 222.629 274.872 222.586C274.157 222.537 273.457 222.779 272.917 223.255C272.38 223.726 272.049 224.383 272.008 225.104C271.947 225.965 272.304 226.787 272.964 227.348C273.407 227.716 273.947 227.936 274.519 227.973C275.243 228.022 275.939 227.788 276.479 227.308C277.024 226.833 277.347 226.176 277.392 225.455C277.449 224.591 277.102 223.776 276.434 223.21Z" fill="white"/>
<path d="M66.606 159.928C66.1665 159.551 65.6192 159.336 65.0315 159.294C64.3038 159.245 63.5936 159.488 63.0474 159.972C62.4902 160.449 62.1643 161.114 62.1197 161.848C62.0602 162.73 62.4176 163.56 63.0945 164.124C63.5422 164.5 64.086 164.724 64.6732 164.758C65.3967 164.807 66.1074 164.572 66.662 164.087C67.2103 163.603 67.5363 162.94 67.589 162.204C67.6491 161.329 67.2875 160.5 66.606 159.928Z" fill="white"/>
<path d="M368.61 197.096C368.24 196.792 367.793 196.613 367.318 196.581C366.722 196.539 366.146 196.736 365.691 197.129C365.245 197.521 364.974 198.072 364.937 198.664C364.887 199.387 365.18 200.063 365.728 200.53C366.098 200.834 366.545 201.017 367.02 201.045C367.62 201.086 368.196 200.894 368.646 200.497C369.096 200.1 369.368 199.562 369.405 198.958C369.45 198.239 369.161 197.563 368.61 197.096Z" fill="white"/>
<path d="M7.06 103.628C6.64541 103.281 6.14478 103.079 5.60112 103.043C4.92371 102.998 4.27458 103.221 3.76907 103.661C3.26204 104.109 2.94933 104.723 2.90949 105.403C2.85754 106.212 3.18162 106.979 3.81014 107.505C4.22473 107.852 4.72536 108.054 5.26902 108.09C5.94228 108.135 6.59612 107.92 7.10107 107.472C7.61225 107.023 7.91257 106.41 7.9524 105.731C8.0085 104.921 7.68023 104.154 7.06 103.628Z" fill="white"/>
<path d="M160.895 128.577C160.484 128.234 159.984 128.033 159.445 128C158.775 127.955 158.13 128.173 157.623 128.613C157.119 129.053 156.815 129.671 156.771 130.342C156.718 131.147 157.046 131.91 157.666 132.428C158.072 132.772 158.577 132.977 159.116 133.014C159.785 133.05 160.434 132.832 160.938 132.392C161.441 131.953 161.742 131.341 161.782 130.664C161.838 129.863 161.514 129.096 160.895 128.577Z" fill="white"/>
<path d="M54.4461 226.045C54.0447 225.709 53.5571 225.515 53.0386 225.481C52.3863 225.439 51.7574 225.652 51.2655 226.079C50.7822 226.509 50.4807 227.103 50.4393 227.76C50.3893 228.535 50.7076 229.278 51.3077 229.783C51.7134 230.123 52.1966 230.313 52.7193 230.347C54.0596 230.436 55.2256 229.415 55.3104 228.07C55.362 227.288 55.044 226.55 54.4461 226.045Z" fill="white"/>
<path d="M226.94 181.956C226.588 181.668 226.162 181.496 225.704 181.462C225.139 181.423 224.588 181.614 224.161 181.988C223.735 182.367 223.47 182.888 223.435 183.457C223.396 184.138 223.67 184.786 224.198 185.231C224.546 185.529 224.972 185.696 225.429 185.721C226.603 185.805 227.619 184.909 227.699 183.735C227.744 183.049 227.466 182.402 226.94 181.956Z" fill="white"/>
<path d="M295.948 150.849C295.595 150.556 295.169 150.381 294.712 150.355C294.147 150.32 293.595 150.503 293.165 150.881C292.738 151.26 292.477 151.773 292.445 152.345C292.397 153.031 292.676 153.679 293.207 154.128C293.556 154.421 293.977 154.589 294.431 154.619C295.61 154.694 296.629 153.805 296.703 152.62C296.754 151.94 296.475 151.292 295.948 150.849Z" fill="white"/>
<path d="M102.109 194.377C101.756 194.084 101.33 193.909 100.877 193.883C100.31 193.848 99.7565 194.035 99.3299 194.409C98.9035 194.788 98.6428 195.309 98.606 195.878C98.5622 196.559 98.8327 197.211 99.3639 197.652C99.7166 197.945 100.138 198.117 100.596 198.142C101.771 198.222 102.79 197.333 102.865 196.152C102.908 195.467 102.634 194.819 102.109 194.377Z" fill="white"/>
</g>
</svg>
