<svg width="106" height="106" viewBox="0 0 106 106" fill="none" xmlns="http://www.w3.org/2000/svg">
<rect x="62.0674" y="68.6503" width="6" height="33" rx="3" transform="rotate(-49.1727 62.0674 68.6503)" fill="#22B0FF"/>
<circle cx="53.0082" cy="53.1954" r="35.0297" fill="url(#paint0_linear_3447_1416)"/>
<path d="M55.0729 31.4373C58.0389 31.4373 60.6004 31.9227 62.7575 32.8933C64.9146 33.8101 66.3975 34.646 67.2065 35.4009V42.1148C65.6965 40.9824 63.9708 40.0117 62.0295 39.2028C60.0881 38.3399 57.7693 37.9085 55.0729 37.9085C52.2148 37.9085 49.7072 38.6096 47.5501 40.0117C45.393 41.3598 43.7213 43.1664 42.5349 45.4313C41.4025 47.6423 40.8362 50.069 40.8362 52.7114C40.8362 55.2999 41.4025 57.7266 42.5349 59.9916C43.7213 62.2026 45.393 64.0091 47.5501 65.4112C49.7072 66.7594 52.2148 67.4335 55.0729 67.4335C57.7693 67.4335 60.0881 67.029 62.0295 66.2201C63.9708 65.3573 65.6965 64.3596 67.2065 63.2272V69.9411C66.3975 70.75 64.9146 71.6128 62.7575 72.5296C60.6004 73.4463 58.0389 73.9047 55.0729 73.9047C50.9745 73.9047 47.3344 72.934 44.1527 70.9926C40.971 69.0513 38.4634 66.4898 36.6299 63.3081C34.8503 60.0725 33.9606 56.5403 33.9606 52.7114C33.9606 48.8826 34.8503 45.3504 36.6299 42.1148C38.4634 38.8792 40.971 36.2907 44.1527 34.3494C47.3344 32.408 50.9745 31.4373 55.0729 31.4373Z" fill="white"/>
<rect x="2.68555" y="2.87292" width="100.645" height="100.645" rx="4" stroke="#0086FD" stroke-width="4"/>
<defs>
<linearGradient id="paint0_linear_3447_1416" x1="22.6222" y1="26.2636" x2="78.1051" y2="28.3657" gradientUnits="userSpaceOnUse">
<stop stop-color="#0086FD"/>
<stop offset="1" stop-color="#21AFFF"/>
</linearGradient>
</defs>
</svg>
