<svg version="1.1" id="prefix__Layer_1" xmlns="http://www.w3.org/2000/svg" xmlns:xlink="http://www.w3.org/1999/xlink" x="0" y="0" viewBox="0 0 1239 477" xml:space="preserve"><style>.prefix__st0{fill-rule:evenodd;clip-rule:evenodd;fill:#6697c9}.prefix__st4{fill:none;stroke:#6d6e70;stroke-miterlimit:10}.prefix__st5{fill:#6697c9}.prefix__st6{fill:#353233}.prefix__st7{fill:#fff}.prefix__st8{fill:#7ba5d1}.prefix__st12,.prefix__st15{fill-rule:evenodd;clip-rule:evenodd;fill:#6699cb}.prefix__st15{fill:#2e6799}.prefix__st16{fill:#40be46}.prefix__st22,.prefix__st23{fill-rule:evenodd;clip-rule:evenodd}.prefix__st23{fill:#40be46}.prefix__st24{fill:none;stroke:#000;stroke-width:2.5;stroke-miterlimit:10}</style><path class="prefix__st0" d="M600.06 251.82l-70.32-40.77v65.37l70.32 46.33z"/><defs><path id="prefix__SVGID_1_" d="M529.55 211.05l70.51 40.77 70.32-37.5-72.13-35.48z"/></defs><clipPath id="prefix__SVGID_2_"><use xlink:href="#prefix__SVGID_1_" overflow="visible"/></clipPath><linearGradient id="prefix__SVGID_3_" gradientUnits="userSpaceOnUse" x1="634.322" y1="235.18" x2="591.688" y2="210.547"><stop offset="0" stop-color="#add3e4"/><stop offset="1" stop-color="#add3e4"/></linearGradient><path clip-path="url(#prefix__SVGID_2_)" fill="url(#prefix__SVGID_3_)" d="M529.55 178.84h140.84v72.99H529.55z"/><path fill-rule="evenodd" clip-rule="evenodd" fill="#7ba5d1" d="M600.06 251.82l70.32-37.5v65.37l-70.32 43.06z"/><path class="prefix__st0" d="M600.36 196.39l-4.07.46-.58.24-.65.02-.58.24-3.19.76-.46.19-.42.01-.38.32-5.88 2.18-.31.23c-2.66 1.03-4.81 2.48-7.11 3.66l-.27.28c-2.06 1.16-2.8 1.76-4.24 3.2l-.34.23-1.46 1.96-.29.25-.48.98-.26.28c-1.66 3.79-1.63 4.4-1.29 8.82l.29.44v.45l.2.4.55 1.36.23.32.24.71.28.25c.85 1.51 1.89 2.71 2.9 3.81.57.62 2.97 2.57 3.92 3.06l.26.29c1.93.92 3.36 2.08 5.81 2.93l.33.22 4.76 1.49.53.26c1.64.18 3.36.66 5.17.89 1.99.26 3.03-.69 4.68-1.4l.31-.23h.22l.31-.24 7.53-3.46.31-.23h.22l.31-.24 4.33-2.06-.38-.16c-2.55-.11-5.56.27-8.32.2-2.76-.07-5.33-.58-7.85-.68l-.54-.26c-1.83-.17-3.66-.94-5.25-1.49l-.34-.22c-2.54-.91-4.89-2.92-5.99-4.99-1.75-3.3-.66-5.76.66-8.55l.29-.25.23-.46.3-.25c1.37-1.94 4.73-4.64 8.02-5.69l.34-.22 3.5-.99.51-.27.54.03.53-.26 2.33-.2c.56-.37.85-.32 1.65-.33h5.41c.85-.03 1.6-.02 2.21.32l3.15.42.39.31c1.91.27 3.51 1.33 5.12 1.92l.28.26 1 .47.27.28c1.7.9 4.7 3.65 5.33 5.84l.22.36c.72 2.48.54 3.3-.01 5.74l-.19.44-.88 1.9 1.32-.53.29-.25 10.4-5.39.29-.25 2.49-1.23.29-.25 2.49-1.23.29-.28c.09-.54-3.12-3.19-3.82-3.84l-.24-.34c-.84-.72-2.05-1.77-3.04-2.39l-.25-.31c-.99-.56-1.83-1.44-2.8-1.92l-.27-.27-2.52-1.45-.26-.28-3.28-1.7-.31-.24-4.22-1.75-.36-.21-2.55-.72-.41-.3h-.44l-.47-.19h-.46l-.43-.29c-2.08-.2-4.37-.87-6.7-1.08-2.8-.25-5.52.06-8.03-.15l-.96.29z"/><path fill-rule="evenodd" clip-rule="evenodd" fill="#2f6797" d="M636.46 232.41l2.62-1.4v67.85l-2.62 1.6z"/><path d="M541.54 341.55c-1.79 0-3.19.59-4.23 1.78-1.03 1.19-1.55 2.82-1.55 4.88 0 2.13.5 3.77 1.49 4.93 1 1.16 2.42 1.74 4.26 1.74 1.13 0 2.43-.2 3.88-.61v1.66c-1.13.42-2.51.63-4.17.63-2.39 0-4.24-.73-5.54-2.18-1.3-1.45-1.95-3.51-1.95-6.19 0-1.67.31-3.14.94-4.4.63-1.26 1.53-2.23 2.71-2.91 1.18-.68 2.57-1.02 4.17-1.02 1.7 0 3.19.31 4.47.93l-.8 1.62c-1.22-.57-2.45-.86-3.68-.86zM559.17 350.24c0 1.99-.5 3.54-1.5 4.65-1 1.12-2.38 1.67-4.14 1.67-1.09 0-2.06-.26-2.9-.77-.84-.51-1.5-1.25-1.96-2.2-.46-.96-.69-2.08-.69-3.36 0-1.98.5-3.53 1.49-4.64.99-1.11 2.37-1.66 4.13-1.66 1.7 0 3.06.57 4.06 1.7 1.01 1.14 1.51 2.67 1.51 4.61zm-9.27 0c0 1.56.31 2.74.93 3.56.62.81 1.54 1.22 2.74 1.22 1.21 0 2.12-.41 2.75-1.22.63-.81.94-2 .94-3.56 0-1.55-.31-2.72-.94-3.53s-1.55-1.21-2.77-1.21c-1.21 0-2.12.4-2.73 1.19-.62.8-.92 1.98-.92 3.55zM570.74 356.34v-7.88c0-.99-.23-1.73-.68-2.22-.45-.49-1.16-.73-2.12-.73-1.27 0-2.21.34-2.8 1.03-.59.69-.89 1.83-.89 3.41v6.39h-1.84v-12.18h1.5l.3 1.67h.09c.38-.6.91-1.06 1.59-1.39.68-.33 1.44-.49 2.28-.49 1.47 0 2.57.35 3.31 1.06.74.71 1.11 1.84 1.11 3.39v7.94h-1.85zM583.86 356.34l-.37-1.73h-.09c-.61.76-1.21 1.28-1.82 1.55-.6.27-1.36.41-2.26.41-1.21 0-2.15-.31-2.84-.93s-1.03-1.51-1.03-2.66c0-2.46 1.97-3.75 5.9-3.87l2.07-.07v-.76c0-.96-.21-1.66-.62-2.12-.41-.46-1.07-.68-1.97-.68-1.01 0-2.16.31-3.44.93l-.57-1.41c.6-.33 1.26-.58 1.97-.77s1.43-.28 2.15-.28c1.45 0 2.53.32 3.23.97.7.64 1.05 1.68 1.05 3.1v8.31h-1.36zm-4.17-1.3c1.15 0 2.05-.31 2.71-.94.66-.63.98-1.51.98-2.64v-1.1l-1.84.08c-1.47.05-2.52.28-3.17.68-.65.4-.97 1.03-.97 1.88 0 .67.2 1.17.6 1.52.4.35.97.52 1.69.52zM597.36 356.34v-7.88c0-.99-.23-1.73-.68-2.22-.45-.49-1.16-.73-2.12-.73-1.27 0-2.21.34-2.8 1.03-.59.69-.89 1.83-.89 3.41v6.39h-1.84v-12.18h1.5l.3 1.67h.09c.38-.6.91-1.06 1.59-1.39.68-.33 1.44-.49 2.28-.49 1.47 0 2.57.35 3.31 1.06.74.71 1.11 1.84 1.11 3.39v7.94h-1.85zM616.13 341.55c-1.79 0-3.19.59-4.23 1.78-1.03 1.19-1.55 2.82-1.55 4.88 0 2.13.5 3.77 1.49 4.93 1 1.16 2.42 1.74 4.26 1.74 1.13 0 2.43-.2 3.88-.61v1.66c-1.13.42-2.51.63-4.17.63-2.39 0-4.24-.73-5.54-2.18-1.3-1.45-1.95-3.51-1.95-6.19 0-1.67.31-3.14.94-4.4s1.53-2.23 2.71-2.91 2.57-1.02 4.17-1.02c1.7 0 3.19.31 4.47.93l-.8 1.62c-1.22-.57-2.45-.85-3.68-.86zM625.1 356.34h-1.84v-17.29h1.84v17.29zM628.85 340.87c0-.42.1-.73.31-.93.21-.2.47-.29.78-.29.3 0 .55.1.77.3s.32.51.32.92c0 .42-.11.72-.32.93-.21.2-.47.31-.77.31-.31 0-.57-.1-.78-.31-.2-.21-.31-.52-.31-.93zm2 15.47h-1.84v-12.18h1.84v12.18zM639.91 356.57c-1.8 0-3.22-.55-4.26-1.65-1.04-1.1-1.56-2.62-1.56-4.57 0-1.96.48-3.52 1.45-4.68.97-1.15 2.26-1.73 3.89-1.73 1.53 0 2.73.5 3.62 1.5.89 1 1.33 2.33 1.33 3.97v1.17h-8.39c.04 1.43.4 2.52 1.08 3.26.68.74 1.65 1.11 2.89 1.11 1.31 0 2.61-.27 3.89-.82v1.64c-.65.28-1.27.48-1.85.61-.57.13-1.27.19-2.09.19zm-.5-11.08c-.98 0-1.76.32-2.34.96-.58.64-.92 1.52-1.03 2.64h6.37c0-1.16-.26-2.05-.78-2.67s-1.26-.93-2.22-.93zM655.86 356.35v-7.88c0-.99-.23-1.73-.68-2.22-.45-.49-1.16-.73-2.12-.73-1.27 0-2.21.34-2.8 1.03-.59.69-.89 1.83-.89 3.41v6.39h-1.84v-12.18h1.5l.3 1.67h.09c.38-.6.91-1.06 1.59-1.39.68-.33 1.44-.49 2.28-.49 1.47 0 2.57.35 3.31 1.06.74.71 1.11 1.84 1.11 3.39v7.94h-1.85zM665.43 355.05c.33 0 .64-.02.94-.07s.54-.1.72-.15v1.41c-.2.1-.49.18-.88.24s-.74.09-1.05.09c-2.36 0-3.53-1.24-3.53-3.72v-7.24h-1.74v-.89l1.75-.77.78-2.6h1.07v2.82h3.53v1.43h-3.53v7.17c0 .73.17 1.3.52 1.69.33.39.81.59 1.42.59z"/><g><path class="prefix__st4" d="M908.19 129.76l-183.98 69.88"/><path class="prefix__st5" d="M727.53 203.89l7.35 2.14-1.34-3.28-1.87-.55-7.36-2.14 3.77-6.67.96-1.7-1.34-3.29-3.77 6.68-3.76 6.67zM904.57 126.06l-7.34-2.2 1.31 3.29 1.87.56 7.34 2.2-3.82 6.65-.97 1.69 1.32 3.29 3.81-6.64 3.82-6.64z"/></g><g><path class="prefix__st4" d="M723.89 286.6l183.98 69.88"/><path class="prefix__st5" d="M727.51 282.9l7.34-2.2-1.32 3.3-1.86.56-7.34 2.19 3.81 6.65.98 1.69-1.32 3.29-3.81-6.64-3.82-6.64z"/></g><g><path class="prefix__st4" d="M289.32 356.97l183.97-69.88"/><path class="prefix__st5" d="M469.98 282.84l-7.36-2.14 1.34 3.29 1.87.54 7.36 2.14-3.77 6.67-.95 1.7 1.34 3.29 3.76-6.68 3.76-6.67z"/></g><g><path class="prefix__st4" d="M473.61 200.13l-183.97-69.88"/><path class="prefix__st5" d="M469.99 203.83l-7.34 2.2 1.32-3.29 1.86-.56 7.34-2.2-3.81-6.65-.97-1.69 1.31-3.29 3.82 6.64 3.81 6.64z"/></g><g><path class="prefix__st6" d="M116.41 100.32c.24 0 .49-.06.72-.19a57.448 57.448 0 0 1 22.54-7.51c.41-1.72.71-3.49.95-5.26 2.09.76 4.11 1.16 5.73 1.16 1.61 0 3.63-.4 5.73-1.16.25 1.78.54 3.55.95 5.26 8 .92 15.59 3.45 22.54 7.51.23.13.47.19.72.19.49 0 .97-.25 1.23-.71.13-.22.19-.47.19-.71 0-.49-.25-.97-.7-1.23a60.35 60.35 0 0 0-21.62-7.61c-.25-1.28-.44-2.58-.61-3.89 4.69-2.41 9.04-6.66 9.44-12.53a8.526 8.526 0 0 0 3.16-11.84c-.1-.17-.21-.34-.32-.5a21.56 21.56 0 0 0 .94-6.33c0-8.98-5.4-16.89-13.77-20.16h-.01a21.553 21.553 0 0 0-8.76-1.46h-1.15c-1.14 0-2.29.12-3.38.45-10.2 3.15-16.24 11.76-16.24 21.17 0 2.15.32 4.28.95 6.33a8.526 8.526 0 0 0 2.84 12.34c.4 5.87 4.74 10.12 9.44 12.53-.16 1.3-.36 2.6-.61 3.89a60.159 60.159 0 0 0-21.62 7.61c-.45.26-.71.74-.7 1.23 0 .24.06.49.19.71.26.45.74.71 1.23.71zm25.38-63.79c.86-.26 1.77-.35 2.67-.35h1.11c2.58-.1 5.18.32 7.61 1.27 7.26 2.84 11.96 9.72 11.96 17.51 0 1.2-.12 2.42-.35 3.61-.14.73-.34 1.47-.58 2.19-1.2-.26-2.39-.62-3.55-1.08a22.442 22.442 0 0 1-9.17-6.79 1.42 1.42 0 0 0-1.71-.4c-.59.28-.92.93-.79 1.57.34 1.66.85 3.3 1.53 4.88.1.23.2.46.3.68-2.66-.54-5.22-1.56-7.51-3.01a22.176 22.176 0 0 1-6.16-5.78c-3.1 1.82-5.66 4.53-7.32 7.72-.47.9-.87 1.83-1.19 2.79-.03-.08-.06-.17-.09-.25-.68-1.98-1.03-4.05-1.03-6.14.02-8.21 5.32-15.73 14.27-18.42zM131.27 73c.1-.63-.21-1.27-.83-1.53a5.691 5.691 0 0 1-3.5-5.27c0-.45.07-.89.18-1.33.27.53.54 1.05.85 1.56.26.42.72.67 1.21.67.11 0 .22-.01.32-.04.59-.14 1.03-.64 1.09-1.24.21-2.07.8-4.07 1.77-5.92 1.04-2 2.5-3.78 4.25-5.2a25.245 25.245 0 0 0 16.68 8.17h.11a1.426 1.426 0 0 0 1.21-2.17c-.35-.57-.66-1.15-.95-1.75.91.7 1.87 1.34 2.88 1.92.99.56 2.02 1.05 3.07 1.47a24.676 24.676 0 0 0 5.32 1.47c.08.01.15.02.22.02.02 0 .03-.01.05-.01.35.75.54 1.56.54 2.38 0 2.31-1.38 4.38-3.5 5.27-.62.26-.93.9-.83 1.53-.19 7.74-9.94 12.68-15.07 12.68-4.47-.01-14.88-4.32-15.07-12.68zM194.59 147.8h-5.76v-37.86c0-3.14-2.45-5.69-5.45-5.69h-74.26c-3.01 0-5.45 2.55-5.45 5.69v37.86H97.9a1.419 1.419 0 1 0 0 2.84h96.69a1.419 1.419 0 1 0 0-2.84zm-88.09-37.85c0-1.57 1.17-2.84 2.61-2.84h74.26c1.44 0 2.61 1.28 2.61 2.84v37.86H106.5v-37.86z"/><path class="prefix__st6" d="M150.4 123.3c-6.06-4.66-12.98 2.25-8.32 8.31 6.06 4.66 12.98-2.25 8.32-8.31zm-4.16 7c-1.57 0-2.84-1.28-2.84-2.84 0-1.57 1.28-2.84 2.84-2.84 1.57 0 2.84 1.28 2.84 2.84.01 1.56-1.27 2.84-2.84 2.84z"/><g><path d="M66.43 173.94c-1.79 0-3.19.59-4.23 1.78-1.03 1.19-1.55 2.82-1.55 4.88 0 2.13.5 3.77 1.49 4.93s2.42 1.74 4.26 1.74c1.13 0 2.43-.2 3.88-.61v1.66c-1.13.42-2.51.63-4.17.63-2.39 0-4.24-.73-5.54-2.18-1.3-1.45-1.95-3.52-1.95-6.19 0-1.67.31-3.14.94-4.4.63-1.26 1.53-2.23 2.71-2.91 1.18-.68 2.57-1.02 4.17-1.02 1.7 0 3.19.31 4.47.93l-.8 1.62c-1.22-.58-2.45-.86-3.68-.86zM79.72 172.48l-6.06 16.24h-1.84l6.06-16.24h1.84zM89.14 173.94c-1.79 0-3.19.59-4.23 1.78-1.03 1.19-1.55 2.82-1.55 4.88 0 2.13.5 3.77 1.49 4.93s2.42 1.74 4.26 1.74c1.13 0 2.43-.2 3.88-.61v1.66c-1.13.42-2.51.63-4.17.63-2.39 0-4.24-.73-5.54-2.18-1.3-1.45-1.95-3.51-1.95-6.19 0-1.67.31-3.14.94-4.4s1.53-2.23 2.71-2.91c1.18-.68 2.57-1.02 4.17-1.02 1.7 0 3.19.31 4.47.93l-.8 1.62c-1.22-.57-2.45-.86-3.68-.86zM101.56 179.94h4.58v1.53h-4.58v4.73h-1.54v-4.73h-4.56v-1.53h4.56v-4.75h1.54v4.75zM114.57 179.94h4.58v1.53h-4.58v4.73h-1.54v-4.73h-4.56v-1.53h4.56v-4.75h1.54v4.75zM141.43 180.45c0 2.68-.73 4.73-2.18 6.15-1.46 1.42-3.55 2.13-6.28 2.13h-4.5v-16.24h4.98c2.53 0 4.49.7 5.89 2.1 1.39 1.4 2.09 3.35 2.09 5.86zm-2 .07c0-2.12-.53-3.71-1.59-4.79-1.06-1.07-2.64-1.61-4.74-1.61h-2.74v12.98h2.3c2.25 0 3.94-.55 5.08-1.66 1.12-1.11 1.69-2.75 1.69-4.92zM149.92 188.95c-1.8 0-3.22-.55-4.26-1.65-1.04-1.1-1.56-2.62-1.56-4.57 0-1.96.48-3.52 1.45-4.68.97-1.16 2.26-1.73 3.89-1.73 1.53 0 2.73.5 3.62 1.5.89 1 1.33 2.33 1.33 3.97v1.17H146c.04 1.43.4 2.51 1.08 3.25.68.74 1.65 1.11 2.89 1.11 1.31 0 2.61-.27 3.89-.82v1.64c-.65.28-1.27.48-1.85.61s-1.27.2-2.09.2zm-.5-11.07c-.98 0-1.76.32-2.34.95-.58.64-.92 1.52-1.03 2.64h6.37c0-1.16-.26-2.05-.78-2.67s-1.26-.92-2.22-.92zM160.21 188.73l-4.62-12.18h1.98l2.62 7.22c.59 1.69.94 2.79 1.04 3.29h.09c.08-.39.34-1.21.77-2.44s1.41-3.92 2.92-8.07h1.98l-4.62 12.18h-2.16zM174.08 188.96c-1.8 0-3.22-.55-4.26-1.64-1.04-1.1-1.56-2.62-1.56-4.57 0-1.96.48-3.52 1.45-4.68.97-1.16 2.26-1.73 3.89-1.73 1.53 0 2.73.5 3.62 1.5.89 1 1.33 2.33 1.33 3.97v1.17h-8.39c.04 1.43.4 2.51 1.08 3.25.68.74 1.65 1.11 2.89 1.11 1.31 0 2.61-.27 3.89-.82v1.64c-.65.28-1.27.48-1.85.6s-1.26.2-2.09.2zm-.5-11.08c-.98 0-1.76.32-2.34.96-.58.64-.92 1.52-1.03 2.64h6.37c0-1.16-.26-2.05-.78-2.67s-1.25-.93-2.22-.93zM183.55 188.73h-1.84v-17.29h1.84v17.29zM197.97 182.64c0 1.99-.5 3.54-1.5 4.65-1 1.12-2.38 1.67-4.14 1.67-1.09 0-2.06-.26-2.9-.77-.84-.51-1.5-1.25-1.96-2.2-.46-.96-.69-2.08-.69-3.36 0-1.98.5-3.53 1.49-4.64.99-1.11 2.37-1.66 4.13-1.66 1.7 0 3.06.57 4.06 1.7 1.01 1.14 1.51 2.67 1.51 4.61zm-9.28 0c0 1.56.31 2.74.93 3.56.62.81 1.54 1.22 2.74 1.22 1.21 0 2.12-.41 2.75-1.22.63-.81.94-2 .94-3.56 0-1.55-.31-2.72-.94-3.53-.63-.8-1.55-1.21-2.77-1.21-1.21 0-2.12.4-2.73 1.19-.61.79-.92 1.97-.92 3.55zM206.87 188.96c-.79 0-1.52-.15-2.17-.44-.66-.29-1.21-.74-1.65-1.35h-.13c.09.71.13 1.38.13 2.02v5.01h-1.84v-17.64h1.5l.26 1.67h.09c.47-.67 1.03-1.15 1.66-1.44.63-.3 1.35-.44 2.17-.44 1.61 0 2.86.55 3.74 1.66.88 1.1 1.32 2.65 1.32 4.64 0 2-.45 3.55-1.34 4.66-.92 1.1-2.16 1.65-3.74 1.65zm-.27-11.06c-1.24 0-2.14.34-2.7 1.03s-.84 1.79-.86 3.29v.41c0 1.71.28 2.94.85 3.67.57.74 1.48 1.11 2.74 1.11 1.05 0 1.88-.43 2.47-1.28s.9-2.03.9-3.52c0-1.52-.3-2.68-.89-3.49-.59-.81-1.43-1.22-2.51-1.22zM220.29 188.96c-1.8 0-3.22-.55-4.26-1.65s-1.56-2.62-1.56-4.57c0-1.96.48-3.52 1.45-4.68.97-1.15 2.26-1.73 3.89-1.73 1.53 0 2.73.5 3.62 1.5.89 1 1.33 2.33 1.33 3.97v1.17h-8.39c.04 1.43.4 2.51 1.08 3.25.68.74 1.65 1.11 2.89 1.11 1.31 0 2.61-.27 3.89-.82v1.64c-.65.28-1.27.48-1.85.61s-1.27.2-2.09.2zm-.5-11.08c-.98 0-1.76.32-2.34.96-.58.64-.92 1.52-1.03 2.64h6.37c0-1.16-.26-2.05-.78-2.67s-1.26-.93-2.22-.93zM233.47 176.34c.54 0 1.03.04 1.46.13l-.26 1.71c-.5-.11-.95-.17-1.33-.17-.98 0-1.83.4-2.53 1.2-.7.8-1.05 1.8-1.05 2.99v6.53h-1.84v-12.18h1.52l.21 2.26h.09c.45-.79 1-1.4 1.63-1.83.63-.42 1.33-.64 2.1-.64z"/></g></g><g><path d="M32.8 419.13c-1.79 0-3.19.59-4.23 1.78-1.03 1.19-1.55 2.82-1.55 4.88 0 2.13.5 3.77 1.49 4.93 1 1.16 2.42 1.74 4.26 1.74 1.13 0 2.43-.2 3.88-.61v1.66c-1.13.42-2.52.63-4.17.63-2.39 0-4.24-.73-5.54-2.18-1.3-1.45-1.95-3.51-1.95-6.19 0-1.67.31-3.14.94-4.4.63-1.26 1.53-2.23 2.71-2.91 1.18-.68 2.57-1.02 4.17-1.02 1.7 0 3.19.31 4.47.93l-.8 1.62c-1.22-.57-2.45-.86-3.68-.86zM50.43 427.82c0 1.99-.5 3.53-1.5 4.65-1 1.12-2.38 1.67-4.14 1.67-1.09 0-2.06-.26-2.9-.77-.84-.51-1.5-1.25-1.96-2.2-.46-.96-.69-2.07-.69-3.36 0-1.98.5-3.53 1.49-4.64.99-1.11 2.37-1.66 4.13-1.66 1.7 0 3.06.57 4.06 1.7 1.01 1.15 1.51 2.68 1.51 4.61zm-9.28 0c0 1.56.31 2.74.93 3.56.62.81 1.54 1.22 2.74 1.22 1.21 0 2.12-.41 2.75-1.22.63-.81.94-2 .94-3.56 0-1.55-.31-2.72-.94-3.53-.63-.8-1.55-1.21-2.77-1.21-1.21 0-2.12.4-2.73 1.19-.61.8-.92 1.98-.92 3.55zM61.99 433.92v-7.88c0-.99-.23-1.73-.68-2.22-.45-.49-1.16-.73-2.12-.73-1.27 0-2.21.34-2.8 1.03-.59.69-.89 1.83-.89 3.41v6.39h-1.84v-12.18h1.5l.3 1.67h.09c.38-.6.91-1.06 1.59-1.39.68-.33 1.44-.49 2.28-.49 1.47 0 2.57.35 3.31 1.06.74.71 1.11 1.84 1.11 3.39v7.94h-1.85zM71.56 432.62c.33 0 .64-.02.94-.07s.54-.1.72-.15v1.41c-.2.1-.49.18-.88.24s-.74.09-1.05.09c-2.36 0-3.53-1.24-3.53-3.72v-7.24h-1.74v-.89l1.74-.77.78-2.6h1.07v2.82h3.53v1.43h-3.53v7.17c0 .73.17 1.3.52 1.69.34.4.82.59 1.43.59zM75.5 418.45c0-.42.1-.73.31-.93.21-.2.47-.29.78-.29.3 0 .55.1.77.3s.32.51.32.92c0 .42-.11.72-.32.93-.21.2-.47.31-.77.31-.31 0-.57-.1-.78-.31-.2-.21-.31-.52-.31-.93zm2 15.47h-1.84v-12.18h1.84v12.18zM89.75 433.93v-7.88c0-.99-.23-1.73-.68-2.22-.45-.49-1.16-.73-2.12-.73-1.27 0-2.21.34-2.8 1.03-.59.69-.89 1.83-.89 3.41v6.39h-1.84v-12.18h1.5l.3 1.67h.09c.38-.6.91-1.06 1.59-1.39.68-.33 1.44-.49 2.28-.49 1.47 0 2.57.35 3.31 1.06.74.71 1.11 1.84 1.11 3.39v7.94h-1.85zM97.11 421.75v7.9c0 .99.23 1.73.68 2.22.45.49 1.16.73 2.12.73 1.27 0 2.21-.35 2.79-1.04s.88-1.83.88-3.41v-6.4h1.84v12.18h-1.52l-.27-1.63h-.1a3.7 3.7 0 0 1-1.57 1.38c-.67.32-1.44.48-2.29.48-1.48 0-2.59-.35-3.33-1.06-.74-.7-1.1-1.83-1.1-3.38v-7.97h1.87zM119.85 427.83c0 1.99-.5 3.54-1.5 4.65-1 1.12-2.38 1.67-4.14 1.67-1.09 0-2.06-.26-2.9-.77-.84-.51-1.5-1.25-1.96-2.2-.46-.96-.69-2.08-.69-3.36 0-1.98.5-3.53 1.49-4.64.99-1.11 2.37-1.66 4.13-1.66 1.7 0 3.06.57 4.06 1.7 1.01 1.14 1.51 2.68 1.51 4.61zm-9.27 0c0 1.56.31 2.74.93 3.56.62.81 1.54 1.22 2.74 1.22 1.21 0 2.12-.41 2.75-1.22.63-.81.94-2 .94-3.56 0-1.55-.31-2.72-.94-3.53-.63-.8-1.55-1.21-2.77-1.21-1.21 0-2.12.4-2.73 1.19-.61.8-.92 1.98-.92 3.55zM124.82 421.75v7.9c0 .99.23 1.73.68 2.22.45.49 1.16.73 2.12.73 1.27 0 2.21-.35 2.79-1.04s.88-1.83.88-3.41v-6.4h1.84v12.18h-1.52l-.27-1.63h-.1a3.7 3.7 0 0 1-1.57 1.38c-.67.32-1.44.48-2.29.48-1.48 0-2.59-.35-3.33-1.06-.74-.7-1.1-1.83-1.1-3.38v-7.97h1.87zM144.91 430.61c0 1.13-.42 2.01-1.27 2.62-.84.62-2.03.92-3.56.92-1.61 0-2.87-.26-3.78-.77v-1.71c.58.3 1.21.53 1.88.7.67.17 1.32.26 1.94.26.96 0 1.7-.15 2.22-.46.52-.31.78-.78.78-1.41 0-.47-.21-.88-.62-1.22s-1.21-.74-2.4-1.19c-1.13-.42-1.94-.79-2.42-1.11-.48-.31-.83-.67-1.07-1.07-.23-.4-.35-.88-.35-1.43 0-.99.4-1.78 1.21-2.35.81-.57 1.91-.86 3.32-.86 1.31 0 2.59.27 3.84.8l-.66 1.5c-1.22-.5-2.33-.76-3.32-.76-.87 0-1.53.14-1.98.41s-.67.65-.67 1.13c0 .33.08.6.25.83.17.23.44.45.81.66.37.21 1.08.51 2.13.9 1.44.53 2.42 1.06 2.93 1.59.53.54.79 1.21.79 2.02zM154.09 433.93v-16.24h1.89v16.24h-1.89zM168.49 433.93v-7.88c0-.99-.23-1.73-.68-2.22-.45-.49-1.16-.73-2.12-.73-1.27 0-2.21.34-2.8 1.03-.59.69-.89 1.83-.89 3.41v6.39h-1.84v-12.18h1.5l.3 1.67h.09c.38-.6.91-1.06 1.59-1.39.68-.33 1.44-.49 2.28-.49 1.47 0 2.57.35 3.31 1.06.74.71 1.11 1.84 1.11 3.39v7.94h-1.85zM178.06 432.64c.33 0 .64-.02.94-.07s.54-.1.72-.15v1.41c-.2.1-.49.18-.88.24s-.74.09-1.05.09c-2.36 0-3.53-1.24-3.53-3.72v-7.24h-1.74v-.89l1.74-.77.78-2.6h1.07v2.82h3.53v1.43h-3.53v7.17c0 .73.17 1.3.52 1.69s.82.59 1.43.59zM187.3 434.16c-1.8 0-3.22-.55-4.26-1.65-1.04-1.1-1.56-2.62-1.56-4.57 0-1.96.48-3.52 1.45-4.68.97-1.16 2.26-1.73 3.89-1.73 1.53 0 2.73.5 3.62 1.51.89 1 1.33 2.33 1.33 3.97v1.17h-8.39c.04 1.43.4 2.51 1.08 3.25.68.74 1.65 1.11 2.89 1.11 1.31 0 2.61-.27 3.89-.82v1.64c-.65.28-1.27.48-1.85.61s-1.27.19-2.09.19zm-.5-11.08c-.98 0-1.76.32-2.34.96-.58.64-.92 1.52-1.03 2.64h6.37c0-1.16-.26-2.05-.78-2.67-.51-.62-1.25-.93-2.22-.93zM204.89 421.76v1.17l-2.26.27c.21.26.39.6.56 1.02.16.42.24.89.24 1.42 0 1.19-.41 2.14-1.22 2.86-.82.71-1.93 1.07-3.36 1.07-.36 0-.7-.03-1.02-.09-.79.42-1.18.94-1.18 1.57 0 .33.14.58.41.74s.74.24 1.41.24h2.16c1.32 0 2.33.28 3.04.83.71.56 1.06 1.36 1.06 2.42 0 1.35-.54 2.38-1.62 3.08-1.08.71-2.66 1.06-4.73 1.06-1.59 0-2.82-.3-3.68-.89-.86-.59-1.29-1.43-1.29-2.51 0-.74.24-1.38.71-1.92s1.14-.91 2-1.1c-.31-.14-.57-.36-.78-.66-.21-.3-.32-.64-.32-1.03 0-.44.12-.83.36-1.17.24-.33.61-.66 1.12-.97-.63-.26-1.14-.7-1.54-1.32-.4-.62-.59-1.33-.59-2.13 0-1.33.4-2.36 1.2-3.08.8-.72 1.93-1.08 3.4-1.08.64 0 1.21.07 1.72.22h4.2zm-9.71 14.22c0 .66.28 1.16.83 1.5.56.34 1.35.51 2.39.51 1.55 0 2.69-.23 3.44-.69.74-.46 1.12-1.09 1.12-1.88 0-.66-.2-1.12-.61-1.37s-1.17-.38-2.3-.38h-2.21c-.84 0-1.49.2-1.96.6-.47.39-.7.96-.7 1.71zm1-10.32c0 .85.24 1.5.72 1.93.48.44 1.15.66 2.01.66 1.8 0 2.7-.87 2.7-2.62 0-1.83-.91-2.74-2.73-2.74-.87 0-1.53.23-2 .7-.47.46-.7 1.15-.7 2.07zM212.95 421.54c.54 0 1.03.04 1.46.13l-.26 1.71c-.5-.11-.95-.17-1.33-.17-.98 0-1.83.4-2.53 1.2s-1.05 1.8-1.05 2.99v6.53h-1.84v-12.18h1.52l.21 2.26h.09c.45-.79 1-1.4 1.63-1.83.63-.43 1.33-.64 2.1-.64zM224.17 433.94l-.37-1.73h-.09c-.61.76-1.21 1.28-1.82 1.55-.6.27-1.36.41-2.26.41-1.21 0-2.15-.31-2.84-.93-.69-.62-1.03-1.51-1.03-2.66 0-2.46 1.97-3.75 5.9-3.87l2.07-.07v-.76c0-.96-.21-1.66-.62-2.12-.41-.46-1.07-.68-1.97-.68-1.01 0-2.16.31-3.44.93l-.57-1.41c.6-.33 1.26-.58 1.97-.77s1.43-.28 2.15-.28c1.45 0 2.53.32 3.23.97.7.64 1.05 1.68 1.05 3.1v8.31h-1.36zm-4.17-1.3c1.15 0 2.05-.31 2.71-.94.66-.63.98-1.51.98-2.64v-1.1l-1.84.08c-1.47.05-2.52.28-3.17.68-.65.4-.97 1.03-.97 1.88 0 .67.2 1.17.61 1.52.39.35.95.52 1.68.52zM233.26 432.64c.33 0 .64-.02.94-.07s.54-.1.72-.15v1.41c-.2.1-.49.18-.88.24s-.74.09-1.05.09c-2.36 0-3.53-1.24-3.53-3.72v-7.24h-1.74v-.89l1.74-.77.78-2.6h1.07v2.82h3.53v1.43h-3.53v7.17c0 .73.17 1.3.52 1.69s.83.59 1.43.59zM237.21 418.46c0-.42.1-.73.31-.93.21-.2.47-.29.78-.29.3 0 .55.1.77.3s.32.51.32.92c0 .42-.11.72-.32.93-.21.2-.47.31-.77.31-.31 0-.57-.1-.78-.31-.21-.2-.31-.51-.31-.93zm2 15.48h-1.84v-12.18h1.84v12.18zM253.63 427.84c0 1.99-.5 3.54-1.5 4.65-1 1.12-2.38 1.67-4.14 1.67-1.09 0-2.06-.26-2.9-.77-.84-.51-1.5-1.25-1.96-2.2-.46-.96-.69-2.07-.69-3.36 0-1.98.5-3.53 1.49-4.64.99-1.11 2.37-1.66 4.13-1.66 1.7 0 3.06.57 4.06 1.7 1.01 1.15 1.51 2.68 1.51 4.61zm-9.28 0c0 1.56.31 2.74.93 3.56.62.82 1.54 1.22 2.74 1.22 1.21 0 2.12-.41 2.75-1.22.63-.81.94-2 .94-3.56 0-1.55-.31-2.72-.94-3.53-.63-.8-1.55-1.21-2.77-1.21-1.21 0-2.12.4-2.73 1.19-.61.8-.92 1.98-.92 3.55zM265.19 433.94v-7.88c0-.99-.23-1.73-.68-2.22-.45-.49-1.16-.73-2.12-.73-1.27 0-2.21.34-2.8 1.03-.59.69-.89 1.83-.89 3.41v6.39h-1.84v-12.18h1.5l.3 1.67h.09c.38-.6.91-1.06 1.59-1.39.68-.33 1.44-.49 2.28-.49 1.47 0 2.57.35 3.31 1.06.74.71 1.11 1.84 1.11 3.39v7.94h-1.85z"/></g><g><path class="prefix__st4" d="M984.83 332.69c-.02-.73-.1-1.44-.1-2.18.12-31.66 25.89-57.24 57.56-57.11 17.99.07 34 8.44 44.46 21.45 8.53-7.48 19.67-12.03 31.89-11.99 24.89.1 45.3 19.06 47.72 43.3.16 0 .31-.02.45-.02 26.71.1 48.27 21.84 48.17 48.54-.1 26.7-21.84 48.26-48.55 48.16-1.12 0-2.22-.11-3.33-.18-1.11.07-2.22.16-3.34.16l-161.32-.63c-25.3-.1-45.73-20.69-45.64-45.99.1-20.45 13.55-37.68 32.03-43.51z"/><path class="prefix__st7" d="M1035.49 410.83h96.37v24h-96.37z"/><path class="prefix__st5" d="M1076.49 430.84l-20.13-6.26-.08-26.74 20.12 6.25z"/><path class="prefix__st8" d="M1076.21 430.82l20.08-6.38-.09-26.75-20.08 6.39z"/><linearGradient id="prefix__SVGID_4_" gradientUnits="userSpaceOnUse" x1="1067.995" y1="3447.911" x2="1108.474" y2="3447.911" gradientTransform="matrix(1 -.00331 .00243 .7347 -20.537 -2130.66)"><stop offset="0" stop-color="#add3e4"/><stop offset="1" stop-color="#add3e4"/></linearGradient><path fill="url(#prefix__SVGID_4_)" d="M1055.83 398.14l20.4 6.25 20.08-6.39-20.12-4.77z"/><g><path class="prefix__st5" d="M1101.05 439.93l-20.07-6.42.14-26.74 20.07 6.42z"/><path class="prefix__st8" d="M1100.77 439.94l20.14-6.22.13-26.74-20.13 6.22z"/><linearGradient id="prefix__SVGID_5_" gradientUnits="userSpaceOnUse" x1="1074.196" y1="3371.989" x2="1114.676" y2="3371.989" gradientTransform="matrix(1 .00505 -.00371 .7347 19.33 -2074.89)"><stop offset="0" stop-color="#add3e4"/><stop offset="1" stop-color="#add3e4"/></linearGradient><path fill="url(#prefix__SVGID_5_)" d="M1081 407.07l20.35 6.43 20.13-6.22-20.08-4.94z"/></g><g><path class="prefix__st5" d="M1061.62 443.68l-15.04-4.79.08-20.03 15.04 4.79z"/><path class="prefix__st8" d="M1061.41 443.67l15.08-4.67.07-20.03-15.07 4.68z"/><linearGradient id="prefix__SVGID_6_" gradientUnits="userSpaceOnUse" x1="1060.715" y1="3460.323" x2="1091.03" y2="3460.323" gradientTransform="matrix(1 .004 -.00293 .7347 -4.231 -2126.78)"><stop offset="0" stop-color="#add3e4"/><stop offset="1" stop-color="#add3e4"/></linearGradient><path fill="url(#prefix__SVGID_6_)" d="M1046.33 419.08l15.24 4.8 15.08-4.68-15.04-3.68z"/></g><g><path class="prefix__st12" d="M1010.68 357.64l-22.09-12.81v20.53l22.09 14.55z"/><defs><path id="prefix__SVGID_7_" d="M1010.68 357.64l22.08-11.78-22.65-11.14-21.58 10.11z"/></defs><clipPath id="prefix__SVGID_8_"><use xlink:href="#prefix__SVGID_7_" overflow="visible"/></clipPath><linearGradient id="prefix__SVGID_9_" gradientUnits="userSpaceOnUse" x1="1021.383" y1="352.408" x2="1007.956" y2="344.614"><stop offset="0" stop-color="#b0d6e6"/><stop offset="1" stop-color="#b0d6e6"/></linearGradient><path clip-path="url(#prefix__SVGID_8_)" fill="url(#prefix__SVGID_9_)" d="M988.53 334.72h44.23v22.92h-44.23z"/><path fill-rule="evenodd" clip-rule="evenodd" fill="#7aa8d4" d="M1010.68 357.64l22.08-11.78v20.53l-22.08 13.52z"/><path class="prefix__st12" d="M1010.77 340.23l-1.28.14-.18.08h-.2l-.18.08-1 .24-.14.06h-.13l-.12.1-1.85.68-.1.07c-.83.32-1.51.78-2.23 1.15l-.08.09c-.65.36-.88.55-1.33 1l-.11.07-.46.62-.09.08-.15.31-.08.09c-.52 1.19-.51 1.38-.4 2.77l.09.14v.14l.06.13.17.43.07.1.08.22.09.08c.27.47.59.85.91 1.2.18.19.93.81 1.23.96l.08.09c.61.29 1.05.65 1.83.92l.1.07 1.49.47.17.08c.52.06 1.06.21 1.62.28.62.08.95-.22 1.47-.44l.1-.07h.07l.1-.07 2.36-1.09.1-.07h.07l.1-.07 1.36-.65-.12-.05c-.8-.03-1.75.09-2.61.06-.87-.02-1.67-.18-2.47-.21l-.17-.08c-.57-.05-1.15-.3-1.65-.47l-.11-.07c-.8-.29-1.53-.92-1.88-1.57-.55-1.04-.21-1.81.21-2.69l.09-.08.07-.14.09-.08c.43-.61 1.48-1.46 2.52-1.79l.11-.07 1.1-.31.16-.08.17.01.17-.08.73-.06c.18-.11.27-.1.52-.1h1.7c.27-.01.5-.01.69.1l.99.13.12.1c.6.08 1.1.42 1.61.6l.09.08.32.15.08.09c.53.28 1.48 1.15 1.67 1.83l.07.11c.22.78.17 1.04 0 1.8l-.06.14-.28.6.42-.17.09-.08 3.27-1.69.09-.08.78-.39.09-.08.78-.39.09-.09c.03-.17-.98-1-1.2-1.21l-.08-.11c-.26-.22-.64-.55-.96-.75l-.08-.1c-.31-.18-.57-.45-.88-.6l-.09-.09-.79-.46-.08-.09-1.03-.53-.1-.07-1.32-.55-.11-.07-.8-.23-.13-.1h-.14l-.15-.06h-.15l-.14-.09c-.65-.06-1.37-.27-2.1-.34-.88-.08-1.73.02-2.52-.05l-.3.12z"/><path class="prefix__st15" d="M1022.11 351.54l.82-.44v21.31l-.82.5z"/><g><path d="M1105.75 362.74v17.06h-3.33v-23.55h4.64l3.8 14.1v-14.1h3.3v23.55h-3.8l-4.61-17.06zm-13.45 9.58h3.57l-1.78-11.91-1.79 11.91zm8.44 7.47h-3.73l-.64-4.27h-4.54l-.64 4.27h-3.4l3.77-23.55h5.42l3.76 23.55zm-23.05-17.05v17.06h-3.33v-23.55h4.64l3.8 14.1v-14.1h3.3v23.55h-3.8l-4.61-17.06zm-16.92-.85c0-1.91.48-3.37 1.45-4.39.96-1.02 2.36-1.53 4.17-1.53 1.82 0 3.21.51 4.17 1.53s1.45 2.48 1.45 4.39v12.25c0 1.91-.48 3.37-1.45 4.39-.96 1.02-2.36 1.53-4.17 1.53-1.82 0-3.21-.51-4.17-1.53s-1.45-2.48-1.45-4.39v-12.25zm3.7 12.49c0 .85.17 1.45.52 1.8.35.35.81.52 1.4.52.58 0 1.05-.17 1.4-.52.35-.35.52-.95.52-1.8v-12.72c0-.85-.17-1.45-.52-1.8-.35-.35-.81-.52-1.4-.52-.58 0-1.05.17-1.4.52-.35.35-.52.95-.52 1.8v12.72zm-5.65-3.37v3.13c0 1.91-.47 3.37-1.4 4.39-.93 1.02-2.3 1.53-4.12 1.53-1.82 0-3.19-.51-4.12-1.53-.93-1.02-1.4-2.48-1.4-4.39V361.9c0-1.91.47-3.37 1.4-4.39.93-1.02 2.3-1.53 4.12-1.53 1.82 0 3.19.51 4.12 1.53.93 1.02 1.4 2.48 1.4 4.39v2.29h-3.5v-2.52c0-.85-.17-1.45-.52-1.8-.35-.35-.81-.52-1.4-.52-.58 0-1.05.17-1.4.52-.35.35-.52.95-.52 1.8v12.72c0 .85.17 1.45.52 1.78.35.34.81.5 1.4.5.58 0 1.05-.17 1.4-.5.35-.34.52-.93.52-1.78v-3.36h3.5z"/><path class="prefix__st16" d="M1047.26 351.26c-.6 0-1.14-.05-1.57-.22v-2.17c.43.11.87.16 1.25.16.6 0 .98-.16 1.25-.54.22-.33.38-.92.38-1.68v-11.62h2.61v11.62c0 1.41-.33 2.55-.98 3.31-.66.75-1.64 1.14-2.94 1.14zM1056.87 347.56h-2.55v-12.38h7.06v2.17h-4.51v3.21h4.24v2.12h-4.24zM1068.93 337.95c.33 0 .65 0 .87.05l-.22 2.44c-.22-.05-.43-.11-.76-.11-.81 0-1.47.22-1.9.65-.49.43-.71 1.03-.71 1.79v4.78h-2.61v-9.45h1.96l.38 1.58h.16c.27-.54.71-.92 1.19-1.25.5-.31 1.04-.48 1.64-.48zM1080.11 342.84c0 1.52-.38 2.77-1.19 3.64-.81.87-1.96 1.3-3.42 1.3-.92 0-1.68-.22-2.39-.6-.71-.43-1.25-.98-1.63-1.74-.38-.76-.54-1.63-.54-2.61 0-1.57.38-2.77 1.2-3.64.81-.87 1.95-1.25 3.42-1.25.92 0 1.74.16 2.44.54.65.43 1.2.98 1.58 1.74.37.77.54 1.64.53 2.62zm-6.51 0c0 .92.11 1.63.43 2.12.33.49.82.71 1.52.71.71 0 1.19-.22 1.47-.71.33-.49.49-1.19.49-2.12 0-.92-.16-1.63-.49-2.12-.27-.49-.81-.71-1.47-.71-.71 0-1.19.22-1.52.71-.32.44-.43 1.14-.43 2.12zM1090.54 338.12v1.3l-1.52.38c.27.43.43.92.43 1.41 0 1.03-.38 1.85-1.09 2.39-.71.6-1.68.87-2.93.87l-.49-.05h-.38c-.27.16-.38.43-.38.65 0 .38.49.54 1.41.54h1.63c1.03 0 1.85.27 2.39.71.54.43.81 1.09.81 1.95 0 1.09-.49 1.96-1.41 2.55-.92.65-2.23.92-3.96.92-1.3 0-2.33-.22-3.04-.65-.71-.49-1.03-1.14-1.03-1.96 0-.6.16-1.03.54-1.41.33-.43.87-.71 1.52-.87-.22-.11-.49-.27-.65-.54-.22-.27-.33-.54-.33-.82 0-.38.11-.65.33-.92.22-.22.49-.43.92-.71-.49-.22-.92-.54-1.19-1.03-.27-.43-.43-1.03-.43-1.68 0-1.03.33-1.79.98-2.39.71-.54 1.68-.82 2.93-.82.22 0 .54 0 .92.05s.6.05.71.11l3.31.02zm-7.33 10.8c0 .38.16.65.49.87.38.16.87.27 1.47.27.92 0 1.63-.11 2.17-.38.54-.22.82-.6.82-1.03 0-.38-.16-.6-.49-.76-.33-.11-.81-.16-1.47-.16h-1.3c-.49 0-.87.11-1.19.33-.34.21-.5.48-.5.86zm.92-7.71c0 .49.11.92.38 1.19.22.33.6.49 1.09.49.49 0 .81-.16 1.03-.49.22-.27.32-.71.32-1.19 0-1.14-.43-1.74-1.36-1.74-.97 0-1.46.6-1.46 1.74z"/><path d="M1180.99 367.85v-10.19h3.33c2.56 0 3.53 1.51 3.53 4.04v2.22c0 3.16-1.61 3.94-4.37 3.94l-2.49-.01zm-1.55-11.61v23.55h1.55v-10.53h2.46c2.69 0 4.41.87 4.41 4v3.7c0 1.28.1 2.12.5 2.83h1.61c-.5-.77-.57-1.85-.57-2.83v-3.67c0-2.56-.98-4.27-3.4-4.81 2.32-.54 3.4-2.12 3.4-4.88v-2.05c0-3.33-1.45-5.32-5.05-5.32l-4.91.01zm-10.26 10.9v-9.49h7.74v-1.41h-9.29v23.55h9.29v-1.41h-7.74v-9.82h6.43v-1.41l-6.43-.01zm-8.35 12.65v-22.14h4.78v-1.41h-11.14v1.41h4.81v22.14h1.55zm-17.36-20.99l7.37 20.99h1.72v-23.55h-1.41v19.88l-7.07-19.88h-2.02v23.55h1.41V358.8zm-11.67 8.34v-9.49h7.74v-1.41h-9.29v23.55h9.29v-1.41h-7.74v-9.82h6.43v-1.41l-6.43-.01zm-9.15-11.1c-3.6 0-5.08 2.56-5.08 5.96v12.04c0 3.4 1.48 5.96 5.08 5.96s5.08-2.56 5.08-5.96v-2.69h-1.48v2.79c0 2.52-.98 4.41-3.57 4.41s-3.57-1.88-3.57-4.41V361.9c0-2.52.98-4.44 3.57-4.44s3.57 1.92 3.57 4.44v2.05h1.48V362c0-3.4-1.48-5.96-5.08-5.96z" fill="#7aa8d4"/></g><path class="prefix__st15" d="M1032.76 372.35l-22.11 13.45-22.12-14.56v2.55l22.12 14.56 22.11-13.45z"/></g></g><g><path class="prefix__st4" d="M965 43.59l246.72.96c2.03.01 3.69 1.68 3.68 3.71l-.4 103.72c-.01 2.03-1.68 3.69-3.71 3.68l-246.72-.96c-2.03-.01-3.69-1.68-3.68-3.71l.4-103.72a3.702 3.702 0 0 1 3.71-3.68z"/><path class="prefix__st7" d="M1042.27 142.84h96.37v24h-96.37z"/><path class="prefix__st5" d="M1080.37 174.61l-20.88-6.49-.09-27.74 20.88 6.49z"/><path class="prefix__st8" d="M1080.08 174.6l20.84-6.63-.1-27.74-20.83 6.63z"/><linearGradient id="prefix__SVGID_10_" gradientUnits="userSpaceOnUse" x1="1071.958" y1="3097.543" x2="1113.952" y2="3097.543" gradientTransform="matrix(1 -.00331 .00243 .7347 -20.537 -2130.66)"><stop offset="0" stop-color="#add3e4"/><stop offset="1" stop-color="#add3e4"/></linearGradient><path fill="url(#prefix__SVGID_10_)" d="M1058.94 140.69l21.17 6.49 20.83-6.63-20.87-4.95z"/><g><path class="prefix__st5" d="M1105.85 184.05l-20.82-6.66.14-27.75 20.82 6.67z"/><path class="prefix__st8" d="M1105.57 184.06l20.88-6.45.14-27.75-20.88 6.45z"/><linearGradient id="prefix__SVGID_11_" gradientUnits="userSpaceOnUse" x1="1076.95" y1="3022.037" x2="1118.945" y2="3022.037" gradientTransform="matrix(1 .00505 -.00371 .7347 19.33 -2074.89)"><stop offset="0" stop-color="#add3e4"/><stop offset="1" stop-color="#add3e4"/></linearGradient><path fill="url(#prefix__SVGID_11_)" d="M1085.06 149.96l21.1 6.67 20.89-6.46-20.83-5.12z"/></g><g><path class="prefix__st5" d="M1064.95 187.94l-15.6-4.97.25-20.08 15.43 4.27z"/><path class="prefix__st8" d="M1064.73 187.93l15.64-4.85.08-20.77-15.64 4.84z"/><linearGradient id="prefix__SVGID_12_" gradientUnits="userSpaceOnUse" x1="1062.615" y1="3110.984" x2="1093.896" y2="3110.984" gradientTransform="matrix(1 .004 -.00293 .7347 -4.231 -2126.78)"><stop offset="0" stop-color="#add3e4"/><stop offset="1" stop-color="#add3e4"/></linearGradient><path fill="url(#prefix__SVGID_12_)" d="M1049.25 163.12l15.65 4.28 15.64-4.85-15.61-3.82z"/></g><g><path class="prefix__st5" d="M1095.75 152.85l-12.17-3.88.06-16.22 12.18 3.89z"/><path class="prefix__st8" d="M1095.58 152.85l12.21-3.79.06-16.22-12.2 3.79z"/><linearGradient id="prefix__SVGID_13_" gradientUnits="userSpaceOnUse" x1="1096.613" y1="3070.489" x2="1121.16" y2="3070.489" gradientTransform="matrix(1 .004 -.00293 .7347 -4.231 -2126.78)"><stop offset="0" stop-color="#add3e4"/><stop offset="1" stop-color="#add3e4"/></linearGradient><path fill="url(#prefix__SVGID_13_)" d="M1083.37 132.93l12.34 3.89 12.21-3.79-12.18-2.98z"/></g><g><path class="prefix__st22" d="M1062.6 119.5l-3.96-.02-.65-4.53-4.79-.02-.69 4.52-3.59-.01 4.09-24.87 5.73.02 3.86 24.91zm-8.89-7.92l3.76.01-1.83-12.58-1.93 12.57zM1072.49 119.53c-.2-.64-.36-1.04-.36-3.05l.02-3.92c.01-2.31-.76-3.15-2.54-3.16l-1.34-.01-.04 10.13-3.92-.02.1-24.85 5.9.02c4.06.02 5.79 1.9 5.78 5.76l-.01 1.94c-.01 2.55-.82 4.22-2.57 5.05 1.94.81 2.57 2.73 2.56 5.31l-.01 3.82c0 1.21.02 2.11.42 3.02l-3.99-.02v-.02zm-4.18-21.31l-.03 7.65 1.54.01c1.44.01 2.35-.63 2.36-2.61l.01-2.45c.01-1.78-.59-2.55-1.97-2.56l-1.91-.01v-.03zM1077.58 94.71l12.08.04-.02 3.56-4.09-.02-.08 21.29-3.89-.01.08-21.29-4.09-.02z"/><path transform="matrix(.0039 -1 1 .0039 981.773 1199.992)" class="prefix__st22" d="M1080.8 105.25h24.85v3.89h-24.85z"/><path class="prefix__st22" d="M1101.38 105.83l5.07.02-.02 3.56-5.06-.02-.04 10.26-3.93-.02.1-24.85 10.36.04-.01 3.56-6.44-.03zM1121.15 119.72l-3.96-.02-.65-4.53-4.8-.02-.69 4.52-3.59-.01 4.09-24.87 5.73.02 3.87 24.91zm-8.89-7.91l3.76.01-1.83-12.58-1.93 12.57zM1134.06 110.52l-.01 3.32c-.02 3.99-2 6.26-5.86 6.25-3.82-.01-5.83-2.3-5.81-6.29l.05-12.94c.02-3.99 2-6.26 5.86-6.25 3.82.01 5.83 2.3 5.81 6.29l-.01 2.41-3.69-.01.01-2.65c.01-1.78-.76-2.45-2-2.46-1.24 0-2.01.66-2.02 2.44l-.05 13.45c-.01 1.78.76 2.42 2 2.42s2.01-.63 2.02-2.41l.01-3.55 3.69.01v-.03zM1135.46 94.93l12.07.05-.01 3.55-4.09-.01-.09 21.29-3.89-.01.09-21.3-4.09-.01zM1148.92 100.95c.02-3.99 2.14-6.26 5.96-6.25 3.82.01 5.93 2.3 5.91 6.29l-.05 12.94c-.02 3.99-2.14 6.26-5.96 6.25-3.82-.01-5.93-2.3-5.91-6.29l.05-12.94zm3.87 13.2c-.01 1.78.76 2.45 2 2.46 1.24 0 2.01-.66 2.02-2.44l.05-13.45c.01-1.78-.76-2.45-2-2.46-1.24 0-2.01.66-2.02 2.44l-.05 13.45zM1171.01 119.92c-.2-.64-.36-1.04-.36-3.05l.02-3.92c.01-2.31-.76-3.15-2.54-3.16l-1.34-.01-.04 10.13-3.92-.02.1-24.85 5.9.02c4.06.02 5.79 1.9 5.78 5.76l-.01 1.94c-.01 2.55-.82 4.22-2.57 5.05 1.94.81 2.57 2.73 2.56 5.31l-.01 3.82c0 1.21.02 2.11.42 3.02l-3.99-.02v-.02zm-4.18-21.31l-.03 7.65 1.54.01c1.44.01 2.35-.63 2.36-2.61l.01-2.45c.01-1.78-.59-2.55-1.97-2.56l-1.91-.01v-.03zM1180.43 111.74l-4.9-16.65 4.09.01 2.94 11.35 3.03-11.32 3.76.01-5.03 16.61-.03 8.22-3.89-.02z"/><path transform="matrix(.0039 -1 1 .0039 887.985 1127.387)" class="prefix__st23" d="M1008.16 95.43h3.45v45.07h-3.45z"/><path class="prefix__st23" d="M1049.23 89.43c-.6 0-1.14-.07-1.58-.21l.01-2.21c.47.1.87.17 1.24.17.57 0 1.01-.16 1.24-.53.27-.37.37-.94.38-1.71l.05-11.77 2.68.01-.05 11.77c-.01 1.48-.35 2.58-1.02 3.35-.66.77-1.64 1.14-2.95 1.13M1059.01 85.78l-2.62-.01.05-12.57 7.21.02-.01 2.18-4.59-.02-.01 3.26 4.25.01v2.18l-4.26-.01zM1071.25 76.04c.37 0 .64.04.87.07l-.21 2.45c-.2-.07-.47-.1-.77-.1-.84 0-1.48.2-1.95.63s-.71 1.04-.71 1.81l-.02 4.9-2.61-.01.04-9.59 1.98.01.4 1.61h.13c.3-.54.71-.97 1.21-1.3.5-.32 1.04-.49 1.64-.48M1082.6 81.04c-.01 1.58-.41 2.78-1.26 3.68-.84.87-1.98 1.3-3.46 1.29-.94 0-1.74-.21-2.45-.61-.7-.4-1.24-.98-1.6-1.75-.37-.77-.56-1.65-.56-2.65.01-1.58.41-2.78 1.25-3.65.81-.87 1.98-1.3 3.46-1.29.94 0 1.74.21 2.45.61.7.4 1.24.98 1.6 1.75.38.75.57 1.62.57 2.62m-6.64-.02c0 .94.16 1.68.46 2.15.3.5.8.74 1.54.74.7 0 1.21-.23 1.51-.73.3-.47.47-1.2.48-2.18 0-.94-.16-1.68-.46-2.15-.3-.47-.8-.71-1.51-.71-.7 0-1.21.23-1.51.7-.37.5-.51 1.21-.51 2.18M1093.15 76.29l-.01 1.34-1.51.4c.27.44.4.91.4 1.44 0 1.04-.38 1.84-1.08 2.41-.71.57-1.71.87-2.99.86l-.47-.04-.4-.04c-.27.2-.4.43-.41.7 0 .37.47.57 1.44.58l1.64.01c1.04 0 1.84.24 2.41.68.53.44.83 1.11.83 2.02 0 1.14-.48 2.01-1.42 2.61-.94.6-2.28.93-4.03.92-1.34-.01-2.38-.24-3.08-.72-.7-.47-1.07-1.11-1.07-1.98 0-.57.17-1.07.54-1.44.37-.4.91-.67 1.58-.83-.27-.1-.5-.3-.7-.57-.2-.27-.3-.54-.3-.84 0-.37.1-.67.3-.9.2-.23.51-.47.91-.7-.5-.24-.9-.57-1.2-1.04-.3-.47-.43-1.04-.43-1.71 0-1.04.34-1.84 1.05-2.44.67-.57 1.65-.87 2.92-.86.27 0 .6.04.97.07.37.03.6.1.7.1l3.39.01.02-.04zm-7.46 10.94c0 .37.17.64.53.84.34.2.84.3 1.44.31.94 0 1.68-.13 2.21-.39.54-.27.81-.6.81-1.07 0-.37-.16-.6-.47-.74-.3-.14-.8-.2-1.47-.21l-1.37-.01c-.47 0-.87.1-1.21.33-.3.27-.46.57-.47.94m.97-7.81c0 .54.13.94.36 1.24.23.3.6.47 1.07.47.5 0 .84-.16 1.07-.47.24-.3.34-.7.34-1.24 0-1.17-.46-1.75-1.44-1.75-.89 0-1.39.61-1.4 1.75M1023.26 76.75c0-.97.81-1.77 1.78-1.77s1.77.81 1.77 1.78l-.01 2.31 2.31.01c.97 0 1.77.81 1.77 1.78s-.81 1.77-1.78 1.77l-2.31-.01-.01 2.31c0 .97-.81 1.77-1.78 1.77s-1.77-.81-1.77-1.78l.01-2.31-2.31-.01c-.97 0-1.77-.81-1.77-1.78s.81-1.77 1.78-1.77l2.31.01.01-2.31zm-9.66 8.72c0-.97.81-1.77 1.78-1.77s1.77.81 1.77 1.78l-.01 2.31 2.31.01c.97 0 1.77.81 1.77 1.78s-.81 1.77-1.78 1.77l-2.31-.01-.01 2.31c0 .97-.81 1.77-1.78 1.77s-1.77-.81-1.77-1.78l.01-2.31-2.31-.01c-.97 0-1.77-.81-1.77-1.78s.81-1.77 1.78-1.77l2.31.01.01-2.31zm4.39-15.11c.87.44 1.24 1.51.8 2.38-.44.87-1.51 1.23-2.38.8a16.75 16.75 0 0 0-3.31-1.19c-1.14-.27-2.31-.41-3.49-.42-4.26-.02-8.15 1.71-10.95 4.48-2.83 2.81-4.59 6.65-4.6 10.95-.02 4.29 1.71 8.15 4.48 10.95 2.77 2.79 6.66 4.55 10.91 4.57 1.64.01 3.25-.26 4.76-.72 1.54-.5 2.99-1.23 4.3-2.16.81-.57 1.91-.4 2.48.41.57.81.39 1.91-.41 2.48a18.505 18.505 0 0 1-5.31 2.66c-1.88.6-3.86.92-5.84.92a19.003 19.003 0 0 1-13.43-5.62c-3.41-3.5-5.53-8.27-5.51-13.5.02-5.23 2.19-10.02 5.62-13.43a18.97 18.97 0 0 1 13.47-5.51c1.44.01 2.88.18 4.29.52 1.44.28 2.81.79 4.12 1.43"/></g></g><g><path class="prefix__st24" d="M197.09 328.03s-4.35-27.84-41.79-30.46l7.13-7.45M155.3 297.56l6.57 8.5M113.93 366.57s10.39 26.2 47.48 20.49l-5.31 8.84M161.41 387.06l-8.29-6.83"/><g><path class="prefix__st24" d="M153.48 318.25l-7.57-1c-.63-2.58-1.65-5.01-2.99-7.22l4.64-6.05c.52-.68.45-1.63-.15-2.23l-5.06-5.07c-.61-.6-1.56-.66-2.23-.14l-6.05 4.64a25.97 25.97 0 0 0-7.22-2.99l-1-7.57c-.11-.85-.83-1.48-1.68-1.48h-7.16c-.85 0-1.57.62-1.68 1.48l-1 7.57c-2.58.63-5.01 1.65-7.23 2.99l-6.05-4.64c-.68-.52-1.63-.46-2.23.14l-5.07 5.07c-.61.6-.66 1.55-.15 2.23l4.64 6.05a26.222 26.222 0 0 0-2.99 7.22l-7.57 1c-.85.11-1.47.83-1.47 1.69v7.15c0 .85.62 1.57 1.47 1.69l7.57.99c.64 2.59 1.65 5.02 2.99 7.23l-4.64 6.06c-.52.67-.46 1.63.15 2.23l5.07 5.06c.6.61 1.55.66 2.23.15l6.05-4.65c2.22 1.34 4.65 2.35 7.23 2.99l1 7.57c.11.84.83 1.47 1.68 1.47h7.16c.85 0 1.57-.63 1.68-1.47l1-7.57c2.58-.63 5.01-1.65 7.22-2.99l6.05 4.65c.68.51 1.63.45 2.23-.15l5.06-5.06c.6-.6.66-1.56.15-2.23l-4.64-6.06c1.34-2.21 2.35-4.64 2.99-7.23l7.57-.99c.84-.11 1.48-.83 1.48-1.69v-7.15c0-.86-.64-1.58-1.48-1.69zm-32.89 23.71c-10.19 0-18.45-8.26-18.45-18.45s8.26-18.45 18.45-18.45 18.45 8.26 18.45 18.45-8.26 18.45-18.45 18.45z"/></g><path class="prefix__st24" d="M181.54 367.97c-5.04 0-9.14-4.09-9.14-9.14 0-5.04 4.09-9.14 9.14-9.14 5.04 0 9.14 4.09 9.14 9.14-.01 5.04-4.1 9.14-9.14 9.14zm24.19-4.1c.36-1.63.52-3.31.52-5.04 0-1.74-.19-3.43-.52-5.06l-7.79-.75c-.21-.58-.43-1.14-.71-1.7l4.98-6.03v-.02a24.748 24.748 0 0 0-7.15-7.12l-6.03 4.98c-.56-.28-1.12-.51-1.7-.71l-.75-7.79c-1.63-.36-3.31-.52-5.04-.52-1.72 0-3.43.19-5.06.52l-.75 7.79c-.58.21-1.14.43-1.69.71l-6.05-4.98a24.349 24.349 0 0 0-7.13 7.13l4.98 6.05c-.28.54-.51 1.1-.71 1.69l-7.79.75a24.67 24.67 0 0 0-.52 5.06c0 1.72.17 3.41.52 5.04l7.79.75c.19.58.43 1.14.71 1.7l-4.98 6.05c1.85 2.85 4.29 5.28 7.13 7.12l6.03-4.96c.56.26 1.12.51 1.7.71l.75 7.79c1.63.34 3.33.52 5.06.52 1.72 0 3.41-.17 5.04-.52l.75-7.79c.6-.21 1.16-.43 1.72-.71l6.03 4.98c2.85-1.85 5.28-4.29 7.13-7.13l-4.98-6.03c.28-.56.51-1.14.71-1.72l7.8-.76z"/></g></svg>