<svg width="23" height="23" viewBox="0 0 23 23" fill="none" xmlns="http://www.w3.org/2000/svg">
<path d="M10.842 16.4664C11.2143 16.8219 11.7867 16.8215 12.1586 16.4664L18.0039 10.5745C18.3657 10.21 18.3641 9.62052 18.0005 9.25806C17.6371 8.89559 17.0491 8.89732 16.6873 9.2615L12.4288 13.5541V0.930816C12.4288 0.416793 12.013 0 11.5003 0C10.9875 0 10.5718 0.416793 10.5718 0.930816V13.5541L6.31302 9.26166C5.95146 8.897 5.36344 8.89559 4.99985 9.25821C4.63626 9.62068 4.63469 10.2102 4.99641 10.5747L10.842 16.4664Z" fill="white"/>
<path d="M22.0715 15.2429C21.5588 15.2429 21.143 15.6597 21.143 16.1737V19.4723C21.143 20.3909 20.3976 21.1381 19.4811 21.1381H3.51907C2.6026 21.1381 1.85715 20.3908 1.85715 19.4723V16.1738C1.85715 15.6598 1.44139 15.243 0.928652 15.243C0.415754 15.2429 0 15.6598 0 16.1738V19.4725C0 21.4176 1.57852 23 3.51907 23H19.4811C21.4215 23 23.0002 21.4176 23.0002 19.4725V16.1738C23 15.6598 22.5842 15.2429 22.0715 15.2429Z" fill="white"/>
</svg>
