<svg width="401" height="429" viewBox="0 0 401 429" fill="none" xmlns="http://www.w3.org/2000/svg">
<g clip-path="url(#clip0)">
<path d="M295.266 477.07L296.4 409.647L356.491 374.953L355.357 442.376L295.266 477.07Z" fill="#7BA7D3"/>
<path d="M414.314 475.106L355.357 442.376L356.491 374.953L415.448 407.683L414.314 475.106Z" fill="#6699CB"/>
<path d="M176.217 479.035L177.351 411.612L237.442 376.918L236.308 444.341L176.217 479.035Z" fill="#7BA7D3"/>
<path d="M298.668 274.801L357.625 307.531L417.716 272.837L358.759 240.108L298.668 274.801Z" fill="#6699CB"/>
<path d="M416.583 340.26L475.54 372.989L474.406 440.412L414.314 475.106L355.357 442.376L356.491 374.953L416.583 340.26Z" stroke="#2F6799" stroke-miterlimit="10"/>
<path d="M475.54 372.989L534.497 405.718L533.363 473.141L473.271 507.835L414.314 475.105L415.448 407.682L475.54 372.989Z" stroke="#4C6B89" stroke-miterlimit="10"/>
<path d="M474.405 440.412L533.362 473.141L532.228 540.564L472.136 575.258L413.179 542.528L414.314 475.105L474.405 440.412Z" stroke="#2F6799" stroke-miterlimit="10"/>
<path d="M355.357 442.376L414.314 475.106L413.18 542.529L353.089 577.222L294.131 544.493L295.266 477.07L355.357 442.376Z" stroke="#2F6799" stroke-miterlimit="10"/>
<path d="M414.314 475.106L354.222 509.799L295.265 477.07L296.4 409.647L356.491 374.953" stroke="#2F6799" stroke-miterlimit="10"/>
<path d="M297.534 342.224L356.491 374.953L355.357 442.376L295.265 477.07L236.308 444.341L237.442 376.918L297.534 342.224Z" stroke="#2F6799" stroke-miterlimit="10"/>
<path d="M118.395 378.883L117.26 446.305L176.218 479.035M178.486 344.189L237.443 376.918L178.486 344.189Z" stroke="#2F6799" stroke-miterlimit="10"/>
<path d="M237.443 376.918L177.351 411.612L118.394 378.882L119.528 311.459L179.62 276.766L238.577 309.495" stroke="#2F6799" stroke-miterlimit="10"/>
<path d="M356.491 374.953L357.625 307.53L417.717 272.837" stroke="#2F6799" stroke-miterlimit="10"/>
<path d="M358.759 240.107L417.716 272.837L416.582 340.26L356.491 374.953L297.534 342.224L298.668 274.801L358.759 240.107Z" stroke="#4C6B89" stroke-miterlimit="10"/>
</g>
<defs>
<clipPath id="clip0">
<rect x="289.5" y="814.685" width="579" height="625.266" transform="rotate(-120 289.5 814.685)" fill="white"/>
</clipPath>
</defs>
</svg>
