<svg width="337" height="336" viewBox="0 0 337 336" fill="none" xmlns="http://www.w3.org/2000/svg">
<ellipse cx="175.5" cy="311.5" rx="161.5" ry="24.5" fill="#2B77AA" fill-opacity="0.04"/>
<g clip-path="url(#clip0_3447_1677)">
<path d="M120.179 98.8545C122.983 96.1993 125.945 94.1597 129.047 91.909C130.726 90.6957 132.15 89.4737 133.811 88.489C133.837 86.6955 133.89 85.0074 133.231 83.17C131.991 79.7236 132.835 77.64 129.205 75.0816C125.576 72.5319 120.61 71.2483 115.503 70.3868C107.752 69.068 89.6114 64.9183 78.6516 70.3164C77.1663 71.0461 76.6566 73.6573 76.6302 75.6442C76.6302 75.7321 75.514 88.6121 77.0608 91.9265C79.6711 97.5093 81.4201 100.068 85.8937 103.91C90.8418 108.156 98.7255 110.662 105.027 112.112C107.295 112.631 115.486 110.609 117.692 110.504C118.615 103.769 115.477 103.303 120.179 98.8457V98.8545Z" fill="#FAFAFA"/>
<g style="mix-blend-mode:multiply">
<path d="M121.076 97.9842C123.844 95.0038 127.193 92.463 130.858 90.5903C131.64 89.9925 132.422 89.4034 133.213 88.8232C132.73 87.267 132.238 85.9307 131.816 85.0427C128.327 86.7483 119.406 90.0101 114.018 91.8036C102.997 95.4785 96.3615 96.4456 90.9387 97.3951C89.4446 97.6589 88.5657 97.2369 87.5726 97.2633C86.2982 97.2984 85.0502 96.8413 84.2592 96.7709C83.0727 96.6654 81.7719 96.0412 81.183 95.795C79.5044 95.0829 79.5483 95.1972 78.1333 95.8126C82.3432 99.4436 81.9213 100.015 88.7503 102.916C99.1388 107.33 102.733 104.174 109.554 106.732C110.881 107.224 111.733 108.007 112.445 108.851C114.748 104.842 118.202 101.079 121.076 97.993V97.9842Z" fill="#EEEEEE"/>
</g>
<path d="M88.9172 99.549C94.4015 100.912 99.0332 101.193 103.893 100.973C110.933 100.648 114.95 99.171 119.292 97.7994C119.775 95.2498 120.768 92.1815 120.698 88.5329C120.628 84.7525 119.661 83.293 119.898 77.0949C119.916 76.5146 120.214 75.5387 120.311 74.976C120.522 73.7628 120.478 73.7452 120.267 72.6902C112.823 77.0949 114.335 76.9718 110.626 79.7676C109 80.9896 107.523 82.449 105.581 83.2403C103.639 84.0316 101.978 85.2712 99.7451 84.4536C92.7228 81.8688 95.1749 71.178 93.4347 56.8562C93.3117 55.8452 92.5558 51.8713 91.8615 49.858C90.2092 45.0401 88.4778 45.805 86.8343 44.7676C84.8831 47.5985 82.6947 49.7701 80.7787 52.7153C78.8627 55.6606 76.8676 58.7553 75.5229 62.184C72.7017 69.3933 71.4713 73.7716 73.3257 84.2601C73.563 85.5789 74.521 87.9703 75.8569 89.544C76.7182 90.555 77.8344 92.6914 79.2055 93.9223C80.3656 94.9597 81.9476 96.5158 83.556 97.3862C85.1644 98.2478 87.0452 99.1094 88.9172 99.5754V99.549Z" fill="#FAFAFA"/>
<path d="M203.604 70.879C205.555 72.6989 207.831 75.6529 212.006 79.9521C216.919 85.0074 218.096 86.5987 222.535 92.155C225.207 91.3638 225.602 91.7506 231.684 89.8164C234.136 89.034 238.856 87.4954 241.282 86.2206C249.227 82.0357 253.375 76.198 255.379 68.5492C256.179 65.4897 253.691 58.2628 253.357 55.6341C244.437 54.8253 242.784 52.6889 227.026 58.2892C215.082 62.5356 210.828 65.9556 203.612 70.879H203.604Z" fill="#FAFAFA"/>
<path d="M225.602 81.4819C226.279 76.7871 226.191 74.5891 226.551 73.5957C229.118 66.6062 229.592 66.3425 234.373 60.2849C239.585 53.6823 236.07 58.8079 243.865 47.7919C252.892 42.3322 252.769 42.1915 253.823 42.2443C254.192 42.2619 254.535 43.0971 254.579 43.5718C254.623 44.0466 254.975 44.618 255.185 45.1192C255.976 47.0709 256.196 47.7039 256.855 48.0205C257.145 50.658 258.288 56.0034 257.488 60.8388C257.137 62.9488 257.251 66.6414 254.228 71.2043C252.083 74.4485 248.849 77.4465 245.922 79.1081C243.69 80.3741 239.339 81.6049 237.001 81.939C233.257 82.4753 231.113 81.8863 225.593 81.4819H225.602Z" fill="#FAFAFA"/>
<path d="M216.216 65.5953C217.235 66.2283 217.446 66.7294 217.895 67.2394C218.334 67.7493 219.028 68.4262 219.6 68.7955C220.03 69.068 221.577 69.2263 222.025 69.4197C223.326 69.9736 224.917 71.0989 228.424 71.3363C231.025 71.5121 233.266 71.1165 235.683 70.3428C239.128 69.2351 242.697 67.2657 244.894 65.947C247.513 64.3732 250.853 60.4082 252.154 57.5772C253.463 54.7375 255.783 52.9 256.636 49.9548C257.488 47.0007 256.662 43.6247 257.137 40.9168C257.612 38.2178 255.986 34.5956 256.056 32.8196C256.179 29.7162 252.76 25.3203 252.092 24.4323C249.675 21.2497 245.747 18.5067 243.998 17.0736C241.106 14.7086 238.258 11.5436 236.14 10.849C231.095 9.18741 237.054 13.724 238.223 15.5878C238.627 16.2296 240.974 19.254 241.396 21.2761C241.818 23.2982 243.294 26.5511 242.978 29.1799C242.152 36.1605 240.983 38.9299 236.914 45.3743C235.086 48.2755 232.73 50.8867 230.849 53.0934C229.171 55.0628 218.677 63.5556 216.216 65.5953Z" fill="#FAFAFA"/>
<g style="mix-blend-mode:multiply">
<path d="M217.007 64.215C215.284 63.6699 210.644 62.2896 208.517 61.4632C204.166 59.7664 204.588 59.7928 201.055 57.5948C199.209 57.5948 191.721 57.9201 185.797 57.0849C178.441 56.0475 174.143 53.9814 170.689 53.2517C153.129 59.3004 143.145 66.9317 132.941 70.5627C128.45 72.1628 124.583 71.9957 120.065 72.9013C119.995 72.9628 114.142 78.3961 114.08 78.4665C112.507 80.1017 111.224 81.0776 110.274 82.8975C109.334 84.7174 109.624 86.6076 109.167 88.533C113.227 87.1967 113.895 86.8362 117.314 84.4097C120.276 82.3085 122.711 79.6709 124.952 77.8335C147.952 75.3806 152.189 69.8945 170.751 60.0126C174.038 61.5599 177.079 63.8809 184.523 64.3909C191.308 64.8568 196.265 62.9314 198.919 62.2633C200.027 63.3446 202.505 66.369 205.985 68.0922C210.239 70.2022 212.234 69.4813 214.634 69.2175C215.557 70.0528 217.112 72.0924 219.775 72.8661C222.456 73.6398 222.799 73.7541 226.455 73.6662C223.177 70.7825 222.131 70.7121 220.32 69.4549C216.91 67.0987 217.068 66.3954 217.016 64.2238L217.007 64.215Z" fill="#EEEEEE"/>
</g>
<path d="M201.169 57.6474C202.777 58.7903 204.148 60.3025 205.906 61.2168C207.998 62.3158 209.501 63.4763 211.988 63.7928C217.639 64.4961 221.779 62.7026 226.709 59.6079C233.705 55.2121 242.6 48.5127 245.72 40.8727C249.209 32.3535 247.882 27.307 244.375 20.2121C242.512 16.4492 239.62 13.249 237.036 10.6467C233.591 7.16512 229.935 5.08147 226.173 2.76924C224.046 1.45927 222.253 1.55598 220.197 1.13397C218.14 0.711969 216.303 1.09001 214.458 1.15156C211.68 1.23947 207.831 2.26811 204.913 1.97798C209.633 5.09026 213.702 5.4771 218.211 9.80264C220.601 12.0973 223.44 15.7019 223.414 20.4319C223.396 23.3595 223.739 27.7906 222.218 31.5447C220.97 34.6042 218.536 41.3562 214.475 46.2005C207.857 54.0867 205.651 54.8428 201.16 57.6474H201.169Z" fill="#FAFAFA"/>
<g style="mix-blend-mode:multiply">
<path d="M211.47 3.41113C213.763 3.77159 218.281 3.81555 223.255 6.98059C227.386 9.60932 229.311 12.3523 231.297 16.2295C243.408 39.9409 224.934 38.3056 215.319 59.1069C214.941 59.9157 214.976 61.762 214.968 61.9203C214.95 62.3774 215.152 62.8346 215.126 63.2654C215.099 63.6962 216.066 63.7665 215.679 64.2061C215.293 64.6457 214.062 64.1973 213.342 64.0567C213.087 64.0039 209.756 63.8457 207.919 62.7731C205.405 61.3136 203.032 57.7442 201.608 56.4518C206.662 52.4867 211.61 49.6997 215.943 44.6269C219.204 40.8113 222.623 36.2835 223.994 31.0524C225.365 25.8213 225.628 20.8276 223.22 15.6493C220.812 10.4709 215.75 7.09488 211.47 3.42872V3.41113Z" fill="#EEEEEE"/>
</g>
<path d="M117.701 74.9848C119.529 73.2616 118.975 74.0617 121.41 72.699C121.858 72.4528 122.28 72.1275 122.798 71.9165C131.684 71.4505 135.85 71.0813 146.107 65.5161C153.12 61.7181 158.068 54.7814 172.561 53.7C172.667 53.7 181.816 57.6387 183.336 57.8409C188.135 58.4827 195.676 57.6563 197.583 57.076C199.165 56.6012 200.563 56.9705 202.162 55.81C207.225 52.1614 212.19 49.2689 216.304 43.9675C219.468 39.8793 224.556 34.235 225.198 28.4588C225.866 22.3574 226.938 18.1022 222.421 12.4139C217.595 6.34758 216.04 3.96502 206.724 2.05721C206.68 2.04842 198.717 1.40662 189.392 0.404359C185.788 0.0175215 167.367 -1.22212 145.509 3.89469C141.062 4.9409 130.858 8.16748 121.884 12.0271C117.455 13.9349 113.676 16.2647 110.503 18.4187C106.504 21.1353 103.999 24.4058 101.195 27.2456C98.7344 29.7337 96.9855 32.2657 95.2277 34.3757C92.9777 37.0748 90.9563 39.0705 89.3391 41.5498C87.1419 44.9258 85.4017 47.0446 84.2855 50.8427C83.1693 54.6407 83.6615 58.4211 84.0921 62.5269C84.4437 65.8853 87.1243 74.1232 88.9524 77.2883C91.7561 82.1237 94.4806 84.6118 99.9473 85.2975C101.705 85.5173 103.41 84.9986 105.08 84.4184C110.09 82.6864 114.748 77.7454 117.692 74.9672L117.701 74.9848Z" fill="#FAFAFA"/>
<path d="M227.738 74.7387C227.738 74.7387 227.747 74.6771 227.755 74.6508C227.755 74.6508 227.808 74.4485 227.808 74.4397C227.808 74.4134 227.808 74.343 227.834 74.3518C227.887 74.3694 227.799 74.3782 227.755 74.6508C227.755 74.6771 227.755 74.7475 227.729 74.7387H227.738Z" fill="#7A7A7A"/>
<g style="mix-blend-mode:multiply">
<path d="M215.82 5.52124C219.494 8.20273 223.519 10.2072 226.103 14.1723C228.353 17.6099 229.425 21.4255 229.61 25.5752C229.777 29.426 228.546 33.2592 226.982 36.6968C225.286 40.4069 222.245 43.6599 219.845 46.5963C218.562 48.17 216.752 49.3833 215.697 50.3856C214.308 51.7131 212.392 53.0758 211.513 53.8759C205.739 59.1334 204.271 57.5069 200.826 57.841C203.533 56.065 208.648 53.4363 212.7 49.0932C213.834 47.8711 215.627 46.0776 216.857 44.4072C217.885 43.0005 219.309 41.0487 220.188 39.3783C221.559 36.7847 223.378 33.9714 224.266 31.2635C225.374 27.9138 226.437 25.2236 226.121 21.6981C225.795 18.1726 224.433 15.5263 222.412 12.4228C220.838 10.0226 217.877 7.69281 215.829 5.51245L215.82 5.52124Z" fill="#EEEEEE"/>
</g>
<g style="mix-blend-mode:multiply">
<path d="M132.176 41.462C130.497 42.1213 124.908 45.9194 124.319 47.3261C123.554 49.1372 123.809 50.2801 124.714 51.9241C125.453 53.2517 126.753 53.7528 128.159 54.4562C129.258 55.01 130.972 54.4825 132.071 55.3266C134.101 56.8827 134.953 57.8498 133.828 60.6456C133.072 62.5006 131.455 64.7074 129.698 66.2547C124.117 71.1957 122.596 70.7209 118.747 71.7496C123.457 71.9606 127.263 72.8749 132.071 71.5737C139.805 69.4725 151.705 61.5599 157.066 58.9048C161.601 56.6629 166.312 54.9133 170.988 53.0055C166.119 50.4208 151.512 41.1894 138.39 41.2246C134.285 41.2334 135.744 40.0553 132.176 41.462Z" fill="#EEEEEE"/>
</g>
<g style="mix-blend-mode:multiply">
<path d="M170.962 53.0319C160.389 46.1743 152.813 43.0796 140.666 41.0136C138.961 40.7235 138.188 40.9784 136.966 41.2773C135.393 41.6554 132.783 40.1432 132.176 41.4708C131.658 42.5873 134.215 47.2557 137.582 48.3547C147.047 51.4406 151.846 49.269 160.028 52.689C160.793 53.0055 160.512 53.4012 160.855 53.8408C161.197 54.2803 161.092 54.6848 161.215 55.0892C161.487 55.9859 160.705 57.3663 160.564 57.7267C163.289 56.364 168.765 54.1397 170.953 53.0407L170.962 53.0319Z" fill="#EEEEEE"/>
</g>
<g style="mix-blend-mode:multiply">
<path d="M100.439 54.9835C100.097 53.9373 100.141 53.0318 99.244 52.4691C98.3476 51.9064 97.9521 52.39 97.4511 53.2867C97.1171 53.8846 96.8095 54.7374 96.7304 55.6078C96.6513 56.4781 96.4931 57.454 96.581 58.4827C96.9414 62.395 97.5126 64.6808 99.1913 68.3558C99.8505 69.7976 100.993 71.1516 101.793 72.2593C102.593 73.3671 104.078 74.2902 104.957 74.6771C106.398 75.3101 108.051 76.4706 108.868 77.0508C111.294 78.7652 110.916 79.5653 113.921 78.4224C114.704 78.1234 116.128 76.3035 117.156 75.398C117.771 74.8529 119.292 73.4902 120.074 72.8748C118.035 71.9868 115.899 71.5912 113.842 70.6417C111.786 69.6921 109.764 68.8042 107.91 67.3447C102.215 62.8346 101.837 59.2212 100.431 54.9923L100.439 54.9835Z" fill="#EEEEEE"/>
</g>
<g style="mix-blend-mode:multiply">
<path d="M109.132 82.915C107.049 83.7503 105.432 84.9284 103.129 85.3679C101.204 85.7372 99.2354 86.0185 97.1788 85.3943C91.9934 83.8294 90.4641 81.2446 88.4339 76.585C88.0559 75.7234 86.9222 71.7056 86.8431 71.477C85.5687 67.6438 86.3245 67.0723 86.3157 64.7425C86.3157 63.9776 86.4827 63.327 85.9378 62.7028C85.3929 62.0786 85.0413 61.9028 84.18 62.4654C83.723 62.7643 83.0902 63.1776 82.6683 63.8985C82.3959 64.3644 81.7455 64.6897 81.5346 65.5425C80.7084 68.901 79.6274 72.1539 79.8032 75.8553C79.9526 78.9148 80.5678 82.3788 81.5609 85.3855C84.0922 93.0344 86.3421 96.2697 93.8742 99.9271C94.8498 100.402 96.5812 100.288 97.9698 100.367C98.9542 100.428 100.598 100.437 101.775 100.384C106.003 100.182 105.572 100.446 110.046 98.9072C109.975 91.8738 109.22 85.8867 109.132 82.915Z" fill="#EEEEEE"/>
</g>
<g style="mix-blend-mode:multiply">
<path d="M108.956 82.9502C106.926 83.9085 104.527 85.2009 102.338 85.3943C96.3968 85.9218 91.9672 83.003 88.9526 77.9389C87.1333 74.8882 86.9487 71.732 85.894 68.479C86.1401 72.2682 85.6655 76.0399 86.8696 79.7149C89.0844 86.4933 93.7074 91.1793 100.818 92.7267C103.779 93.3685 106.812 92.3398 109.765 91.909C109.782 90.0628 109.211 83.9173 108.956 82.9502Z" fill="#EEEEEE"/>
</g>
<g style="mix-blend-mode:multiply">
<path d="M159.193 20.2561C142.266 23.3156 120.135 29.4522 104.922 37.1626C97.249 41.0573 85.05 53.2955 80.2162 61.9466C76.5336 68.5492 76.7445 79.3542 78.3265 87.4778C79.2054 91.988 83.7405 95.1706 85.1028 96.6652C87.7482 99.5665 93.7071 101.448 102.777 100.991C105.722 100.841 110.054 98.8895 110.054 98.8895C110.054 98.8895 110.054 94.7838 110.23 90.6077C110.309 88.6119 109.325 85.359 109.167 83.1611C110.072 81.9654 120.162 72.8044 120.232 72.7428C132.176 71.9779 132.185 72.3648 145.579 65.0588C152.364 61.3575 159.624 55.3264 171.357 54.4824C175.154 54.2098 177.764 55.9945 181.218 56.4078C184.285 56.777 187.23 57.4452 190.227 57.5331C200.703 57.8408 201.811 55.7923 207.497 52.2932C206.056 51.0799 203.691 49.9458 203.12 45.8752C201.978 37.6286 211.733 36.0548 210.977 22.4804C210.802 19.4033 209.817 16.4756 208.367 14.2513C206.161 10.8577 204.227 9.84662 200.615 8.49269C199.763 8.17619 198.523 9.4422 197.653 9.99608C179.926 21.2056 175.655 17.2844 159.202 20.2561H159.193Z" fill="#EEEEEE"/>
</g>
<g style="mix-blend-mode:multiply">
<path d="M244.314 18.7175C245.861 20.3088 250.897 25.074 253.05 29.6017C255.3 34.3405 254.922 37.0747 253.235 42.086C251.679 46.7105 249.104 50.3239 246.52 53.7966C242.266 59.5025 239.981 60.4344 236.255 62.9664C234.971 63.8368 231.974 65.2611 232.88 68.2327C233.284 69.569 235.068 69.7537 234.655 70.3779C234.101 71.2043 232.677 71.2219 231.588 71.2571C231.078 71.2746 229.636 71.7142 228.907 71.723C225.356 71.7582 222.649 71.3538 219.283 68.1975C218.738 67.6876 217.227 66.7205 216.866 66.2106C216.33 65.4369 217.253 64.4347 216.682 63.7753C222.931 60.5575 228.204 59.4497 234.005 54.7198C237.177 52.135 240.957 48.3457 243.356 44.0202C249.482 32.9953 248.638 30.4633 244.323 18.7L244.314 18.7175Z" fill="#EEEEEE"/>
</g>
<g style="mix-blend-mode:multiply">
<path d="M248.418 26.4719C248.313 26.9291 248.462 28.1511 248.462 29.3996C248.462 32.5646 251.486 38.2177 237.749 51.4581C230.05 58.8783 222.693 61.4895 216.444 64.2237C216.717 64.3204 216.541 64.76 216.875 65.4897C217.183 66.1755 217.543 66.1052 217.402 66.3953C220.426 65.5952 224.407 64.9534 229.197 62.2192C229.294 62.1664 235.481 58.9223 237.555 57.2343C242.776 52.9703 245.562 50.113 248.489 43.7917C253.059 33.9273 249.992 31.8876 248.427 26.4631L248.418 26.4719Z" fill="#EEEEEE"/>
</g>
<g style="mix-blend-mode:multiply">
<path d="M248.163 63.4939C245.746 65.2786 246.01 68.1447 234.496 70.6855C229.645 71.7581 228.845 72.1538 225.866 72.0659C227.887 77.3409 227.263 80.673 226.666 87.8646C228.089 86.1414 228.415 86.3261 230.084 83.0995C230.515 82.2731 230.84 81.306 231.165 80.5323C231.605 79.4685 231.614 78.4662 232.203 77.5343C234.716 73.5253 244.032 76.1804 250.633 66.7117C252.487 64.0566 253.041 57.7177 253.489 56.3374C252.487 58.0606 251.301 61.1729 248.172 63.4851L248.163 63.4939Z" fill="#EEEEEE"/>
</g>
<g style="mix-blend-mode:multiply">
<path d="M246.414 73.2879C249.965 70.7999 251.652 68.8921 253.199 64.7687C254.518 61.2344 255.124 54.2186 255.335 53.0142C254.113 55.2297 252.461 57.876 250.967 59.8366C249.2 62.1576 248.523 63.617 246.115 65.1907C243.241 67.081 238.794 70.079 235.525 70.7559C231.552 71.5736 229.83 72.0483 225.857 72.0747C226.929 75.2045 227.518 74.8441 226.455 81.0686C226.332 81.7896 225.725 87.1525 225.91 90.2384C225.918 90.4143 226.173 90.4407 226.305 90.5198C226.806 90.8275 227.29 91.4517 227.421 91.2319C228.485 89.5439 227.764 88.7614 231.86 86.9855C235.331 85.4821 239.339 85.2711 246.115 80.3126C249.464 77.8684 250.255 76.3738 251.503 74.3869C250.51 75.354 248.418 76.831 247.495 77.5519C245.834 78.8531 243.32 79.9433 241.73 80.5851C238.065 80.084 240.016 78.5015 241.818 76.7167C242.863 75.6793 244.955 74.3078 246.414 73.2879Z" fill="#EEEEEE"/>
</g>
<g style="mix-blend-mode:multiply">
<path d="M115.75 115.242C115.75 115.436 115.75 115.629 115.759 115.814C117.147 116.359 118.8 116.877 120.645 117.37C119.063 116.552 117.429 115.849 115.75 115.242Z" fill="#EEEEEE"/>
</g>
<g style="mix-blend-mode:multiply">
<path d="M222.008 115.814C222.008 115.726 222.008 115.629 221.999 115.541C220.373 116.095 218.791 116.755 217.253 117.511C218.976 116.904 220.663 116.289 222.008 115.814Z" fill="#EEEEEE"/>
</g>
<g style="mix-blend-mode:multiply">
<path d="M118.905 115.084C120.839 115.726 122.737 116.491 124.574 117.379C125.523 117.836 126.428 118.337 127.325 118.856C148.647 122.865 185.49 124.052 209.492 119.77C211.25 118.671 213.078 117.695 214.968 116.86C216.963 115.972 219.028 115.242 221.129 114.662C221.401 114.583 221.683 114.521 221.955 114.451C221.568 104.094 220.461 80.0577 220.303 69.4372C220.303 69.191 218.132 66.6678 217.297 65.3842C216.471 64.127 216.559 63.7929 216.436 63.7314C208.069 59.4498 200.862 54.4649 191.466 52.5307C171.12 48.3458 154.377 50.658 135.859 57.5068C127.835 60.4784 120.654 65.4106 113.465 70.0614C113.597 80.8841 115.434 101.299 115.724 114.152C116.796 114.425 117.85 114.724 118.905 115.075V115.084Z" fill="#EEEEEE"/>
</g>
<path d="M111.593 113.299C111.593 113.299 111.637 113.299 111.654 113.308C114.115 113.712 116.541 114.301 118.905 115.084C120.839 115.726 122.737 116.491 124.574 117.379C128.371 119.207 131.719 121.59 134.725 124.421C144.41 125.783 156.46 126.592 169.52 126.592C182.581 126.592 193.707 125.845 203.191 124.579C203.481 124.315 203.744 124.043 204.043 123.788C205.678 122.372 207.418 121.089 209.237 119.928C211.065 118.768 212.981 117.739 214.968 116.869C216.963 115.981 219.028 115.251 221.129 114.671C222.315 114.345 223.519 114.073 224.723 113.853C224.723 113.783 226.701 113.519 226.885 113.493C227.035 113.466 227.184 113.449 227.334 113.431C227.237 106.732 226.868 89.2362 226.674 79.8202C226.894 78.6685 227.008 73.7099 226.481 73.5868C221.155 69.5514 216.304 64.9094 210.362 61.7092C197.32 54.6846 183.468 51.836 168.255 51.9415C160.74 51.9943 153.612 53.2427 146.036 54.7901C141.791 55.6517 129.337 60.6366 124.723 62.9312C115.108 67.7139 112.278 71.8109 108.112 75.6529C108.121 75.7672 110.468 100.305 111.127 104.885C111.32 108.218 111.487 111.224 111.575 113.299H111.593Z" fill="#FAFAFA"/>
<path d="M264.747 224.699C264.668 223.829 264.405 222.967 264.624 222.08C263.139 215.82 261.821 209.516 259.729 203.415C259.641 203.142 259.641 202.843 259.606 202.553C259.43 202.21 259.21 201.876 259.079 201.516C256.24 193.621 252.786 185.998 248.646 178.701C248.154 177.831 248.532 177.602 249.217 177.338C249.455 177.242 249.692 177.145 249.921 177.057L250.167 176.951C250.782 176.696 251.397 176.433 251.995 176.143L254.517 175.026C254.658 174.973 254.763 174.938 254.798 174.929C254.948 174.868 255.088 174.78 255.229 174.718L255.677 174.525L255.598 174.543C256.653 174.033 257.69 173.479 258.674 172.846C260.081 171.949 261.425 170.947 262.664 169.821C262.207 170.243 261.513 170.569 260.977 170.903C260.362 171.281 259.729 171.65 259.096 172.002C257.848 172.696 256.574 173.303 255.273 173.892C255.124 173.962 254.983 174.041 254.842 174.112C254.728 174.164 254.614 174.226 254.5 174.27C254.016 174.472 253.524 174.666 253.041 174.868C249.587 176.274 246.106 177.312 242.389 177.778C234.092 178.815 225.997 177.998 218.395 174.34C205.062 167.922 196.827 157.46 194.225 142.839C192.661 134.039 193.672 125.458 197.433 117.273C197.592 116.921 197.829 116.614 198.022 116.28C200.817 110.099 205.132 105.149 210.502 101.105C216.496 96.586 223.238 93.8518 230.717 92.999C230.717 92.999 240.218 91.478 248.558 93.7287C248.022 93.588 247.495 93.3946 246.95 93.254C245.456 92.8759 243.927 92.6034 242.397 92.41C239.453 92.0407 236.482 91.9967 233.521 92.1814C232.053 92.2693 230.585 92.4187 229.126 92.6034C228.379 92.6913 227.641 92.7968 226.902 92.9111C226.718 92.9375 224.74 93.2012 224.74 93.2715C223.528 93.4913 222.332 93.7639 221.146 94.0892C219.036 94.6694 216.98 95.3991 214.985 96.2871C213.007 97.1663 211.091 98.1949 209.254 99.3466C207.426 100.507 205.695 101.791 204.06 103.206C202.425 104.622 200.896 106.151 199.481 107.787C198.066 109.431 196.774 111.18 195.623 113.027C194.454 114.882 193.434 116.833 192.564 118.847C192.037 120.069 191.571 121.317 191.158 122.583C190.727 123.92 190.297 124.078 189.031 123.586C180.084 120.139 170.882 119.269 161.416 120.922C156.495 121.783 151.916 123.533 147.486 125.968C145.693 118.583 142.406 112.077 137.361 106.512C133.714 102.485 129.53 99.1796 124.591 96.797C122.754 95.9091 120.856 95.1442 118.922 94.5024C116.558 93.7199 114.132 93.1309 111.671 92.7265C110.335 92.5067 108.999 92.3484 107.655 92.2429C106.328 92.1374 104.974 92.1902 103.656 92.0847C107.567 92.4275 111.337 93.1309 115.064 94.4057C119.854 96.0409 124.336 98.5202 128.186 101.817C139.743 111.699 144.726 124.289 143.338 139.375C142.239 151.288 136.737 160.88 127.526 168.406C126.85 168.96 126.085 169.408 125.356 169.909C121.163 173.127 116.391 175.14 111.293 176.345C102.575 178.393 93.9704 177.963 85.5419 174.859C85.5155 175.096 85.4804 175.325 85.454 175.562C87.66 176.626 89.9275 177.541 92.3005 178.147C93.3552 178.411 93.531 178.701 92.9773 179.686C90.0769 184.864 87.537 190.227 85.3046 195.722C84.3817 197.99 83.4941 200.267 82.5888 202.544C82.2988 204.874 81.4726 207.072 80.8398 209.314C79.8379 212.883 78.8008 216.435 78.168 220.093C78.0362 220.84 77.5088 221.376 77.2803 222.062C77.9746 222.748 77.5704 223.557 77.4737 224.286C76.9112 228.216 76.5245 232.164 76.7442 236.138C77.0342 241.281 77.7286 246.354 79.6709 251.18C79.9258 251.145 80.1191 251.207 80.2773 251.321C80.4443 251.435 80.5762 251.602 80.7431 251.769C85.3749 256.605 90.3846 261.018 95.6931 265.115C97.9957 266.891 100.378 268.553 102.812 270.135C105.247 271.718 107.725 273.221 110.23 274.689C110.933 275.103 111.636 275.604 112.515 275.63C113.051 269.476 114.238 263.445 116.145 257.572C119.098 248.472 123.615 240.235 129.838 232.937C134.892 227.012 140.798 222.132 147.644 218.449C154.122 214.967 161.003 212.716 168.368 211.995C185.639 210.307 200.501 215.714 213.236 227.258C224.231 237.228 230.822 249.765 234.303 264.06C235.111 267.392 235.516 270.786 236.096 274.144C239.919 272.588 243.241 270.188 246.59 267.849C250.808 264.895 254.913 261.766 258.657 258.205C258.815 258.055 259.096 258.02 259.316 257.932C260.88 255.602 261.926 253.018 262.849 250.389C265.811 242.002 265.556 233.359 264.765 224.691L264.747 224.699Z" fill="#40BE46"/>
<path d="M80.7344 251.769C80.5762 251.602 80.4355 251.435 80.2685 251.321C80.1016 251.207 79.917 251.136 79.6621 251.18C83.2568 260.807 89.3738 268.421 97.9254 274.1C102.162 276.914 106.486 279.586 111.197 281.969C108.534 283.639 106.02 285.222 103.498 286.796C103.603 287.613 104.35 287.684 104.895 287.912C111.777 290.699 118.887 292.73 126.182 294.075C127.421 294.304 128.81 295.095 130.093 294.058C129.328 292.537 128.687 290.972 128.326 289.301C128.071 289.161 127.825 288.985 127.553 288.888C123.062 287.341 118.685 285.521 114.369 283.525C113.649 283.191 112.946 282.91 112.919 281.907C112.875 279.903 112.744 277.907 112.656 275.903C112.603 275.815 112.55 275.718 112.497 275.63C111.619 275.604 110.915 275.103 110.212 274.689C107.707 273.221 105.229 271.718 102.794 270.135C100.36 268.553 97.9782 266.9 95.6755 265.115C90.367 261.027 85.3661 256.605 80.7256 251.769H80.7344Z" fill="#40BE46"/>
<path d="M130.102 294.049C131.112 294.955 132.308 295.377 133.644 295.649C137.212 296.379 140.059 299.403 140.569 302.823C141.123 306.516 139.462 310.085 136.368 311.861C133.081 313.743 129.284 313.488 126.322 311.079C124.002 309.188 122.956 306.665 123.123 303.685C123.176 302.779 123.027 301.944 122.816 301.082C122.552 300.001 121.691 299.992 120.891 299.852C120.038 299.702 119.836 300.37 119.546 300.942C118.975 302.085 118.606 303.307 118.219 304.52C118.008 305.179 118.096 305.716 118.377 306.34C119.959 309.927 119.414 313.25 116.874 316.187C114.668 318.727 110.564 319.695 107.409 318.455C103.761 317.022 101.731 314.261 101.582 310.375C101.459 307.184 102.865 304.581 105.545 302.762C107.242 301.601 108.367 298.884 107.998 296.845C107.883 296.229 107.576 296.141 107.075 296.273C104.974 296.792 103.102 297.258 102.381 299.939C101.169 304.458 96.3786 306.841 91.7293 305.654C87.203 304.502 84.2587 300.001 85.0497 295.456C85.8407 290.928 90.0418 287.64 94.6032 288.088C95.7985 288.202 96.9762 288.282 98.0836 287.912C99.8502 287.323 101.801 287.675 103.498 286.796C103.603 287.613 104.35 287.684 104.895 287.912C111.777 290.699 118.887 292.73 126.182 294.075C127.421 294.304 128.81 295.095 130.093 294.058L130.102 294.049Z" fill="#40BE46"/>
<path d="M238.407 287.965C240.007 289.003 241.51 289.134 243.47 288.457C247.996 286.892 252.936 289.618 254.43 294.119C255.959 298.735 253.568 303.694 248.998 305.373C244.358 307.078 239.313 304.986 237.59 300.405C236.5 297.522 234.039 296.678 231.605 295.702C230.875 295.412 230.568 295.913 230.489 296.634C230.26 298.735 231.552 301.223 233.459 302.296C238.715 305.232 239.884 311.527 236.008 316.064C233.811 318.631 229.961 319.633 226.595 318.516C223.291 317.417 220.935 314.393 220.654 310.999C220.531 309.443 220.707 307.966 221.348 306.56C221.656 305.883 221.533 305.25 221.419 304.555C221.216 303.351 220.645 302.225 220.751 300.959C220.812 300.256 220.812 299.5 219.907 299.333C218.966 299.157 217.973 299.131 217.437 300.115C216.901 301.1 216.506 302.12 216.646 303.333C217.165 307.817 214.282 311.87 209.923 312.872C205.634 313.866 201.204 311.483 199.71 307.395C198.163 303.148 199.947 298.629 203.937 296.493C205.599 295.605 207.356 295.341 209.184 295.333C211.426 295.271 213.649 294.981 215.873 294.787C221.84 294.278 227.623 292.95 233.196 290.814C235.033 290.11 237.028 289.574 238.407 287.965Z" fill="#40BE46"/>
<path d="M236.632 279.569C235.164 280.703 233.459 281.406 231.851 282.294C231.42 282.532 230.761 282.567 230.735 283.279C230.119 283.165 229.592 283.411 229.056 283.657C227.588 284.334 226.112 284.993 224.635 285.644C220.241 287.578 215.653 289.003 211.135 290.62C207.242 291.561 203.375 292.607 199.455 293.425C192.898 294.796 186.263 295.623 179.557 296.001C175.584 296.229 171.62 296.317 167.657 296.177C155.932 295.763 144.384 294.128 133.143 290.655C131.552 290.163 129.944 289.75 128.344 289.293C128.089 289.152 127.843 288.976 127.571 288.879C123.079 287.332 118.703 285.512 114.387 283.516C113.666 283.182 112.963 282.901 112.937 281.899C112.893 279.894 112.761 277.899 112.673 275.894C116.163 277.547 119.59 279.358 123.167 280.809C131.78 284.308 140.64 286.98 149.815 288.686C157.233 290.066 164.704 290.62 172.201 290.866C175.742 290.981 179.32 290.629 182.879 290.383C187.071 290.093 191.211 289.548 195.342 288.853C201.564 287.816 207.673 286.268 213.64 284.264C220.601 281.934 227.404 279.165 233.828 275.56C234.496 275.182 235.138 274.663 235.99 274.725C236.632 276.281 236.693 277.907 236.658 279.551L236.632 279.569Z" fill="#40BE46"/>
<path d="M211.126 290.62C215.644 289.002 220.232 287.578 224.626 285.644C226.103 284.993 227.579 284.334 229.047 283.657C229.592 283.402 230.11 283.156 230.726 283.279C233.283 284.844 235.841 286.4 238.398 287.965C237.027 289.574 235.023 290.11 233.187 290.814C227.614 292.95 221.831 294.269 215.864 294.787C213.631 294.981 211.416 295.271 209.175 295.333C209.562 293.653 210.836 292.343 211.118 290.629L211.126 290.62Z" fill="#40BE46"/>
<path d="M236.632 279.569C236.667 277.925 236.605 276.29 235.964 274.742C235.999 274.549 236.034 274.347 236.069 274.153C239.892 272.597 243.215 270.197 246.563 267.858C250.782 264.904 254.886 261.774 258.63 258.214C258.789 258.064 259.07 258.029 259.29 257.941C256.486 263.146 252.61 267.48 248.216 271.357C244.647 274.505 240.886 277.397 236.623 279.578L236.632 279.569Z" fill="#40BE46"/>
<path d="M236.069 274.144C236.034 274.338 235.999 274.54 235.964 274.733C235.111 274.672 234.47 275.191 233.802 275.569C227.377 279.173 220.575 281.934 213.614 284.272C207.646 286.268 201.538 287.824 195.315 288.862C191.185 289.548 187.045 290.101 182.853 290.392C179.293 290.638 175.725 290.989 172.174 290.875C164.677 290.629 157.207 290.075 149.789 288.695C140.613 286.989 131.754 284.325 123.141 280.817C119.573 279.367 116.145 277.556 112.647 275.903C112.594 275.815 112.542 275.718 112.489 275.63C113.025 269.476 114.211 263.445 116.119 257.572C119.072 248.472 123.589 240.235 129.812 232.937C134.865 227.012 140.771 222.132 147.618 218.449C154.095 214.967 160.977 212.716 168.342 211.995C185.612 210.307 200.474 215.714 213.21 227.258C224.204 237.228 230.796 249.765 234.277 264.06C235.085 267.392 235.489 270.786 236.069 274.144Z" fill="#C3E0B6"/>
<path d="M171.278 160.74C174.855 160.74 178.432 160.74 182.009 160.74C182.404 160.74 182.809 160.696 183.178 160.775C184.496 161.047 184.953 161.83 184.25 162.929C181.701 166.92 178.212 169.786 173.51 170.709C167.2 171.949 162.392 169.25 158.604 164.406C158.103 163.773 157.875 162.929 157.532 162.164C157.277 161.592 157.479 161.188 158.077 161.056C158.833 160.889 159.588 160.722 160.388 160.731C164.018 160.766 167.639 160.748 171.269 160.748L171.278 160.74Z" fill="#308E33"/>
<path d="M101.678 178.411C125.536 178.411 144.876 159.065 144.876 135.2C144.876 111.334 125.536 91.988 101.678 91.988C77.8211 91.988 58.481 111.334 58.481 135.2C58.481 159.065 77.8211 178.411 101.678 178.411Z" fill="white"/>
<path d="M103.568 174.639C79.7061 174.639 60.3706 155.289 60.3706 131.428C60.3706 125.221 61.6889 119.33 64.0443 113.994C60.5112 120.262 58.481 127.489 58.481 135.2C58.481 159.069 77.8253 178.411 101.678 178.411C119.335 178.411 134.505 167.808 141.211 152.625C133.802 165.76 119.731 174.631 103.577 174.631L103.568 174.639Z" fill="#DCDDDC"/>
<path d="M94.5156 115.304C95.6406 117.449 97.3544 118.574 99.789 118.003C101.564 117.59 102.707 116.359 102.988 114.539C103.357 112.121 102.241 110.477 100.009 109.536C107.681 103.646 119.88 105.325 126.481 113.106C133.459 121.326 132.659 133.529 124.67 140.87C116.848 148.053 104.632 147.781 97.0732 140.246C89.0753 132.281 90.2179 120.755 94.5244 115.295L94.5156 115.304Z" fill="#323232"/>
<path d="M236.72 178.508C260.577 178.508 279.917 159.161 279.917 135.296C279.917 111.431 260.577 92.0847 236.72 92.0847C212.863 92.0847 193.522 111.431 193.522 135.296C193.522 159.161 212.863 178.508 236.72 178.508Z" fill="white"/>
<path d="M238.609 174.736C214.748 174.736 195.412 155.385 195.412 131.525C195.412 125.318 196.73 119.427 199.086 114.091C195.553 120.359 193.522 127.586 193.522 135.296C193.522 159.166 212.867 178.508 236.72 178.508C254.377 178.508 269.546 167.905 276.252 152.722C268.843 165.856 254.772 174.727 238.618 174.727L238.609 174.736Z" fill="#DCDDDC"/>
<path d="M208.446 115.401C209.571 117.546 211.285 118.671 213.719 118.1C215.495 117.686 216.637 116.456 216.918 114.636C217.287 112.218 216.171 110.574 213.939 109.633C221.612 103.743 233.811 105.422 240.411 113.203C247.389 121.423 246.59 133.626 238.601 140.967C230.778 148.15 218.562 147.877 211.003 140.343C203.005 132.377 204.148 120.851 208.455 115.392L208.446 115.401Z" fill="#323232"/>
<path d="M262.348 214.07C262.348 214.07 270.056 219.917 280.146 204.276C280.146 204.276 280.735 195.502 287.599 196.241C287.599 196.241 293.109 196.487 291.158 202.87C291.158 202.87 290.227 205.894 285.551 206.914V223.926C285.551 223.926 267.129 232.682 264.607 235.733L262.339 214.079L262.348 214.07Z" fill="#40BE46"/>
<path d="M57.5231 217.701C56.9166 218.106 56.2399 218.554 55.4489 219.038C54.2976 219.75 52.9353 220.532 51.3533 221.368C51.2742 221.412 51.2039 221.464 51.1248 221.517C50.3513 221.983 49.5603 222.379 48.7518 222.704L48.7166 222.721C46.4842 223.609 44.1112 223.979 41.6943 223.961C40.1474 223.952 38.5479 223.231 37.3614 222.009C35.4629 220.058 34.0831 217.842 33.3712 215.169C32.545 212.048 29.9523 210.281 27.0344 210.624C24.5208 210.923 22.7278 212.637 22.3675 215.073C22.0159 217.464 23.4397 220.075 25.6809 220.937C28.2297 221.921 30.6994 223.029 32.8526 224.726C33.9249 225.57 34.8126 226.537 35.1905 227.953C35.5245 229.227 35.1905 229.975 34.0919 230.678C31.587 232.278 28.7394 232.542 25.9358 232.981C22.8069 233.474 19.6517 233.386 16.4965 233.491C13.1919 233.597 9.95758 233.192 6.6969 232.964C4.37663 232.797 2.35518 233.544 1.072 235.628C-0.281488 237.843 -0.448477 240.129 1.1511 242.283C2.72431 244.402 4.92154 245.079 7.46153 244.446C9.33356 243.98 11.1792 243.373 12.8755 242.441C15.31 241.114 17.8852 240.402 20.6273 240.129C23.6331 239.83 26.6389 239.461 29.6447 239.136C31.2267 238.969 32.6505 239.461 34.3292 240.226C32.923 241.228 31.7189 242.16 30.4445 242.978C27.7551 244.718 24.8899 246.125 22.0072 247.523C18.8783 249.035 15.644 250.169 12.4097 251.374C10.2828 252.174 8.85017 253.792 8.57772 256.148C8.28769 258.609 9.05232 260.684 11.2759 261.985C13.5083 263.287 15.7407 263.164 17.8148 261.625C19.3353 260.5 20.7152 259.19 21.849 257.677C23.721 255.172 26.0149 253.202 28.7043 251.638C31.1652 250.205 33.5909 248.701 36.0254 247.224C36.6319 246.855 37.291 246.635 37.9854 246.503C39.1455 246.292 39.5058 246.547 39.1894 247.708C38.4775 250.301 37.5108 252.789 35.2344 254.495C33.503 255.796 32.2726 257.326 32.7648 259.726C33.213 261.915 34.1182 262.917 36.2979 263.401C39.7607 264.166 43.1181 261.616 43.2587 258.064C43.4257 253.792 44.8846 249.932 46.9325 246.248C47.2225 245.73 47.6795 245.554 48.1805 245.369C52.2146 243.883 55.4137 241.465 57.0573 237.342C57.3297 236.665 57.7428 236.146 58.2789 235.672C59.4654 234.634 60.608 233.553 61.7681 232.48C63.8247 230.731 71.2162 226.388 72.0423 225.737C75.2503 224.559 78.344 223.662 78.344 223.662L83.1691 202.254V201.006C83.1691 201.006 67.8764 209.499 57.5319 217.675L57.5231 217.701Z" fill="#40BE46"/>
<path d="M281.077 290.462C269.652 205.753 255.546 191.643 255.546 191.643C223.449 200.716 195.597 204.092 172.473 204.47C149.349 204.092 119.907 199.3 87.8096 190.227C87.8096 190.227 75.2854 205.745 63.8599 290.453C63.8599 290.453 111.32 298.665 172.464 298.48C233.609 298.665 281.069 290.453 281.069 290.453L281.077 290.462Z" fill="white"/>
<g style="mix-blend-mode:multiply">
<path d="M281.078 290.462C269.749 205.41 255.546 191.643 255.546 191.643L254.816 191.845C259.615 205.112 256.899 212.769 249.139 218.985C246.379 221.2 252.206 220.181 257.031 217.121C258.183 216.391 258.411 219.477 251.195 223.645C245.825 226.748 252.303 225.403 256.258 227.056C263.386 230.027 262.48 238.74 262.665 247.998C262.779 253.704 263.298 260.579 261.681 269.072C257.734 289.846 262.182 284.738 265.68 269.247C266.629 265.045 269.028 283.288 265.556 292.704C273.959 291.587 281.086 290.453 281.086 290.453L281.078 290.462Z" fill="#E2E2E2"/>
</g>
<path d="M172.262 274.918C167.147 274.153 164.071 269.546 169.959 269.546C175.848 269.546 197.064 266.038 199.639 248.815C201.81 234.247 197.53 224.304 196.185 221.64C173.273 222.264 139.725 221.42 135.788 221.315C134.795 245.184 135.032 266.003 135.032 266.214C134.979 267.067 135.533 268.148 136.605 269.291C138.961 271.815 143.768 274.566 150.975 276.43C164.018 278.698 176.533 275.56 172.262 274.918Z" fill="white"/>
<g style="mix-blend-mode:multiply">
<path d="M145.658 275.182C138.038 272.272 134.505 268.412 134.654 266.223C134.654 266.223 134.399 245.237 135.419 220.919C135.419 220.919 171.55 221.921 195.992 221.262C195.869 221.042 195.799 220.919 195.799 220.919L198.945 220.787C174.837 221.614 135.858 220.55 135.437 220.532H135.059L135.041 220.901C134.03 244.947 134.268 266.012 134.276 266.188C134.206 267.234 134.821 268.491 136.061 269.81C137.713 271.577 140.358 273.379 144.006 274.944C143.566 274.61 143.364 274.408 143.364 274.408C144.12 274.689 144.893 274.944 145.676 275.182H145.658Z" fill="#E2E2E2"/>
</g>
<g style="mix-blend-mode:multiply">
<path d="M205.132 220.515L204.728 220.532C204.394 220.55 204.051 220.567 203.708 220.585L205.132 220.523V220.506V220.515Z" fill="#E2E2E2"/>
</g>
<path d="M135.419 220.919C134.399 245.228 134.654 266.223 134.654 266.223C134.505 268.412 138.038 272.272 145.658 275.182C147.416 275.709 149.2 276.122 150.975 276.439C143.777 274.575 138.961 271.815 136.605 269.3C135.533 268.157 134.979 267.076 135.032 266.223C135.032 266.012 134.795 245.193 135.788 221.323C139.725 221.429 173.273 222.273 196.185 221.649C196.106 221.499 196.045 221.376 195.992 221.271C171.559 221.93 135.419 220.928 135.419 220.928V220.919Z" fill="white"/>
<g style="mix-blend-mode:multiply">
<path d="M135.419 220.919C134.399 245.228 134.654 266.223 134.654 266.223C134.505 268.412 138.038 272.272 145.658 275.182C147.416 275.709 149.2 276.122 150.975 276.439C143.777 274.575 138.961 271.815 136.605 269.3C135.533 268.157 134.979 267.076 135.032 266.223C135.032 266.012 134.795 245.193 135.788 221.323C139.725 221.429 173.273 222.273 196.185 221.649C196.106 221.499 196.045 221.376 195.992 221.271C171.559 221.93 135.419 220.928 135.419 220.928V220.919Z" fill="#E2E2E2"/>
</g>
<g style="mix-blend-mode:multiply">
<path d="M198.945 220.787C200.615 220.734 202.206 220.664 203.718 220.585L198.945 220.787Z" fill="#E2E2E2"/>
</g>
<path d="M204.368 266.214V221.323C201.872 221.455 199.112 221.561 196.185 221.64C197.53 224.304 201.81 234.247 199.639 248.815C197.073 266.038 175.848 269.546 169.959 269.546C164.071 269.546 167.147 274.153 172.262 274.918C176.542 275.56 164.018 278.698 150.975 276.43C156.09 277.758 162.409 278.628 169.959 278.628C186.878 278.628 204.368 273.986 204.368 266.214Z" fill="white"/>
<g style="mix-blend-mode:multiply">
<path d="M204.368 266.214V221.323C201.872 221.455 199.112 221.561 196.185 221.64C197.53 224.304 201.81 234.247 199.639 248.815C197.073 266.038 175.848 269.546 169.959 269.546C164.071 269.546 167.147 274.153 172.262 274.918C176.542 275.56 164.018 278.698 150.975 276.43C156.09 277.758 162.409 278.628 169.959 278.628C186.878 278.628 204.368 273.986 204.368 266.214Z" fill="#E2E2E2"/>
</g>
<g style="mix-blend-mode:multiply">
<path d="M205.133 266.214V220.523L203.709 220.585C202.197 220.664 200.606 220.726 198.936 220.787L195.79 220.919C195.79 220.919 195.86 221.042 195.983 221.262C199.13 221.174 202.092 221.069 204.746 220.919V266.223C204.746 274.153 187.608 279.024 169.951 279.024C159.413 279.024 151.38 277.371 145.649 275.191C144.876 274.953 144.103 274.707 143.338 274.417C143.338 274.417 143.549 274.619 143.979 274.953C149.93 277.503 158.551 279.402 169.942 279.402C186.992 279.402 205.124 274.786 205.124 266.223L205.133 266.214Z" fill="#E2E2E2"/>
</g>
<path d="M204.368 221.324V266.214C204.368 273.986 186.869 278.628 169.96 278.628C162.41 278.628 156.099 277.749 150.975 276.43C149.2 276.123 147.416 275.709 145.658 275.173C151.389 277.362 159.422 279.006 169.96 279.006C187.616 279.006 204.755 274.144 204.755 266.205V220.901C202.1 221.051 199.139 221.156 195.992 221.244C196.045 221.35 196.115 221.473 196.186 221.622C199.112 221.543 201.872 221.438 204.368 221.306V221.324Z" fill="white"/>
<g style="mix-blend-mode:multiply">
<path d="M204.368 221.324V266.214C204.368 273.986 186.869 278.628 169.96 278.628C162.41 278.628 156.099 277.749 150.975 276.43C149.2 276.123 147.416 275.709 145.658 275.173C151.389 277.362 159.422 279.006 169.96 279.006C187.616 279.006 204.755 274.144 204.755 266.205V220.901C202.1 221.051 199.139 221.156 195.992 221.244C196.045 221.35 196.115 221.473 196.186 221.622C199.112 221.543 201.872 221.438 204.368 221.306V221.324Z" fill="#E2E2E2"/>
</g>
<path d="M88.2489 191.669C88.2489 191.669 79.8467 184.794 92.9686 179.677C92.9686 179.677 84.8652 184.126 94.7791 192.97L88.2577 191.669H88.2489Z" fill="white"/>
<path d="M255.546 191.651C255.546 191.651 263.06 183.809 249.42 180.31C249.42 180.31 257.998 183.44 249.227 193.41L255.546 191.643V191.651Z" fill="white"/>
<path d="M306.838 97.6499H276.332C275.119 97.6499 274.143 98.6522 274.169 99.8654L275.022 134.953C275.127 139.446 276.077 143.868 277.817 148.009L285.428 166.164C287.159 170.287 287.968 174.745 287.783 179.22C287.643 182.701 287.432 186.174 287.168 189.647C286.052 204.232 285.437 220.093 285.437 236.683C285.437 246.318 285.648 255.699 286.034 264.737C286.166 267.691 288.583 270.021 291.528 270.047C294.489 270.074 297.012 267.568 297.135 264.605C297.522 255.611 297.732 246.266 297.732 236.683C297.732 220.093 297.117 204.224 296.001 189.647C295.737 186.174 295.526 182.693 295.386 179.22C295.201 174.745 296.01 170.287 297.741 166.164L305.352 148.009C307.084 143.868 308.033 139.437 308.147 134.953L309 99.8654C309.026 98.6522 308.051 97.6499 306.838 97.6499ZM284.91 127.217C284.91 128.105 284.189 128.825 283.301 128.825C282.413 128.825 281.693 128.105 281.693 127.217V113.66C281.693 112.772 282.413 112.051 283.301 112.051C284.189 112.051 284.91 112.772 284.91 113.66V127.217ZM287.212 132.043V108.842C287.212 107.954 287.933 107.233 288.821 107.233C289.708 107.233 290.429 107.954 290.429 108.842V132.043C290.429 132.931 289.708 133.652 288.821 133.652C287.933 133.652 287.212 132.931 287.212 132.043ZM294.085 264.438C294.085 265.757 293.013 266.83 291.695 266.83C290.376 266.83 289.304 265.757 289.304 264.438C289.304 263.12 290.376 262.047 291.695 262.047C293.013 262.047 294.085 263.12 294.085 264.438ZM295.948 132.043C295.948 132.931 295.228 133.652 294.34 133.652C293.452 133.652 292.732 132.931 292.732 132.043V108.842C292.732 107.954 293.452 107.233 294.34 107.233C295.228 107.233 295.948 107.954 295.948 108.842V132.043ZM301.468 127.217C301.468 128.105 300.747 128.825 299.859 128.825C298.972 128.825 298.251 128.105 298.251 127.217V113.66C298.251 112.772 298.972 112.051 299.859 112.051C300.747 112.051 301.468 112.772 301.468 113.66V127.217Z" fill="#59666E"/>
<g style="mix-blend-mode:multiply">
<path d="M306.838 97.6499H276.332C275.119 97.6499 274.143 98.6522 274.169 99.8654L275.022 134.953C275.04 135.824 275.092 136.694 275.18 137.564C275.488 140.765 278.168 143.218 281.385 143.218H301.784C305.001 143.218 307.682 140.765 307.989 137.564C308.077 136.703 308.13 135.832 308.147 134.953L309 99.8654C309.026 98.6522 308.051 97.6499 306.838 97.6499ZM284.91 127.217C284.91 128.105 284.189 128.825 283.301 128.825C282.413 128.825 281.693 128.105 281.693 127.217V113.66C281.693 112.772 282.413 112.051 283.301 112.051C284.189 112.051 284.91 112.772 284.91 113.66V127.217ZM290.429 132.043C290.429 132.931 289.708 133.652 288.821 133.652C287.933 133.652 287.212 132.931 287.212 132.043V108.842C287.212 107.954 287.933 107.233 288.821 107.233C289.708 107.233 290.429 107.954 290.429 108.842V132.043ZM295.948 132.043C295.948 132.931 295.228 133.652 294.34 133.652C293.452 133.652 292.732 132.931 292.732 132.043V108.842C292.732 107.954 293.452 107.233 294.34 107.233C295.228 107.233 295.948 107.954 295.948 108.842V132.043ZM301.468 127.217C301.468 128.105 300.747 128.825 299.859 128.825C298.972 128.825 298.251 128.105 298.251 127.217V113.66C298.251 112.772 298.972 112.051 299.859 112.051C300.747 112.051 301.468 112.772 301.468 113.66V127.217Z" fill="#E2E2E2"/>
</g>
<path d="M302.812 202.026C302.724 201.041 302.347 200.162 301.608 199.801C300.703 199.362 299.631 199.459 298.708 199.054C298.093 198.782 297.53 198.404 296.889 198.175C295.834 197.788 294.63 197.551 293.522 197.885C292.898 198.069 292.266 198.483 291.897 199.028C291.404 199.74 291.316 200.716 291.158 201.551C290.974 202.492 290.912 203.476 290.965 204.435C291.009 205.129 291.158 205.762 291.624 206.299C292.389 207.169 293.681 207.441 294.797 207.362C296.282 207.257 297.768 206.993 299.218 206.65C300.097 206.439 301.213 206.325 301.872 205.63C302.549 204.918 302.935 203.38 302.812 202.043V202.026Z" fill="#40BE46"/>
<path d="M301.854 207.512C300.729 206.404 298.585 207.046 297.284 207.477C296.001 207.907 294.753 208.47 293.408 208.646C292.582 208.76 291.905 208.998 291.343 209.631C290.736 210.316 290.482 211.222 290.42 212.119C290.376 212.796 290.341 213.367 290.666 214.009C291.448 215.583 293.514 216.268 295.157 216.04C296.625 215.838 298.181 215.565 299.534 214.95C300.8 214.369 301.626 213.253 302.021 211.952C302.224 211.301 302.329 210.624 302.373 209.947C302.417 209.27 302.496 208.514 302.153 207.907C302.074 207.767 301.969 207.635 301.854 207.521V207.512Z" fill="#40BE46"/>
<path d="M301.415 215.723C301.749 216.541 301.705 217.877 301.679 218.475C301.635 219.706 301.336 220.954 300.712 222.027C299.218 224.594 295.025 225.851 292.45 224.269C291.448 223.653 290.701 222.651 290.438 221.499C290.095 220.014 290.288 218.343 290.279 216.831C290.279 216.638 290.279 216.444 290.35 216.268C290.701 215.398 291.431 216.286 291.826 216.541C292.846 217.2 294.551 217.104 295.702 216.963C296.546 216.857 297.363 216.646 298.145 216.321C298.901 216.013 299.543 215.416 300.281 215.134C300.51 215.046 300.782 215.038 300.993 215.169C301.178 215.284 301.309 215.486 301.406 215.732L301.415 215.723Z" fill="#40BE46"/>
<path d="M169.687 262.882L152.215 252.728L152.171 236.595L169.634 246.749L169.678 262.882H169.687Z" fill="url(#paint0_linear_3447_1677)"/>
<path d="M169.643 246.749L152.18 236.595L169.696 226.476L187.159 236.63L169.643 246.749Z" fill="#86C7F7"/>
<path fill-rule="evenodd" clip-rule="evenodd" d="M170.048 231.979L169.037 232.094L168.888 232.155H168.729L168.589 232.217L167.798 232.401L167.684 232.454H167.578L167.481 232.533L166.022 233.078L165.952 233.14C165.293 233.395 164.757 233.755 164.186 234.054L164.124 234.124C163.605 234.415 163.43 234.564 163.069 234.916L162.981 234.977L162.621 235.461L162.551 235.522L162.428 235.769L162.366 235.839C161.953 236.78 161.962 236.929 162.05 238.028L162.12 238.142V238.257L162.173 238.353L162.305 238.696L162.366 238.775L162.428 238.951L162.498 239.013C162.709 239.391 162.964 239.69 163.219 239.962C163.359 240.12 163.957 240.604 164.194 240.727L164.256 240.797C164.739 241.026 165.091 241.316 165.697 241.527L165.776 241.58L166.954 241.949L167.086 242.011C167.49 242.055 167.921 242.178 168.369 242.23C168.861 242.292 169.125 242.055 169.529 241.879L169.608 241.817H169.661L169.74 241.756L171.612 240.894L171.691 240.833H171.744L171.823 240.771L172.904 240.261L172.807 240.217C172.175 240.191 171.428 240.287 170.742 240.27C170.057 240.252 169.415 240.129 168.791 240.094L168.659 240.033C168.202 239.989 167.745 239.795 167.358 239.663L167.27 239.611C166.638 239.382 166.058 238.881 165.776 238.371C165.346 237.544 165.609 236.938 165.943 236.243L166.014 236.182L166.075 236.067L166.145 236.006C166.488 235.522 167.314 234.854 168.141 234.59L168.228 234.538L169.099 234.291L169.222 234.23H169.353L169.485 234.168L170.065 234.116C170.206 234.028 170.276 234.037 170.478 234.037H171.823C172.034 234.037 172.219 234.037 172.368 234.116L173.15 234.221L173.247 234.291C173.721 234.362 174.117 234.626 174.521 234.775L174.592 234.837L174.838 234.951L174.899 235.021C175.321 235.241 176.068 235.927 176.226 236.472L176.279 236.56C176.455 237.175 176.411 237.377 176.279 237.984L176.226 238.098L176.007 238.573L176.332 238.441L176.402 238.38L178.995 237.043L179.065 236.982L179.68 236.674L179.751 236.613L180.366 236.305L180.436 236.234C180.463 236.103 179.663 235.443 179.487 235.276L179.425 235.188C179.215 235.012 178.916 234.749 178.67 234.599L178.608 234.529C178.362 234.388 178.151 234.168 177.914 234.054L177.852 233.984L177.228 233.623L177.167 233.553L176.349 233.131L176.27 233.069L175.224 232.639L175.137 232.586L174.504 232.41L174.407 232.34H174.293L174.17 232.287H174.055L173.941 232.217C173.423 232.164 172.86 231.997 172.28 231.944C171.586 231.883 170.909 231.962 170.285 231.909L170.039 231.97L170.048 231.979Z" fill="url(#paint1_linear_3447_1677)"/>
<path d="M169.643 246.749L169.687 262.882L178.098 258.029V241.861L169.643 246.749Z" fill="#A9DCFC"/>
<path d="M187.203 252.772L187.16 236.63L178.749 241.492V257.651L187.203 252.772Z" fill="#A9DCFC"/>
<path d="M178.749 241.492L178.098 241.861V258.029L178.749 257.651V241.492Z" fill="#A9DCFC"/>
<path d="M178.749 241.492L178.098 241.861V258.029L178.749 257.651V241.492Z" fill="url(#paint2_linear_3447_1677)"/>
</g>
<defs>
<linearGradient id="paint0_linear_3447_1677" x1="153.085" y1="249.536" x2="166.963" y2="249.888" gradientUnits="userSpaceOnUse">
<stop stop-color="#0086FD"/>
<stop offset="1" stop-color="#21AFFF"/>
</linearGradient>
<linearGradient id="paint1_linear_3447_1677" x1="161.988" y1="237.078" x2="180.454" y2="237.078" gradientUnits="userSpaceOnUse">
<stop stop-color="#0086FD"/>
<stop offset="1" stop-color="#21AFFF"/>
</linearGradient>
<linearGradient id="paint2_linear_3447_1677" x1="178.098" y1="249.756" x2="178.749" y2="249.756" gradientUnits="userSpaceOnUse">
<stop stop-color="#0086FD"/>
<stop offset="1" stop-color="#21AFFF"/>
</linearGradient>
<clipPath id="clip0_3447_1677">
<rect width="309" height="319" fill="white"/>
</clipPath>
</defs>
</svg>
