<svg width="147" height="91" viewBox="0 0 147 91" fill="none" xmlns="http://www.w3.org/2000/svg">
<circle cx="76.5" cy="3.5" r="3.5" fill="white"/>
<g clip-path="url(#clip0_3727_25)">
<path d="M94.7767 67.194L102 68L94.7767 68.806C86.9011 69.6849 80.6849 75.9011 79.806 83.7767L79 91L78.194 83.7767C77.3151 75.9011 71.0989 69.6849 63.2233 68.806L56 68L63.2233 67.194C71.0989 66.3151 77.3151 60.0989 78.194 52.2233L79 45L79.806 52.2233C80.6849 60.0989 86.9011 66.3151 94.7767 67.194Z" fill="white"/>
</g>
<g clip-path="url(#clip1_3727_25)">
<path d="M12.4212 20.7692L12.0006 17L11.5801 20.7692C11.122 24.8784 7.87843 28.122 3.76919 28.5801L0 29.0006L3.76919 29.4212C7.87843 29.8793 11.122 33.1229 11.5801 37.2321L12.0006 41.0013L12.4212 37.2321C12.8793 33.1229 16.1229 29.8793 20.2321 29.4212L24.0013 29.0006L20.2321 28.5801C16.1229 28.122 12.8793 24.8784 12.4212 20.7692Z" fill="white"/>
</g>
<g clip-path="url(#clip2_3727_25)">
<path d="M139.281 29.5128L139 27L138.72 29.5128C138.415 32.2523 136.252 34.4146 133.513 34.7201L131 35.0004L133.513 35.2808C136.252 35.5862 138.415 37.7486 138.72 40.4881L139 43.0009L139.281 40.4881C139.586 37.7486 141.749 35.5862 144.488 35.2808L147.001 35.0004L144.488 34.7201C141.749 34.4146 139.586 32.2523 139.281 29.5128Z" fill="white"/>
</g>
<defs>
<clipPath id="clip0_3727_25">
<rect width="46" height="46" fill="white" transform="translate(56 45)"/>
</clipPath>
<clipPath id="clip1_3727_25">
<rect width="24" height="24" fill="white" transform="translate(0 17)"/>
</clipPath>
<clipPath id="clip2_3727_25">
<rect width="16" height="16" fill="white" transform="translate(131 27)"/>
</clipPath>
</defs>
</svg>
