<?xml version="1.0" encoding="utf-8"?>
<!-- Generator: Adobe Illustrator 21.1.0, SVG Export Plug-In . SVG Version: 6.00 Build 0)  -->
<svg version="1.1" id="Layer_1" xmlns="http://www.w3.org/2000/svg" xmlns:xlink="http://www.w3.org/1999/xlink" x="0px" y="0px"
	 viewBox="0 0 841.9 595.3" style="enable-background:new 0 0 841.9 595.3;" xml:space="preserve">
<style type="text/css">
	.st0{fill:#0076C0;}
</style>
<g>
	<path class="st0" d="M356,177.2c0-12.5-10.1-22.7-22.5-22.7H138.9c-12.4,0-22.5,10.2-22.5,22.7v193.7c0,0.3,0,0.6,0,0.9l0,0
		l0.3,59.1c0.8,6.1,3.8,9.2,7.8,9.2c2.1,0,4.4-0.8,6.8-2.4c14.9-14.7,29.8-29.3,44.7-44h0.1V217h43.3l89.9,105.2V217l46.6,0V177.2z"
		/>
	<polygon class="st0" points="221.7,393.6 308.5,393.6 221.8,294.8 	"/>
	<path class="st0" d="M724.4,290.9H619.9v43.9h53.4c-9.3,13.7-25,22.7-42.7,22.7c-28.5,0-51.6-23.2-51.6-51.6
		c0-28.5,23.2-51.6,51.6-51.6c16.2,0,30.7,7.5,40.1,19.2h49.1c-13.3-36.4-48.2-62.5-89.2-62.5c-50,0-91.1,38.9-94.6,88V217l-46.8,0
		v105.2L399.3,217h-43.3v180.3h45.5l0.1-102.6l90,102.6l44.5,0v-84.7c3.6,49.1,44.6,88,94.6,88c52.3,0,94.9-42.6,94.9-94.9
		C725.6,300.7,725.1,295.7,724.4,290.9z"/>
</g>
</svg>
