<?xml version="1.0" encoding="utf-8"?>
<!-- Generator: Adobe Illustrator 27.0.1, SVG Export Plug-In . SVG Version: 6.00 Build 0)  -->
<svg version="1.1" id="Layer_1" xmlns="http://www.w3.org/2000/svg" xmlns:xlink="http://www.w3.org/1999/xlink" x="0px" y="0px"
	 viewBox="0 0 970 452" style="enable-background:new 0 0 970 452;" xml:space="preserve">
<style type="text/css">
	.st0{fill:#191919;}
	.st1{fill:#EBAF00;}
</style>
<path class="st0" d="M161.1,80.8c-38.8,0-64.1,11.3-85.7,37.7V89.5H0v358.9c0,0,1.5,0.7,5.1,1.5c5.6,1.2,33.2,7.6,53.8-10.1
	c17.8-15.3,21.9-32.9,21.9-53.3v-51.9c21.6,23.2,46.3,32.9,80.8,32.9c74.4,0,131.5-60.4,131.5-140.7
	C293.2,141.2,238.2,80.8,161.1,80.8z M144.4,293.2c-37.7,0-67.9-31.2-67.9-69.5c0-38.3,30.7-67.4,67.9-67.4s67.9,29.6,67.9,67.9
	C212.3,262.4,182.7,293.2,144.4,293.2z"/>
<path class="st0" d="M398.5,219.1c0,31.1,4.5,68.8,35.1,110c0.6,0.8,2.3,2.8,2.3,2.8c-12.4,21.3-30,35.6-50.4,35.6
	c-16.1,0-32.9-8.5-46-23.4c-14-15.9-21.7-36.7-21.7-58.3V0h80.8L398.5,219.1z"/>
<path class="st0" d="M708.5,228c0-84.1-61.4-147.1-142.3-147.1S426.1,145,426.1,225.3s63,142.3,141.7,142.3
	c57.1,0,106.2-34,131.5-92.7h-82.4c0,0-2.1,2.1-3.8,3.8c-17.2,16.2-29.1,21.6-49.6,21.6c-31.8,0-55.5-20.5-58.7-51.2h201.5
	C708,240.3,708.5,236.6,708.5,228L708.5,228z M506.4,194.5c6.5-28.6,29.1-45.8,60.4-45.8c31.3,0,55.5,18.9,60.9,45.8H506.4z"/>
<path class="st1" d="M773.7,358.9H677l90.8-134.7L677,89.5h96.6l90.8,134.8L773.7,358.9z"/>
<path class="st0" d="M886.5,213.4L970,89.4h-96.6l-35.2,52.3L886.5,213.4z"/>
<path class="st0" d="M838,307c0,0.1,16.4,23.9,16.4,23.9c15.8,24.8,36.1,36.6,60.3,36.7c25.1-0.4,43-22.7,49.5-30.5
	c0,0-12.4-10.9-27.7-29.1c-20.9-24.8-49-70.9-50.1-72.9L838,307L838,307z"/>
</svg>
