<svg width="31" height="31" viewBox="0 0 31 31" fill="none" xmlns="http://www.w3.org/2000/svg">
<path d="M15.3205 0.74292C7.03675 0.74292 0.320496 7.45917 0.320496 15.7429C0.320496 24.0267 7.03675 30.7429 15.3205 30.7429C23.6042 30.7429 30.3205 24.0267 30.3205 15.7429C30.3205 7.45917 23.6042 0.74292 15.3205 0.74292ZM12.8205 20.7429H10.3205V13.2429H12.8205V20.7429ZM11.5705 12.1292C10.8117 12.1292 10.1955 11.5092 10.1955 10.7429C10.1955 9.97792 10.8105 9.35667 11.5705 9.35667C12.3305 9.35667 12.9455 9.97792 12.9455 10.7429C12.9455 11.5092 12.3292 12.1292 11.5705 12.1292ZM21.5705 20.7429H19.073V17.1667C19.073 14.8154 16.5705 15.0142 16.5705 17.1667V20.7429H14.0705V13.2429H16.5705V14.6092C17.6605 12.5892 21.5705 12.4392 21.5705 16.5442V20.7429Z" fill="#0077B5"/>
</svg>
