<svg width="106" height="120" viewBox="0 0 106 120" fill="none" xmlns="http://www.w3.org/2000/svg">
<path d="M105.331 119.369H0.662598V111.361H105.331V119.369Z" fill="#40BE46"/>
<path d="M71.3589 5.14016C73.4016 6.15768 74.2454 8.59091 73.2684 10.626C72.247 12.661 69.8046 13.5016 67.7619 12.5283C65.3195 11.3338 62.7439 10.4048 60.0794 9.7854C57.4594 9.16603 54.7061 8.85635 51.9529 8.85635C42.0056 8.85635 33.0353 12.8822 26.5075 19.3413C19.9796 25.8447 15.9829 34.7812 15.9829 44.6911C15.9829 54.6009 20.024 63.5375 26.5075 70.0408C33.0353 76.5442 42.0056 80.5258 51.9529 80.5258C55.7719 80.5258 59.5021 79.9507 63.0103 78.8004C66.5629 77.6502 69.9378 75.969 73.0019 73.757C74.8671 72.4298 77.4427 72.828 78.7749 74.6861C80.1071 76.5442 79.7075 79.1101 77.8424 80.4373C74.0677 83.136 69.9378 85.2153 65.5415 86.631C61.1452 88.0467 56.5712 88.7988 51.9529 88.7988C39.7408 88.7988 28.6834 83.8438 20.6901 75.8806C12.6968 67.9173 7.72314 56.9014 7.72314 44.7353C7.72314 32.5692 12.6968 21.5533 20.6901 13.5901C28.6834 5.6268 39.7408 0.671875 51.9529 0.671875C55.2834 0.671875 58.6584 1.07004 61.9445 1.82213C65.1418 2.48573 68.3392 3.63598 71.3589 5.14016ZM61.3672 40.0901C61.3672 37.8338 63.2323 35.9757 65.4971 35.9757C67.7619 35.9757 69.627 37.8338 69.627 40.0901V45.4432H75.0003C77.2651 45.4432 79.1302 47.3013 79.1302 49.5575C79.1302 51.8138 77.2651 53.6719 75.0003 53.6719H69.627V59.025C69.627 61.2812 67.7619 63.1393 65.4971 63.1393C63.2323 63.1393 61.3672 61.2812 61.3672 59.025V53.6719H55.9939C53.7292 53.6719 51.8641 51.8138 51.8641 49.5575C51.8641 47.3013 53.7292 45.4432 55.9939 45.4432H61.3672V40.0901ZM83.7485 19.8722C83.7485 17.616 85.6136 15.7579 87.8784 15.7579C90.1432 15.7579 92.0083 17.616 92.0083 19.8722V25.2253H97.3816C99.6464 25.2253 101.511 27.0834 101.511 29.3397C101.511 31.5959 99.6464 33.454 97.3816 33.454H92.0083V38.8071C92.0083 41.0634 90.1432 42.9215 87.8784 42.9215C85.6136 42.9215 83.7485 41.0634 83.7485 38.8071V33.454H78.3752C76.1105 33.454 74.2454 31.5959 74.2454 29.3397C74.2454 27.0834 76.1105 25.2253 78.3752 25.2253H83.7485V19.8722Z" fill="#40BE46"/>
</svg>
