<svg width="400" height="400" xmlns="http://www.w3.org/2000/svg">
 <g id="Layer_1">
  <title>Layer 1</title>
  <path fill="url(#svg_3)" d="m199.88504,329.501l-131.669,-73.356l-0.331,-116.5448l131.602,73.3568l0.332,116.544l0.066,0z"/>
  <path fill="#86C7F7" d="m199.55504,212.956l-131.602,-73.3559l131.999,-73.1021l131.603,73.3562l-132,73.1018z"/>
  <path fill="url(#svg_2)" d="m202.60204,106.2563l-7.616,0.8257l-1.126,0.4446l-1.193,0l-1.059,0.4447l-5.961,1.3337l-0.861,0.381l-0.795,0l-0.729,0.5716l-10.994,3.9377l-0.53,0.4446c-4.967,1.8419 -9.007,4.4459 -13.312,6.6053l-0.464,0.508c-3.908,2.0959 -5.232,3.1758 -7.948,5.7163l-0.662,0.4444l-2.716,3.4933l-0.53,0.4446l-0.927,1.7783l-0.463,0.508c-3.113,6.7958 -3.047,7.8755 -2.385,15.8144l0.53,0.8257l0,0.8257l0.398,0.6986l0.993,2.477l0.464,0.5716l0.463,1.2703l0.53,0.4444c1.59,2.7311 3.51,4.8906 5.431,6.8594c1.06,1.1433 5.564,4.6368 7.352,5.5258l0.463,0.508c3.643,1.651 6.292,3.747 10.862,5.271l0.596,0.381l8.876,2.668l0.993,0.444c3.047,0.318 6.292,1.207 9.67,1.588c3.709,0.445 5.696,-1.27 8.742,-2.54l0.597,-0.445l0.397,0l0.596,-0.444l14.107,-6.225l0.597,-0.444l0.397,0l0.596,-0.445l8.146,-3.6834l-0.728,-0.3175c-4.769,-0.1905 -10.398,0.5081 -15.565,0.3811c-5.166,-0.127 -10.001,-1.0163 -14.703,-1.2703l-0.993,-0.4447c-3.445,-0.3175 -6.889,-1.7147 -9.803,-2.6673l-0.662,-0.3811c-4.769,-1.6513 -9.14,-5.2715 -11.26,-8.9552c-3.245,-5.9701 -1.258,-10.3525 1.259,-15.37l0.53,-0.4444l0.463,-0.8257l0.53,-0.4446c2.583,-3.4932 8.809,-8.3202 15.035,-10.2255l0.662,-0.3811l6.557,-1.7783l0.927,-0.4445l0.994,0l0.993,-0.4446l4.372,-0.381c1.059,-0.6352 1.589,-0.5716 3.113,-0.5716l10.133,0c1.59,0 2.98,-0.0001 4.106,0.5716l5.895,0.7621l0.728,0.508c3.577,0.5081 6.558,2.4135 9.604,3.4933l0.53,0.4444l1.854,0.8257l0.464,0.5082c3.179,1.5878 8.809,6.5417 10.001,10.4794l0.398,0.6352c1.324,4.4458 0.993,5.9065 0,10.2889l-0.398,0.8256l-1.656,3.4295l2.451,-0.9526l0.53,-0.4444l19.538,-9.654l0.53,-0.4446l4.636,-2.2228l0.53,-0.4446l4.636,-2.2229l0.53,-0.508c0.199,-0.9527 -5.828,-5.7163 -7.153,-6.923l-0.464,-0.635c-1.589,-1.2702 -3.841,-3.1757 -5.696,-4.2554l-0.463,-0.508c-1.855,-1.0162 -3.444,-2.604 -5.232,-3.4297l-0.464,-0.508l-4.703,-2.604l-0.463,-0.5082l-6.16,-3.0484l-0.596,-0.4447l-7.881,-3.1122l-0.663,-0.381l-4.768,-1.2702l-0.729,-0.5082l-0.861,0l-0.927,-0.381l-0.861,0l-0.861,-0.508c-3.908,-0.3811 -8.147,-1.5878 -12.518,-1.9689c-5.232,-0.4446 -10.332,0.127 -15.035,-0.2541l-1.854,0.4446l0.066,0.0634z" clip-rule="evenodd" fill-rule="evenodd"/>
  <path fill="#A9DCFC" d="m199.55404,212.957l0.331,116.545l63.383,-35.059l0,-116.798l-63.714,35.312z"/>
  <path fill="#A9DCFC" d="m331.88504,256.462l-0.331,-116.6077l-63.384,35.1217l0,116.735l63.715,-35.249z"/>
  <path fill="#A9DCFC" d="m268.17004,174.977l-4.901,2.667l0,116.798l4.901,-2.731l0,-116.734z"/>
  <path fill="url(#svg_1)" d="m268.17004,174.977l-4.901,2.667l0,116.798l4.901,-2.731l0,-116.734z"/>
  <path stroke-miterlimit="10" stroke-width="3" stroke="black" d="m-145.01496,93.498l1,200"/>
  <path fill="#40BE46" d="m-406.94306,104.0542c1.4756,1.5918 4.042,1.4592 5.5818,0.597c1.5398,-0.8623 1.219,-3.3163 -0.2567,-5.4387c-0.8982,-1.3265 -3.657,-1.9234 -5.4535,0c-1.7964,1.8571 -0.8982,3.7805 0.1284,4.8417zm-43.4356,-23.081c4.6836,2.9846 7.7633,7.4947 11.3562,3.4489c1.1548,-1.3265 2.6946,-3.8469 0.1283,-8.7549c-1.8607,-3.5816 -8.084,-5.04071 -10.2013,-3.6479c-2.1814,1.3265 -4.8761,6.6325 -1.219,8.8876m52.6102,1.5918c2.6305,0.7958 3.7854,3.3825 5.9668,0.4642c1.0907,-1.3928 1.219,-3.3162 -0.2566,-5.4386c-0.8983,-1.3265 -5.1969,-2.2551 -6.9934,-0.3316c-1.7964,1.9234 -0.1924,4.8417 1.2191,5.306m170.0854,28.9839c-1.733,2.3877 -1.797,4.0458 -0.578,5.306c1.283,1.3928 3.978,2.5867 5.967,0.9949c1.925,-1.5918 1.925,-3.9132 0.321,-5.9692c-1.668,-2.0561 -3.914,-2.0561 -5.71,-0.398m1.475,-24.5402c1.989,1.9897 7.379,0.6632 8.598,-0.7959c3.207,-3.7142 3.336,-5.9692 1.668,-8.4233c-1.668,-2.454 -5.133,-2.056 -8.598,0.597c-3.464,2.5866 -2.823,7.4947 -1.668,8.6222zm-82.957,-8.7549c0.641,4.8417 1.411,4.7091 3.08,5.1733c1.668,0.4643 3.785,-2.255 3.849,-4.908c0.064,-2.653 -1.091,-4.3111 -3.593,-4.1785c-2.502,0.0664 -3.4,1.3929 -3.336,3.9795m-59.668,59.4935c-4.4909,-2.0561 -9.1745,-9.8824 -10.971,-13.066c5.0044,-5.0407 3.0155,-13.5303 0.1284,-18.1731c-2.823,-4.6427 -6.2235,-3.3162 -10.0088,-7.6273c-3.7854,-4.2448 1.4115,-15.4537 6.2234,-6.8315c18.029,32.1013 29.898,18.77 44.654,16.8465c14.18,-1.8571 26.626,6.1682 30.476,-16.4485c0.642,-3.7142 4.106,-4.5765 4.427,1.5254c0.385,6.1019 2.566,20.9587 10.329,22.8821c7.764,1.9234 13.923,-1.8571 15.784,-3.9795c1.796,-2.1224 2.758,-1.7907 3.592,3.4489c0.77,5.2397 2.759,12.4691 13.666,4.4438c22.328,-16.4486 15.976,-22.8158 24.637,-27.0606c4.94,-2.3877 12.704,5.4387 1.476,11.3416c-16.104,8.4233 -17.836,18.9026 -27.973,25.5351c-17.131,11.1426 -11.87,0.4643 -39.394,-3.5816c-10.586,-1.5918 -13.986,10.6783 -22.263,7.1631c-19.119,-8.1579 -32.4,-6.5661 -44.783,3.7805m100.601,32.6981c-18.093,12.138 -73.911,16.648 -97.97,1.128c-18.863,-12.1378 -12.383,-31.4384 -66.2764,-73.9526c-7.0574,-5.5713 1.2832,-11.4742 6.6084,-7.6937c5.261,3.7805 0.4491,4.7754 11.0995,15.7853c21.4932,22.2189 21.3007,2.2551 24.7011,9.8161c7.1216,15.918 22.9044,31.9023 22.9044,31.9023c15.783,10.612 28.359,12.9333 51.648,-3.3163c14.757,-10.3467 8.726,16.4486 44.911,-2.8519c13.217,-7.0305 12.64,-2.3877 26.049,-21.6883c5.582,-8.0253 16.232,6.1682 4.17,8.158c-4.812,0.7959 -12.96,6.2345 -16.489,14.8568c-4.94,12.7343 -2.823,22.2183 -11.292,27.8563m38.816,0.796c0,-7.03 -5.838,-13.5303 -15.718,-18.9026c2.309,2.9183 3.592,6.0356 3.592,9.2196c0,16.979 -35.03,30.774 -78.209,30.774c-43.179,0 -78.2097,-13.795 -78.2097,-30.774c0,-2.1891 0.5774,-4.2452 1.6681,-6.3013c-6.9292,4.7754 -10.907,10.2143 -10.907,15.9843c0,18.372 39.7786,33.295 88.9246,33.295c49.145,0 88.924,-14.923 88.924,-33.295m21.172,10.413c0,-6.699 -3.978,-12.933 -10.779,-17.974c0.642,2.056 0.963,4.112 0.963,6.235c0,19.167 -25.92,35.55 -62.619,42.381c4.17,0.464 8.469,0.73 12.896,0.73c32.913,0 59.539,-14.061 59.539,-31.372zm-189.1402,-39.8612c-17.9003,4.5101 -30.0904,13.3976 -30.0904,23.6112c0,6.301 4.6835,12.138 12.4468,16.714c-2.3739,-3.847 -3.5929,-7.959 -3.5929,-12.137c0,-10.6121 7.9557,-20.3619 21.2365,-28.1219m180.3502,97.6299l-5.967,-9.882c-3.336,3.25 -7.378,5.107 -11.356,5.107c-1.796,0 -2.758,-0.265 -6.736,-1.26c-3.978,-1.194 -6.737,-1.526 -9.817,-1.526c-13.986,0 -23.097,7.893 -23.097,20.163c0,8.821 3.85,14.326 11.741,16.515c-3.208,0.796 -6.736,2.587 -8.34,4.51c-1.155,1.393 -1.733,3.25 -1.733,5.439c0,1.857 0.449,3.515 1.091,4.908c0.77,1.26 1.797,2.321 3.08,2.918c2.566,1.061 6.736,1.724 13.152,1.857c3.336,0 5.325,0.133 6.095,0.133c3.978,0.265 5.967,0.928 7.507,1.724c1.476,0.929 2.566,3.051 2.566,5.373c0,2.321 -1.411,4.642 -3.4,6.035c-1.925,1.393 -5.005,1.99 -9.111,1.99c-6.608,0 -10.265,-2.52 -10.265,-7.296c0,-2.122 0.192,-2.587 0.641,-3.847l-13.28,0c-0.514,1.128 -1.284,2.786 -1.284,6.036c0,4.046 1.476,7.561 4.492,10.612c4.94,4.974 12.96,6.367 20.723,6.367c8.533,0 16.809,-2.122 21.621,-7.694c3.016,-3.515 4.363,-7.362 4.363,-12.336c0,-5.372 -1.475,-9.418 -4.683,-12.668c-3.85,-3.847 -8.213,-5.24 -16.553,-5.372l-7.699,-0.133c-1.476,0 -2.374,-0.597 -2.374,-1.393c0,-1.592 2.053,-3.051 5.646,-4.908c1.09,0.133 1.475,0.133 2.117,0.133c11.677,0 20.21,-7.429 20.21,-17.709c0,-3.98 -1.091,-6.964 -3.208,-9.816c1.796,0.265 2.374,0.331 3.721,0.331c3.978,0 6.929,-1.26 10.073,-4.443m-25.343,12.668c0,5.505 -3.079,8.489 -8.789,8.489c-5.005,0 -8.469,-2.454 -8.469,-8.489c0,-5.572 3.079,-8.821 8.533,-8.821c5.453,0 8.661,3.249 8.661,8.821m-41.061,33.427c4.683,-5.836 6.865,-12.8 6.865,-23.081c0,-9.683 -1.925,-16.183 -6.288,-21.754c-4.684,-6.036 -10.779,-8.954 -18.606,-8.954c-14.757,0 -24.573,12.469 -24.573,31.173c0,18.703 9.752,30.841 24.573,30.841c8.469,0 13.922,-3.117 18.093,-8.291m-8.79,-23.147c0,14.061 -2.695,20.163 -8.854,20.163c-2.759,0 -5.967,-1.592 -7.25,-4.908c-1.155,-3.051 -1.796,-8.158 -1.796,-14.99c0,-5.903 0.513,-10.148 1.475,-13.265c1.155,-3.714 3.978,-6.035 7.379,-6.035c2.566,0 4.811,1.193 6.223,3.117c1.925,2.653 2.887,7.959 2.887,15.918m-136.4657,40.856l6.9292,8.357c6.7367,-2.786 15.2056,-9.087 17.3229,-18.969c0.7699,-3.25 1.0265,-5.372 1.0265,-15.852l0,-64.799l-15.2056,0l0,66.524c0,8.755 -0.3208,12.005 -1.4757,14.923c-1.4115,3.25 -4.8119,7.229 -8.6614,9.75m35.0949,-91.396l-1.5399,0l0,80.651l15.0132,0l0,-35.749l18.9266,0l0,-13.265l-18.9266,0l0,-18.505l23.6106,0l0.898,-7.03c-14.2432,-1.128 -27.1391,-3.449 -37.9819,-6.102zm49.7869,19.698l-12.831,3.715c1.154,3.382 2.053,9.418 2.053,17.443l0,39.795l14.371,0l0,-42.116c2.695,-3.383 5.582,-5.041 8.79,-5.041c1.604,0 2.759,0.332 4.17,1.127l3.978,-13.729c-2.245,-1.061 -3.208,-1.26 -5.389,-1.26c-1.604,0 -3.529,0.332 -4.684,0.929c-2.695,1.392 -6.095,4.51 -8.148,7.561c-0.192,-3.383 -0.962,-6.036 -2.246,-8.49"/>

 </g>
 <defs>
  <linearGradient gradientTransform="matrix(1,0,0,1,-301.1149597167969,66.49800109863281)" gradientUnits="userSpaceOnUse" y2="169.354" x2="480.462" y1="166.592" x1="375.888" id="svg_3">
   <stop stop-color="#0086FD"/>
   <stop stop-color="#21AFFF" offset="1"/>
  </linearGradient>
  <linearGradient gradientTransform="matrix(1,0,0,1,-301.1149597167969,66.49800109863281)" gradientUnits="userSpaceOnUse" y2="76.5953" x2="582.136" y1="76.5953" x1="442.983" id="svg_2">
   <stop stop-color="#0086FD"/>
   <stop stop-color="#21AFFF" offset="1"/>
  </linearGradient>
  <linearGradient gradientTransform="matrix(1,0,0,1,-301.1149597167969,66.49800109863281)" gradientUnits="userSpaceOnUse" y2="168.18" x2="569.285" y1="168.18" x1="564.384" id="svg_1">
   <stop stop-color="#0086FD"/>
   <stop stop-color="#21AFFF" offset="1"/>
  </linearGradient>
 </defs>
</svg>