<?xml version="1.0" encoding="utf-8"?>
<!-- Generator: Adobe Illustrator 24.0.0, SVG Export Plug-In . SVG Version: 6.00 Build 0)  -->
<svg version="1.1" id="Layer_1" xmlns="http://www.w3.org/2000/svg" xmlns:xlink="http://www.w3.org/1999/xlink" x="0px" y="0px"
	 viewBox="0 0 551 118" style="enable-background:new 0 0 551 118;" xml:space="preserve">
<style type="text/css">
	.st0{fill-rule:evenodd;clip-rule:evenodd;fill:#6699CB;}
	.st1{clip-path:url(#SVGID_2_);fill:url(#SVGID_3_);}
	.st2{fill-rule:evenodd;clip-rule:evenodd;fill:#7BA7D3;}
	.st3{fill-rule:evenodd;clip-rule:evenodd;fill:#2F6799;}
	.st4{fill:#4CB74A;}
	.st5{fill:none;stroke:#CFCFCF;stroke-width:3;stroke-miterlimit:10;}
</style>
<g>
	<polygon class="st0" points="198.7,59.75 147.62,30.13 147.62,77.62 198.7,111.27 	"/>
	<g>
		<defs>
			<polygon id="SVGID_1_" points="147.49,30.14 198.7,59.75 249.78,32.51 197.39,6.73 			"/>
		</defs>
		<clipPath id="SVGID_2_">
			<use xlink:href="#SVGID_1_"  style="overflow:visible;"/>
		</clipPath>
		<linearGradient id="SVGID_3_" gradientUnits="userSpaceOnUse" x1="223.5921" y1="47.6611" x2="192.6245" y2="29.7692">
			<stop  offset="0" style="stop-color:#AFD5E6"/>
			<stop  offset="1" style="stop-color:#AFD5E6"/>
		</linearGradient>
		<rect x="147.49" y="6.73" class="st1" width="102.3" height="53.01"/>
	</g>
	<polygon class="st2" points="198.7,59.75 249.78,32.51 249.78,79.99 198.7,111.27 	"/>
	<path class="st0" d="M198.93,19.49l-2.96,0.33L195.54,20l-0.47,0.01l-0.42,0.18l-2.31,0.55l-0.33,0.14l-0.31,0.01l-0.28,0.23
		l-4.27,1.58l-0.22,0.17c-1.93,0.75-3.49,1.8-5.16,2.66l-0.19,0.2c-1.5,0.84-2.03,1.28-3.08,2.32l-0.25,0.17l-1.06,1.42l-0.21,0.18
		l-0.35,0.71l-0.19,0.2c-1.2,2.75-1.18,3.19-0.93,6.4l0.21,0.32v0.33l0.15,0.29l0.4,0.99l0.17,0.23l0.18,0.51l0.21,0.18
		c0.61,1.1,1.37,1.97,2.1,2.77c0.41,0.45,2.16,1.87,2.85,2.22l0.19,0.21c1.4,0.67,2.44,1.51,4.22,2.13l0.24,0.16l3.45,1.08
		l0.39,0.19c1.19,0.13,2.44,0.48,3.76,0.65c1.44,0.19,2.2-0.5,3.4-1.02l0.23-0.17h0.16l0.23-0.17l5.47-2.52l0.23-0.17h0.16
		l0.23-0.17l3.15-1.49l-0.28-0.12c-1.85-0.08-4.04,0.2-6.04,0.15c-2.01-0.05-3.87-0.42-5.71-0.5l-0.39-0.19
		c-1.33-0.13-2.66-0.69-3.81-1.08l-0.25-0.16c-1.85-0.66-3.55-2.12-4.35-3.63c-1.27-2.4-0.48-4.18,0.48-6.21l0.21-0.18l0.17-0.33
		l0.22-0.18c0.99-1.41,3.43-3.37,5.83-4.13l0.25-0.16l2.54-0.72l0.37-0.19l0.39,0.02l0.39-0.19l1.69-0.14
		c0.41-0.27,0.62-0.23,1.2-0.24l3.93,0c0.62-0.02,1.16-0.02,1.6,0.23l2.29,0.31l0.28,0.22c1.39,0.2,2.55,0.97,3.72,1.4l0.2,0.19
		l0.73,0.34l0.19,0.2c1.23,0.65,3.41,2.65,3.87,4.24l0.16,0.26c0.52,1.8,0.39,2.4-0.01,4.17L217,37.39l-0.64,1.38l0.96-0.39
		l0.21-0.18l7.56-3.91l0.21-0.18l1.81-0.89l0.21-0.18l1.81-0.89l0.21-0.2c0.07-0.39-2.27-2.32-2.77-2.79l-0.18-0.25
		c-0.61-0.52-1.49-1.28-2.21-1.73l-0.18-0.22c-0.72-0.41-1.33-1.05-2.03-1.39l-0.19-0.2l-1.83-1.05l-0.19-0.2l-2.38-1.24l-0.23-0.17
		l-3.07-1.27l-0.26-0.16l-1.85-0.52l-0.29-0.22h-0.32L211,20.38h-0.34l-0.32-0.21c-1.51-0.14-3.17-0.63-4.86-0.79
		c-2.03-0.18-4.01,0.05-5.83-0.11L198.93,19.49z"/>
	<polygon class="st3" points="225.14,45.65 227.05,44.63 227.05,93.91 225.14,95.08 	"/>
</g>
<g id="Layer_x0020_1_7_">
	<g>
		<path class="st4" d="M46.89,73.37l-5.07,1.39c0.49,1.31,0.82,3.6,0.82,6.7v15.28h5.72v-16.1c1.06-1.31,2.21-1.88,3.51-1.88
			c0.65,0,1.06,0.16,1.63,0.41l1.55-5.23c-0.9-0.41-1.31-0.49-2.12-0.49c-0.65,0-1.39,0.16-1.88,0.33
			c-1.06,0.57-2.45,1.72-3.19,2.86C47.62,75.33,47.38,74.35,46.89,73.37z M27.11,65.85h-0.65v30.89h5.97V83.09h7.52v-5.07h-7.52
			v-7.11h9.4l0.33-2.7C36.51,67.81,31.44,66.83,27.11,65.85z M13.22,100.91l2.78,3.19c2.7-1.06,6.05-3.51,6.86-7.27
			c0.33-1.23,0.41-2.04,0.41-6.05V65.93h-6.05v25.5c0,3.35-0.16,4.58-0.57,5.72C16.08,98.37,14.77,99.93,13.22,100.91z M67.24,85.22
			c0,5.39-1.06,7.68-3.51,7.68c-1.14,0-2.37-0.65-2.86-1.88c-0.49-1.14-0.74-3.11-0.74-5.72c0-2.29,0.25-3.84,0.57-5.07
			c0.49-1.39,1.55-2.29,2.94-2.29c0.98,0,1.88,0.41,2.45,1.23C66.91,80.15,67.24,82.11,67.24,85.22z M70.75,94.12
			c1.88-2.21,2.7-4.9,2.7-8.83c0-3.68-0.74-6.21-2.53-8.34c-1.88-2.29-4.25-3.43-7.35-3.43c-5.88,0-9.72,4.74-9.72,11.93
			c0,7.19,3.84,11.85,9.72,11.85C66.91,97.31,69.12,96.08,70.75,94.12z M87.01,81.29c0,2.12-1.23,3.27-3.51,3.27
			c-1.96,0-3.35-0.9-3.35-3.27c0-2.12,1.23-3.35,3.43-3.35S87.01,79.17,87.01,81.29z M97.06,76.47l-2.37-3.76
			c-1.31,1.23-2.94,1.96-4.49,1.96c-0.74,0-1.14-0.08-2.7-0.49c-1.55-0.41-2.7-0.57-3.92-0.57c-5.56,0-9.15,3.02-9.15,7.68
			c0,3.35,1.55,5.48,4.66,6.37c-1.31,0.33-2.7,0.98-3.27,1.72c-0.49,0.57-0.65,1.23-0.65,2.12c0,0.74,0.16,1.31,0.41,1.88
			c0.33,0.49,0.74,0.9,1.23,1.14c0.98,0.41,2.7,0.65,5.23,0.74c1.31,0,2.12,0.08,2.45,0.08c1.55,0.08,2.37,0.33,2.94,0.65
			c0.57,0.33,0.98,1.14,0.98,2.04c0,0.9-0.57,1.8-1.39,2.29c-0.74,0.57-1.96,0.74-3.6,0.74c-2.62,0-4.09-0.98-4.09-2.78
			c0-0.82,0.08-0.98,0.25-1.47h-5.23c-0.25,0.41-0.49,1.06-0.49,2.29c0,1.55,0.57,2.86,1.8,4.09c1.96,1.88,5.15,2.45,8.25,2.45
			c3.35,0,6.62-0.82,8.58-2.94c1.23-1.31,1.72-2.78,1.72-4.74c0-2.04-0.57-3.6-1.88-4.9c-1.55-1.47-3.27-2.04-6.54-2.04l-3.02-0.08
			c-0.57,0-0.9-0.25-0.9-0.57c0-0.65,0.82-1.14,2.29-1.88c0.41,0.08,0.57,0.08,0.82,0.08c4.66,0,8.01-2.86,8.01-6.78
			c0-1.55-0.41-2.7-1.31-3.76c0.74,0.08,0.9,0.16,1.47,0.16C94.7,78.11,95.84,77.62,97.06,76.47z M25.64,39.04
			c-7.11,1.72-11.93,5.15-11.93,9.07c0,2.45,1.88,4.66,4.9,6.37c-0.9-1.47-1.47-3.02-1.47-4.66C17.23,45.75,20.33,41.99,25.64,39.04
			z M100.58,54.33c0-2.53-1.55-4.9-4.25-6.86c0.25,0.82,0.41,1.55,0.41,2.37c0,7.35-10.3,13.65-24.84,16.26
			c1.63,0.16,3.35,0.33,5.07,0.33C90.04,66.34,100.58,60.95,100.58,54.33z M92.16,50.32c0-2.7-2.29-5.23-6.21-7.27
			c0.9,1.14,1.39,2.29,1.39,3.51c0,6.54-13.89,11.77-30.97,11.77S25.4,53.02,25.4,46.56c0-0.82,0.25-1.63,0.65-2.45
			c-2.78,1.8-4.33,3.92-4.33,6.13c0,7.03,15.77,12.75,35.22,12.75S92.16,57.35,92.16,50.32z M76.8,50
			c-7.19,4.66-29.26,6.37-38.82,0.41c-7.44-4.66-4.9-12.09-26.23-28.36c-2.78-2.12,0.49-4.41,2.62-2.94
			c2.12,1.47,0.16,1.8,4.41,6.05c8.5,8.5,8.42,0.9,9.81,3.76c2.86,6.13,9.07,12.26,9.07,12.26c6.29,4.09,11.28,4.98,20.43-1.31
			c5.88-3.92,3.43,6.29,17.81-1.06c5.23-2.7,4.98-0.9,10.3-8.34c2.21-3.11,6.46,2.37,1.63,3.11c-1.88,0.33-5.15,2.37-6.54,5.72
			C79.33,44.19,80.15,47.79,76.8,50z M36.92,37.41c-1.8-0.82-3.6-3.84-4.33-4.98c1.96-1.96,1.14-5.23,0.08-6.95
			c-1.14-1.8-2.45-1.31-4-2.94c-1.47-1.63,0.57-5.88,2.45-2.62c7.11,12.34,11.85,7.19,17.65,6.46c5.64-0.74,10.54,2.37,12.09-6.29
			c0.25-1.39,1.63-1.72,1.8,0.57c0.16,2.37,0.98,8.01,4.09,8.74c3.11,0.74,5.56-0.74,6.29-1.55c0.74-0.82,1.06-0.65,1.39,1.31
			c0.33,2.04,1.06,4.74,5.39,1.72c8.83-6.29,6.29-8.74,9.72-10.38c1.96-0.9,5.07,2.04,0.57,4.33c-6.37,3.19-7.03,7.27-11.11,9.81
			c-6.78,4.25-4.74,0.16-15.61-1.39c-4.17-0.57-5.56,4.09-8.83,2.7C47.13,32.83,41.82,33.49,36.92,37.41z M60.62,14.61
			c0.25,1.88,0.57,1.8,1.23,1.96c0.65,0.16,1.47-0.9,1.55-1.88c0-0.98-0.41-1.63-1.39-1.63C60.95,13.14,60.54,13.63,60.62,14.61z
			 M93.47,18.04c0.82,0.74,2.94,0.25,3.43-0.33c1.31-1.39,1.31-2.29,0.65-3.27c-0.65-0.98-2.04-0.82-3.43,0.25
			C92.73,15.67,92.98,17.55,93.47,18.04z M92.9,27.36c-0.65,0.9-0.74,1.55-0.25,2.04c0.49,0.57,1.55,0.98,2.37,0.41
			c0.74-0.57,0.74-1.47,0.08-2.29C94.45,26.79,93.55,26.79,92.9,27.36z M25.48,16.33c1.06,0.33,1.47,1.31,2.37,0.16
			c0.41-0.57,0.49-1.23-0.08-2.04c-0.33-0.49-2.04-0.82-2.78-0.16C24.25,15.02,24.91,16.08,25.48,16.33z M4.64,15.67
			c1.88,1.14,3.11,2.86,4.49,1.31c0.49-0.49,1.06-1.47,0.08-3.35c-0.74-1.39-3.19-1.88-4.09-1.39C4.23,12.73,3.17,14.77,4.64,15.67z
			 M21.8,24.5c0.57,0.65,1.63,0.57,2.21,0.25c0.57-0.33,0.49-1.31-0.08-2.04c-0.33-0.49-1.47-0.74-2.12,0
			C21.07,23.35,21.39,24.09,21.8,24.5z"/>
	</g>
</g>
<line class="st5" x1="124.21" y1="14.81" x2="124.2" y2="103.14"/>
<g>
	<g>
		<path d="M286.85,49.2l0,4.87c0,5.86-2.93,9.22-8.59,9.22s-8.59-3.35-8.59-9.22l0-19.06c0-5.86,2.93-9.22,8.59-9.21
			c5.66,0,8.59,3.35,8.59,9.22v3.56l-5.45,0v-3.93c0-2.62-1.15-3.61-2.98-3.61c-1.83,0-2.98,0.99-2.99,3.61l0,19.79
			c0,2.62,1.15,3.56,2.98,3.56c1.83,0,2.98-0.94,2.98-3.56l0-5.24L286.85,49.2z"/>
		<path d="M289.89,35.01c0-5.86,3.09-9.22,8.75-9.21c5.66,0,8.74,3.35,8.74,9.22l0,19.06c0,5.86-3.09,9.22-8.75,9.22
			c-5.66,0-8.74-3.35-8.74-9.22L289.89,35.01z M295.64,54.44c0,2.62,1.15,3.61,2.98,3.61c1.83,0,2.98-0.99,2.98-3.61l0-19.79
			c0-2.62-1.15-3.61-2.98-3.61c-1.83,0-2.98,0.99-2.99,3.61L295.64,54.44z"/>
		<path d="M316.22,36.32l0,26.55l-5.18,0l0-36.65l7.23,0l5.91,21.94l0-21.94l5.13,0l0,36.65l-5.92,0L316.22,36.32z"/>
		<path d="M352.09,62.88l-5.81,0l-0.99-6.65l-7.07,0l-1,6.65l-5.29,0l5.87-36.65l8.43,0L352.09,62.88z M338.95,51.25l5.55,0
			l-2.77-18.54L338.95,51.25z"/>
		<path d="M359.89,36.33l0,26.55l-5.18,0l0-36.65l7.23,0l5.91,21.94l0-21.94l5.13,0l0,36.65l-5.92,0L359.89,36.33z"/>
	</g>
</g>
<g>
	<g>
		<path d="M282.85,85.08l0.02,0.07c0.03,1.67-0.56,3.07-1.76,4.2c-1.21,1.13-2.8,1.69-4.79,1.69c-2.02,0-3.66-0.71-4.93-2.14
			c-1.27-1.43-1.9-3.24-1.9-5.44l0-3.17c0-2.2,0.63-4.01,1.9-5.44c1.27-1.43,2.91-2.15,4.93-2.15c2.02,0,3.62,0.54,4.81,1.61
			c1.19,1.07,1.77,2.5,1.74,4.27l-0.02,0.07l-2.31,0c0-1.25-0.37-2.24-1.1-2.96c-0.73-0.73-1.77-1.09-3.11-1.09
			c-1.35,0-2.42,0.54-3.22,1.63c-0.8,1.09-1.2,2.43-1.2,4.04l0,3.2c0,1.62,0.4,2.98,1.2,4.06c0.8,1.09,1.87,1.63,3.22,1.63
			c1.34,0,2.37-0.36,3.11-1.08c0.73-0.72,1.1-1.72,1.1-2.99L282.85,85.08z"/>
		<path d="M286.18,92.31h-2.06l7.45-19.35l2.04,0L286.18,92.31z"/>
		<path d="M309.13,85.08l0.02,0.07c0.03,1.67-0.56,3.07-1.76,4.2c-1.21,1.13-2.8,1.69-4.79,1.69c-2.02,0-3.66-0.71-4.93-2.14
			c-1.27-1.43-1.9-3.24-1.9-5.44l0-3.17c0-2.2,0.63-4.01,1.9-5.44c1.27-1.43,2.91-2.15,4.93-2.15c2.02,0,3.62,0.54,4.81,1.61
			c1.19,1.07,1.77,2.5,1.74,4.27l-0.02,0.07h-2.31c0-1.25-0.37-2.24-1.1-2.96c-0.73-0.73-1.77-1.09-3.11-1.09
			c-1.35,0-2.42,0.54-3.22,1.63c-0.8,1.09-1.2,2.43-1.2,4.04l0,3.2c0,1.62,0.4,2.98,1.2,4.06c0.8,1.09,1.87,1.63,3.22,1.63
			c1.34,0,2.37-0.36,3.11-1.08c0.73-0.72,1.1-1.72,1.1-2.99H309.13z"/>
		<path d="M318.5,81.2l4.88,0l0,2.18l-4.88,0l0,5.62h-2.41l0-5.62l-4.92,0l0-2.18l4.92,0l0-5.18h2.41L318.5,81.2z"/>
		<path d="M332.72,81.2l4.88,0l0,2.18l-4.88,0l0,5.62l-2.41,0l0-5.62l-4.92,0l0-2.18l4.92,0l0-5.18l2.41,0L332.72,81.2z"/>
		<path d="M349.39,83.64l0,7.15l-2.41,0l0-17.82l6.82,0c1.9,0,3.38,0.49,4.44,1.47c1.06,0.98,1.59,2.27,1.58,3.87
			c0,1.62-0.53,2.91-1.59,3.88c-1.06,0.97-2.54,1.46-4.44,1.46L349.39,83.64z M349.39,81.75l4.41,0c1.21,0,2.11-0.32,2.71-0.97
			c0.6-0.65,0.89-1.47,0.89-2.45c0-0.99-0.3-1.81-0.9-2.47c-0.6-0.66-1.5-0.99-2.7-0.99l-4.41,0L349.39,81.75z"/>
		<path d="M370.59,90.79c-0.08-0.4-0.15-0.75-0.19-1.06c-0.04-0.31-0.07-0.61-0.08-0.92c-0.45,0.64-1.03,1.17-1.76,1.6
			c-0.72,0.43-1.5,0.64-2.33,0.64c-1.38,0-2.43-0.35-3.15-1.06c-0.72-0.71-1.08-1.68-1.08-2.92c0-1.27,0.51-2.25,1.54-2.97
			c1.02-0.71,2.41-1.07,4.17-1.07l2.62,0v-1.31c0-0.78-0.24-1.39-0.71-1.84c-0.47-0.45-1.14-0.68-2.01-0.68
			c-0.78,0-1.42,0.2-1.9,0.59c-0.48,0.39-0.72,0.86-0.72,1.41l-2.29,0.02l-0.02-0.07c-0.06-0.96,0.39-1.84,1.35-2.64
			c0.96-0.8,2.2-1.2,3.72-1.2c1.5,0,2.71,0.38,3.62,1.14c0.91,0.76,1.37,1.86,1.37,3.3l0,6.38c0,0.47,0.02,0.93,0.07,1.37
			c0.05,0.44,0.14,0.87,0.27,1.3H370.59z M366.59,89.03c0.87,0,1.66-0.22,2.36-0.67c0.7-0.45,1.16-0.96,1.37-1.54v-2.15l-2.71,0
			c-0.97,0-1.75,0.25-2.33,0.73c-0.58,0.49-0.87,1.07-0.87,1.73c0,0.59,0.18,1.05,0.55,1.4C365.32,88.86,365.87,89.03,366.59,89.03z
			"/>
		<path d="M381.5,89.16c0.74,0,1.39-0.25,1.95-0.74c0.56-0.49,0.83-1.1,0.83-1.82l2.18,0l0.04,0.07c0.03,1.14-0.46,2.16-1.47,3.04
			c-1.01,0.89-2.19,1.33-3.53,1.33c-1.86,0-3.3-0.63-4.31-1.9c-1.01-1.26-1.52-2.84-1.52-4.73v-0.51c0-1.87,0.51-3.44,1.52-4.71
			c1.02-1.27,2.45-1.9,4.3-1.9c1.48,0,2.69,0.46,3.63,1.37c0.94,0.92,1.4,2.04,1.37,3.37l-0.02,0.07l-2.19,0
			c0-0.81-0.26-1.5-0.79-2.06c-0.53-0.57-1.19-0.85-1.99-0.85c-1.18,0-2.05,0.46-2.59,1.38c-0.54,0.92-0.81,2.03-0.81,3.34v0.51
			c0,1.33,0.27,2.45,0.8,3.37C379.43,88.71,380.3,89.16,381.5,89.16z"/>
		<path d="M393.02,84.68h-1.24l0,6.11l-2.41,0l0-19.1l2.41,0l0,11.07h1.21l3.98-5.21h2.89l-4.81,6.11l5.23,7.14h-2.85L393.02,84.68z
			"/>
		<path d="M410.35,90.79c-0.08-0.4-0.15-0.75-0.19-1.06c-0.04-0.31-0.07-0.61-0.08-0.92c-0.45,0.64-1.03,1.17-1.76,1.6
			c-0.72,0.43-1.5,0.64-2.33,0.64c-1.38,0-2.43-0.35-3.15-1.06c-0.72-0.71-1.08-1.68-1.08-2.92c0-1.27,0.51-2.25,1.54-2.97
			c1.02-0.71,2.41-1.07,4.17-1.07h2.62v-1.31c0-0.78-0.24-1.39-0.71-1.84c-0.47-0.45-1.14-0.68-2.01-0.68c-0.78,0-1.42,0.2-1.9,0.59
			c-0.48,0.39-0.72,0.86-0.72,1.41l-2.29,0.02l-0.02-0.07c-0.06-0.96,0.39-1.84,1.35-2.64c0.96-0.8,2.2-1.2,3.72-1.2
			c1.5,0,2.71,0.38,3.62,1.14c0.91,0.76,1.37,1.86,1.37,3.3l0,6.38c0,0.47,0.02,0.93,0.07,1.37c0.05,0.44,0.14,0.87,0.27,1.3
			L410.35,90.79z M406.35,89.03c0.87,0,1.66-0.22,2.36-0.67c0.7-0.45,1.16-0.96,1.37-1.54v-2.15h-2.71c-0.97,0-1.75,0.24-2.33,0.73
			c-0.58,0.49-0.87,1.07-0.87,1.73c0,0.59,0.18,1.05,0.55,1.4C405.09,88.86,405.63,89.03,406.35,89.03z"/>
		<path d="M415.57,84.42c0-2.13,0.46-3.85,1.37-5.15c0.91-1.31,2.18-1.96,3.81-1.96c0.84,0,1.58,0.17,2.22,0.51
			c0.64,0.34,1.17,0.83,1.6,1.46l0.29-1.73h1.92l0,13.32c0,1.7-0.49,3-1.48,3.91c-0.99,0.91-2.41,1.36-4.27,1.36
			c-0.64,0-1.32-0.09-2.06-0.26c-0.74-0.18-1.39-0.41-1.95-0.72l0.37-1.87c0.47,0.25,1.03,0.44,1.68,0.59
			c0.66,0.15,1.3,0.23,1.94,0.23c1.18,0,2.03-0.27,2.56-0.8c0.53-0.54,0.8-1.35,0.8-2.44v-1.51c-0.43,0.56-0.95,0.97-1.55,1.26
			c-0.6,0.29-1.3,0.43-2.09,0.43c-1.62,0-2.88-0.59-3.79-1.76c-0.91-1.17-1.36-2.71-1.36-4.62V84.42z M417.98,84.67
			c0,1.33,0.27,2.4,0.82,3.21c0.55,0.81,1.39,1.21,2.53,1.21c0.73,0,1.33-0.17,1.82-0.5c0.49-0.33,0.89-0.8,1.21-1.4l0-6.1
			c-0.31-0.56-0.71-1.01-1.21-1.34c-0.5-0.33-1.1-0.5-1.8-0.5c-1.15,0-2,0.48-2.55,1.43c-0.55,0.96-0.83,2.19-0.83,3.72V84.67z"/>
		<path d="M435.73,91.05c-1.9,0-3.38-0.61-4.45-1.82c-1.06-1.22-1.6-2.82-1.6-4.8v-0.54c0-1.9,0.55-3.47,1.65-4.72
			c1.1-1.24,2.44-1.87,4.02-1.87c1.77,0,3.1,0.55,3.98,1.65s1.33,2.57,1.33,4.4l0,1.27l-8.47,0l-0.04,0.06
			c0,1.33,0.29,2.41,0.88,3.24c0.59,0.83,1.48,1.24,2.69,1.24c0.82,0,1.53-0.12,2.15-0.35c0.62-0.23,1.14-0.55,1.59-0.96l0.94,1.57
			c-0.47,0.46-1.1,0.84-1.87,1.16C437.76,90.9,436.82,91.05,435.73,91.05z M435.35,79.2c-0.84,0-1.54,0.32-2.09,0.97
			c-0.55,0.65-0.89,1.48-1.01,2.49l0.02,0.06l5.97,0v-0.2c0-0.96-0.24-1.76-0.71-2.39C437.07,79.52,436.34,79.2,435.35,79.2z"/>
		<path d="M458.77,87.46h0.07l5.69-14.48l3,0l0,17.82l-2.41,0l0-13.36l-0.07-0.01l-5.4,13.37h-1.68l-5.56-13.81L452.34,77l0,13.8
			l-2.41,0l0-17.82l3.17,0L458.77,87.46z"/>
		<path d="M479.52,90.8c-0.08-0.4-0.15-0.75-0.19-1.06c-0.05-0.31-0.07-0.61-0.08-0.92c-0.45,0.64-1.03,1.17-1.76,1.6
			c-0.72,0.43-1.5,0.64-2.33,0.64c-1.38,0-2.43-0.35-3.15-1.06c-0.72-0.71-1.08-1.68-1.08-2.92c0-1.27,0.51-2.25,1.54-2.97
			c1.02-0.71,2.41-1.07,4.17-1.07l2.62,0v-1.31c0-0.78-0.24-1.39-0.71-1.84c-0.47-0.45-1.14-0.68-2.01-0.68
			c-0.78,0-1.42,0.2-1.9,0.59c-0.48,0.39-0.72,0.86-0.72,1.41l-2.29,0.02l-0.02-0.07c-0.06-0.96,0.39-1.84,1.35-2.64
			c0.96-0.8,2.2-1.2,3.72-1.2c1.5,0,2.71,0.38,3.62,1.14c0.91,0.76,1.37,1.86,1.37,3.3l0,6.38c0,0.47,0.02,0.93,0.07,1.37
			c0.05,0.44,0.14,0.87,0.27,1.3H479.52z M475.52,89.04c0.87,0,1.66-0.22,2.36-0.67c0.7-0.45,1.16-0.96,1.37-1.54v-2.15l-2.71,0
			c-0.97,0-1.75,0.25-2.33,0.73c-0.58,0.49-0.87,1.07-0.87,1.73c0,0.59,0.18,1.05,0.55,1.4C474.25,88.87,474.8,89.04,475.52,89.04z"
			/>
		<path d="M487.32,77.56l0.17,1.97c0.44-0.7,0.99-1.25,1.66-1.63c0.67-0.39,1.42-0.58,2.27-0.58c1.43,0,2.53,0.42,3.32,1.26
			c0.78,0.84,1.18,2.13,1.18,3.87l0,8.36l-2.41,0l0-8.31c0-1.17-0.23-2-0.69-2.48s-1.16-0.73-2.11-0.73c-0.74,0-1.37,0.15-1.89,0.45
			c-0.52,0.3-0.93,0.72-1.23,1.25l0,9.83h-2.41l0-13.25H487.32z"/>
		<path d="M507.55,90.8c-0.08-0.4-0.15-0.75-0.19-1.06c-0.04-0.31-0.07-0.61-0.08-0.92c-0.45,0.64-1.03,1.17-1.76,1.6
			c-0.72,0.43-1.5,0.64-2.33,0.64c-1.38,0-2.43-0.35-3.15-1.06c-0.72-0.71-1.08-1.68-1.08-2.92c0-1.27,0.51-2.25,1.54-2.97
			c1.02-0.71,2.41-1.07,4.17-1.07l2.62,0v-1.31c0-0.78-0.24-1.39-0.71-1.84c-0.47-0.45-1.14-0.68-2.01-0.68
			c-0.78,0-1.42,0.2-1.9,0.59c-0.48,0.39-0.72,0.86-0.72,1.41l-2.29,0.02l-0.02-0.07c-0.06-0.96,0.39-1.84,1.35-2.64
			c0.96-0.8,2.2-1.2,3.72-1.2c1.5,0,2.71,0.38,3.62,1.14c0.91,0.76,1.37,1.86,1.37,3.3l0,6.38c0,0.47,0.02,0.93,0.07,1.37
			c0.05,0.44,0.14,0.87,0.27,1.3H507.55z M503.55,89.04c0.87,0,1.66-0.22,2.36-0.67c0.7-0.45,1.16-0.96,1.37-1.54v-2.15l-2.71,0
			c-0.97,0-1.75,0.25-2.33,0.73c-0.58,0.49-0.87,1.07-0.87,1.73c0,0.59,0.18,1.05,0.55,1.4C502.29,88.87,502.83,89.04,503.55,89.04z
			"/>
		<path d="M512.77,84.43c0-2.13,0.46-3.85,1.37-5.15c0.91-1.31,2.18-1.96,3.81-1.96c0.84,0,1.58,0.17,2.22,0.51
			c0.64,0.34,1.17,0.83,1.6,1.46l0.29-1.73h1.92l0,13.32c0,1.7-0.49,3-1.48,3.91c-0.99,0.91-2.41,1.36-4.27,1.36
			c-0.64,0-1.32-0.09-2.06-0.26c-0.74-0.18-1.39-0.41-1.95-0.72l0.37-1.87c0.47,0.25,1.03,0.44,1.68,0.59
			c0.66,0.15,1.3,0.23,1.94,0.23c1.18,0,2.03-0.27,2.56-0.8c0.53-0.53,0.8-1.35,0.8-2.44v-1.51c-0.43,0.56-0.95,0.97-1.55,1.26
			c-0.6,0.29-1.3,0.43-2.09,0.43c-1.62,0-2.88-0.59-3.79-1.76c-0.91-1.17-1.36-2.71-1.36-4.62V84.43z M515.18,84.68
			c0,1.33,0.27,2.4,0.82,3.21c0.55,0.81,1.39,1.21,2.53,1.21c0.73,0,1.33-0.17,1.82-0.5c0.49-0.33,0.89-0.8,1.21-1.4l0-6.1
			c-0.31-0.56-0.71-1.01-1.21-1.34c-0.5-0.33-1.1-0.5-1.8-0.5c-1.15,0-2,0.48-2.55,1.43c-0.55,0.95-0.83,2.19-0.83,3.72V84.68z"/>
		<path d="M532.93,91.06c-1.9,0-3.38-0.61-4.45-1.82c-1.06-1.22-1.6-2.82-1.6-4.8V83.9c0-1.9,0.55-3.47,1.65-4.72
			c1.1-1.24,2.44-1.87,4.02-1.87c1.77,0,3.1,0.55,3.98,1.65s1.33,2.57,1.33,4.4l0,1.27l-8.47,0l-0.04,0.06
			c0,1.33,0.29,2.41,0.88,3.24c0.59,0.83,1.48,1.24,2.69,1.24c0.82,0,1.53-0.12,2.15-0.35c0.62-0.23,1.14-0.55,1.59-0.96l0.94,1.57
			c-0.47,0.46-1.1,0.84-1.87,1.16C534.96,90.91,534.02,91.06,532.93,91.06z M532.55,79.21c-0.84,0-1.54,0.32-2.09,0.97
			c-0.55,0.65-0.89,1.48-1.01,2.49l0.02,0.06l5.97,0v-0.2c0-0.96-0.24-1.76-0.71-2.39C534.27,79.53,533.54,79.21,532.55,79.21z"/>
		<path d="M546.84,79.69l-1.24-0.07c-0.64,0-1.17,0.15-1.61,0.45s-0.77,0.73-1.01,1.27l0,9.46l-2.41,0l0-13.25l2.15,0l0.23,1.93
			c0.38-0.69,0.84-1.22,1.39-1.6c0.55-0.38,1.19-0.58,1.9-0.58c0.18,0,0.35,0.01,0.51,0.04s0.3,0.06,0.4,0.09L546.84,79.69z"/>
	</g>
</g>
</svg>
