<svg width="248" height="64" viewBox="0 0 248 64" fill="none" xmlns="http://www.w3.org/2000/svg">
<path d="M87.4661 25.8165V28.8155C87.4661 32.4246 85.66 34.4936 82.1693 34.4936C78.6786 34.4936 76.8724 32.4309 76.8724 28.8155V17.0772C76.8724 13.4681 78.6786 11.3991 82.1693 11.4054C85.6589 11.4054 87.4661 13.4681 87.4661 17.0835V19.276H84.1054V16.8555C84.1054 15.2415 83.3962 14.6324 82.2675 14.6324C81.1388 14.6324 80.4297 15.2426 80.4244 16.8555V29.0435C80.4244 30.6575 81.1336 31.236 82.2623 31.236C83.391 31.236 84.1001 30.6575 84.1001 29.0435V25.8165H87.4661ZM89.3409 17.0772C89.3409 13.4681 91.2463 11.3991 94.736 11.4054C98.2256 11.4054 100.125 13.4681 100.125 17.0835V28.8218C100.125 32.4309 98.2193 34.4999 94.7297 34.4999C91.24 34.4999 89.3409 32.4373 89.3409 28.8218V17.0772ZM92.8865 29.0435C92.8865 30.6575 93.5957 31.2666 94.7244 31.2666C95.8531 31.2666 96.5622 30.6565 96.5622 29.0435V16.8555C96.5622 15.2415 95.8531 14.6324 94.7244 14.6324C93.5957 14.6324 92.8866 15.2426 92.8813 16.8555L92.8876 29.0435H92.8865ZM105.576 17.8847V34.236H102.382V11.6641H106.84L110.484 25.1758V11.6641H113.647V34.235H109.997L105.576 17.8837V17.8847ZM127.692 34.2413H124.109L123.499 30.1456H119.139L118.523 34.2413H115.262L118.881 11.6704H124.079L127.692 34.2413ZM119.59 27.079H123.012L121.305 15.6616L119.59 27.079ZM132.502 17.89V34.2413H129.308V11.6704H133.766L137.41 25.1821V11.6704H140.573V34.2413H136.922L132.502 17.89Z" fill="black"/>
<path d="M84.9994 47.9124L85.0121 47.9557C85.0311 48.9838 84.6665 49.8463 83.9268 50.5419C83.1806 51.2375 82.1999 51.5827 80.9729 51.5827C79.7459 51.5827 78.7166 51.1457 77.9335 50.2643C77.1504 49.3839 76.7625 48.2692 76.7625 46.9138V44.962C76.7625 43.6066 77.1514 42.4929 77.9335 41.6115C78.7166 40.7311 79.728 40.2878 80.9729 40.2878C82.2179 40.2878 83.2049 40.6203 83.9384 41.279C84.6718 41.9377 85.0301 42.8191 85.0111 43.9085L84.9984 43.9518H83.5738C83.5738 43.1822 83.3455 42.5721 82.8953 42.1287C82.4451 41.6791 81.8036 41.4574 80.9782 41.4574C80.1528 41.4574 79.486 41.7899 78.9924 42.4613C78.4989 43.1326 78.2526 43.9581 78.2526 44.9493V46.9201C78.2526 47.9177 78.4989 48.7558 78.9924 49.4208C79.486 50.0922 80.1454 50.4247 80.9782 50.4247C81.811 50.4247 82.4398 50.2031 82.8953 49.7597C83.3455 49.3163 83.5738 48.7009 83.5738 47.9187L84.9984 47.9124H84.9994ZM87.0528 52.3649H85.7825L90.3755 40.4482H91.6331L87.0518 52.3649H87.0528ZM101.203 47.9124L101.215 47.9557C101.234 48.9838 100.87 49.8463 100.13 50.5419C99.3839 51.2375 98.4032 51.5827 97.1762 51.5827C95.9492 51.5827 94.9199 51.1457 94.1368 50.2643C93.3537 49.3839 92.9658 48.2692 92.9658 46.9138V44.962C92.9658 43.6066 93.3547 42.4929 94.1368 41.6115C94.9199 40.7311 95.9313 40.2878 97.1762 40.2878C98.4212 40.2878 99.4082 40.6203 100.142 41.279C100.875 41.9377 101.233 42.8191 101.214 43.9085L101.202 43.9518H99.7771C99.7771 43.1822 99.5488 42.5721 99.0986 42.1287C98.6484 41.6791 98.0069 41.4574 97.1815 41.4574C96.3561 41.4574 95.6893 41.7899 95.1957 42.4613C94.7022 43.1326 94.4559 43.9581 94.4559 44.9493V46.9201C94.4559 47.9177 94.7022 48.7558 95.1957 49.4208C95.6893 50.0922 96.3487 50.4247 97.1815 50.4247C98.0143 50.4247 98.6431 50.2031 99.0986 49.7597C99.5488 49.3163 99.7771 48.7009 99.7771 47.9187H101.202V47.9124H101.203ZM106.98 45.5225H109.989V46.8652H106.98V50.3266H105.495V46.8652H102.461V45.5225H105.495V42.3325H106.98V45.5225ZM115.748 45.5225H118.757V46.8652H115.748V50.3266H114.262V46.8652H111.229V45.5225H114.262V42.3325H115.748V45.5225ZM126.025 47.0257V51.4286H124.54V40.4546H128.745C129.916 40.4546 130.829 40.7565 131.482 41.3603C132.135 41.9641 132.463 42.7579 132.456 43.7438C132.456 44.7414 132.13 45.5362 131.476 46.1337C130.822 46.7312 129.909 47.0331 128.738 47.0331L126.025 47.0267V47.0257ZM126.025 45.8614H128.745C129.491 45.8614 130.046 45.664 130.416 45.2639C130.785 44.8638 130.964 44.3582 130.964 43.7554C130.964 43.1527 130.779 42.6407 130.409 42.2343C130.039 41.8279 129.485 41.6242 128.745 41.6242H126.025V45.8614ZM139.096 51.4286C139.047 51.1827 139.003 50.9663 138.979 50.7762C138.955 50.5862 138.936 50.4004 138.929 50.2094C138.651 50.6031 138.294 50.9304 137.844 51.1943C137.4 51.4592 136.919 51.588 136.408 51.588C135.557 51.588 134.909 51.3727 134.465 50.9356C134.021 50.4986 133.8 49.9011 133.8 49.1369C133.8 48.3726 134.114 47.7509 134.749 47.3075C135.377 46.8705 136.234 46.6488 137.32 46.6488H138.936V45.8424C138.936 45.3621 138.788 44.9863 138.498 44.7097C138.209 44.4321 137.795 44.2906 137.259 44.2906C136.778 44.2906 136.383 44.4141 136.088 44.6537C135.792 44.8944 135.644 45.1837 135.644 45.5225L134.232 45.5352L134.219 45.4919C134.182 44.9008 134.46 44.3592 135.052 43.8663C135.644 43.3733 136.409 43.1273 137.345 43.1273C138.282 43.1273 139.016 43.3617 139.577 43.8293C140.138 44.297 140.422 44.9747 140.422 45.8614V49.7903C140.422 50.0795 140.434 50.3635 140.465 50.6337C140.496 50.905 140.552 51.17 140.632 51.4339H139.096V51.4276V51.4286ZM136.63 50.3445C137.167 50.3445 137.653 50.2094 138.085 49.9318C138.516 49.6541 138.8 49.3406 138.929 48.9838V47.6601H137.259C136.66 47.6601 136.18 47.8142 135.822 48.1098C135.465 48.4117 135.285 48.7685 135.285 49.1749C135.285 49.538 135.396 49.822 135.625 50.0373C135.847 50.2411 136.186 50.3456 136.63 50.3456V50.3445ZM145.823 50.4247C146.28 50.4247 146.68 50.2706 147.026 49.9687C147.371 49.6668 147.537 49.291 147.537 48.8477H148.882L148.906 48.8909C148.925 49.5929 148.623 50.221 147.999 50.7636C147.377 51.3114 146.648 51.5827 145.823 51.5827C144.676 51.5827 143.789 51.1943 143.165 50.4131C142.543 49.6372 142.228 48.664 142.228 47.4997V47.1851C142.228 46.0334 142.543 45.0665 143.165 44.2843C143.794 43.5021 144.675 43.1147 145.817 43.1147C146.729 43.1147 147.475 43.3976 148.055 43.9581C148.634 44.525 148.919 45.2143 148.9 46.0334L148.887 46.0767H147.536C147.536 45.5774 147.376 45.1531 147.049 44.8079C146.722 44.4564 146.316 44.2843 145.822 44.2843C145.095 44.2843 144.558 44.5672 144.225 45.134C143.892 45.7009 143.725 46.3839 143.725 47.1914V47.506C143.725 48.3251 143.892 49.0144 144.219 49.5813C144.545 50.1482 145.082 50.4247 145.822 50.4247H145.823ZM152.926 47.6654H152.162V51.4286H150.676V39.666H152.162V46.4831H152.908L155.362 43.2741H157.144L154.178 47.0373L157.403 51.4349H155.645L152.926 47.6664V47.6654ZM163.612 51.4286C163.562 51.1827 163.519 50.9663 163.494 50.7762C163.47 50.5852 163.451 50.4004 163.445 50.2094C163.167 50.6031 162.809 50.9304 162.359 51.1943C161.915 51.4592 161.435 51.588 160.923 51.588C160.072 51.588 159.424 51.3727 158.981 50.9356C158.537 50.4986 158.315 49.9011 158.315 49.1369C158.315 48.3726 158.63 47.7509 159.264 47.3075C159.893 46.8705 160.75 46.6488 161.835 46.6488H163.451V45.8424C163.451 45.3621 163.303 44.9863 163.013 44.7097C162.724 44.4321 162.311 44.2906 161.774 44.2906C161.293 44.2906 160.899 44.4141 160.603 44.6537C160.307 44.8944 160.159 45.1837 160.159 45.5225L158.747 45.5352L158.734 45.4919C158.697 44.9008 158.975 44.3592 159.567 43.8663C160.159 43.3733 160.924 43.1273 161.86 43.1273C162.797 43.1273 163.531 43.3617 164.092 43.8293C164.654 44.297 164.937 44.9747 164.937 45.8614V49.7903C164.937 50.0795 164.95 50.3635 164.98 50.6337C165.011 50.905 165.067 51.17 165.147 51.4339L163.612 51.4276V51.4286ZM161.145 50.3445C161.682 50.3445 162.168 50.2094 162.6 49.9318C163.031 49.6541 163.316 49.3406 163.445 48.9838V47.6601H161.774C161.176 47.6601 160.695 47.8079 160.338 48.1098C159.98 48.4117 159.801 48.7685 159.801 49.1749C159.801 49.538 159.912 49.822 160.14 50.0373C160.368 50.2411 160.701 50.3456 161.145 50.3456V50.3445ZM166.83 47.5049C166.83 46.1928 167.113 45.134 167.674 44.3328C168.235 43.5264 169.018 43.1263 170.023 43.1263C170.541 43.1263 170.998 43.2308 171.392 43.4409C171.786 43.6499 172.114 43.9518 172.378 44.3402L172.557 43.2751H173.74V51.4782C173.74 52.5254 173.438 53.3255 172.828 53.886C172.217 54.4466 171.342 54.7231 170.196 54.7231C169.801 54.7231 169.382 54.6672 168.925 54.5627C168.469 54.4518 168.068 54.3104 167.723 54.1193L167.951 52.9677C168.241 53.1218 168.586 53.239 168.987 53.3308C169.394 53.4237 169.788 53.4723 170.183 53.4723C170.91 53.4723 171.434 53.3055 171.762 52.9793C172.088 52.6468 172.255 52.1475 172.255 51.4761V50.5461C171.99 50.8913 171.67 51.1436 171.3 51.322C170.93 51.5004 170.499 51.5869 170.012 51.5869C169.013 51.5869 168.236 51.2238 167.675 50.5028C167.114 49.7819 166.837 48.8339 166.837 47.658V47.5039H166.831L166.83 47.5049ZM168.316 47.659C168.316 48.4782 168.483 49.1369 168.821 49.6362C169.16 50.1355 169.678 50.3814 170.381 50.3814C170.831 50.3814 171.201 50.2769 171.503 50.0732C171.805 49.8695 172.051 49.5802 172.249 49.2108V45.4539C172.058 45.1087 171.812 44.8321 171.503 44.6284C171.194 44.4247 170.824 44.3202 170.393 44.3202C169.684 44.3202 169.16 44.6157 168.821 45.2006C168.481 45.7917 168.309 46.5496 168.309 47.4912V47.658H168.316V47.659ZM179.26 51.588C178.089 51.588 177.176 51.2122 176.517 50.467C175.863 49.7154 175.531 48.7305 175.531 47.5113V47.1788C175.531 46.0091 175.87 45.0422 176.548 44.2716C177.227 43.5084 178.053 43.12 179.026 43.12C180.118 43.12 180.938 43.4588 181.48 44.1365C182.023 44.8142 182.301 45.7189 182.301 46.8462V47.6284H177.078L177.053 47.6654C177.053 48.4845 177.232 49.1496 177.596 49.6605C177.959 50.1714 178.508 50.4237 179.254 50.4237C179.759 50.4237 180.197 50.3498 180.579 50.2083C180.962 50.0669 181.282 49.8695 181.56 49.6172L182.139 50.5841C181.849 50.867 181.46 51.1014 180.986 51.2988C180.511 51.4962 179.931 51.588 179.259 51.588H179.26ZM179.025 44.2906C178.508 44.2906 178.076 44.488 177.737 44.8881C177.398 45.2882 177.189 45.7991 177.115 46.4219L177.127 46.4588H180.808V46.3353C180.808 45.7442 180.66 45.2512 180.371 44.8638C180.088 44.488 179.637 44.2906 179.026 44.2906H179.025ZM193.466 49.3776H193.509L197.018 40.4598H198.867V51.4339H197.382V43.2065L197.338 43.2002L194.009 51.4339H192.973L189.545 42.9289L189.502 42.9352V51.4339H188.016V40.4598H189.97L193.466 49.3776ZM206.26 51.4349C206.21 51.189 206.167 50.9726 206.143 50.7826C206.114 50.5947 206.097 50.4057 206.093 50.2157C205.815 50.6095 205.458 50.9367 205.008 51.2006C204.564 51.4656 204.083 51.5943 203.571 51.5943C202.721 51.5943 202.073 51.379 201.629 50.942C201.185 50.505 200.963 49.9075 200.963 49.1432C200.963 48.379 201.278 47.7572 201.912 47.3139C202.541 46.8768 203.398 46.6552 204.483 46.6552H206.099V45.8487C206.099 45.3684 205.951 44.9926 205.662 44.716C205.372 44.4384 204.959 44.297 204.422 44.297C203.941 44.297 203.547 44.4205 203.251 44.6601C202.955 44.9008 202.807 45.19 202.807 45.5288L201.395 45.5415L201.383 45.4982C201.346 44.9071 201.624 44.3656 202.215 43.8726C202.807 43.3796 203.572 43.1337 204.509 43.1337C205.445 43.1337 206.18 43.368 206.741 43.8357C207.302 44.3033 207.585 44.981 207.585 45.8677V49.7966C207.585 50.0859 207.598 50.3698 207.629 50.6401C207.659 50.9114 207.715 51.1763 207.795 51.4402H206.26V51.4339V51.4349ZM203.793 50.3508C204.33 50.3508 204.816 50.2157 205.249 49.9381C205.68 49.6605 205.964 49.347 206.093 48.9902V47.6664H204.422C203.824 47.6664 203.343 47.8206 202.986 48.1161C202.629 48.418 202.449 48.7748 202.449 49.1812C202.449 49.5444 202.56 49.8283 202.788 50.0437C203.01 50.2474 203.349 50.3519 203.793 50.3519V50.3508ZM211.068 43.2804L211.173 44.4933C211.445 44.0626 211.784 43.7238 212.196 43.4894C212.609 43.2487 213.071 43.1326 213.595 43.1326C214.477 43.1326 215.155 43.3912 215.642 43.9085C216.123 44.4257 216.37 45.2206 216.37 46.292V51.4402H214.884V46.3227C214.884 45.6017 214.742 45.0908 214.458 44.7952C214.174 44.4996 213.742 44.3455 213.157 44.3455C212.7 44.3455 212.312 44.4384 211.991 44.6231C211.671 44.8079 211.417 45.0665 211.232 45.3927V51.4466H209.746V43.2867H211.066V43.2804H211.068ZM223.541 51.4339C223.492 51.1879 223.448 50.9715 223.424 50.7815C223.4 50.5905 223.381 50.4057 223.374 50.2147C223.096 50.6084 222.739 50.9356 222.289 51.1995C221.845 51.4645 221.364 51.5933 220.853 51.5933C220.002 51.5933 219.354 51.3779 218.91 50.9409C218.466 50.5039 218.244 49.9064 218.244 49.1422C218.244 48.3779 218.559 47.7562 219.193 47.3128C219.822 46.8758 220.679 46.6541 221.765 46.6541H223.381V45.8476C223.381 45.3673 223.233 44.9915 222.943 44.715C222.653 44.4374 222.24 44.2959 221.703 44.2959C221.222 44.2959 220.828 44.4194 220.532 44.659C220.236 44.8997 220.088 45.1889 220.088 45.5278L218.677 45.5405L218.664 45.4972C218.627 44.906 218.905 44.3645 219.497 43.8715C220.089 43.3786 220.854 43.1326 221.79 43.1326C222.726 43.1326 223.461 43.367 224.022 43.8346C224.583 44.3022 224.866 44.9799 224.866 45.8666V49.7956C224.866 50.0848 224.879 50.3688 224.91 50.639C224.94 50.9103 224.996 51.1753 225.077 51.4392H223.541V51.4328V51.4339ZM221.075 50.3498C221.611 50.3498 222.098 50.2147 222.53 49.937C222.961 49.6594 223.245 49.3459 223.374 48.9891V47.6654H221.703C221.105 47.6654 220.624 47.8195 220.267 48.1151C219.91 48.417 219.73 48.7738 219.73 49.1802C219.73 49.5433 219.841 49.8273 220.069 50.0426C220.298 50.2463 220.631 50.3508 221.075 50.3508V50.3498ZM226.759 47.5102C226.759 46.1981 227.042 45.1393 227.604 44.3381C228.165 43.5316 228.948 43.1316 229.953 43.1316C230.471 43.1316 230.927 43.2361 231.322 43.4461C231.716 43.6551 232.043 43.9571 232.308 44.3455L232.486 43.2804H233.67V51.4835C233.67 52.5307 233.368 53.3308 232.758 53.8913C232.147 54.4519 231.272 54.7284 230.125 54.7284C229.731 54.7284 229.311 54.6725 228.855 54.568C228.398 54.4571 227.998 54.3157 227.652 54.1246L227.88 52.973C228.17 53.1271 228.516 53.2442 228.916 53.3361C229.323 53.429 229.717 53.4775 230.113 53.4775C230.84 53.4775 231.364 53.3107 231.691 52.9846C232.018 52.6584 232.185 52.1528 232.185 51.4814V50.5514C231.92 50.8966 231.599 51.1489 231.23 51.3273C230.86 51.5057 230.429 51.5922 229.941 51.5922C228.943 51.5922 228.166 51.2291 227.605 50.5081C227.043 49.7871 226.767 48.8392 226.767 47.6633V47.5092H226.76L226.759 47.5102ZM228.245 47.6643C228.245 48.4835 228.412 49.1422 228.75 49.6415C229.09 50.1408 229.607 50.3867 230.31 50.3867C230.76 50.3867 231.13 50.2822 231.433 50.0785C231.735 49.8748 231.981 49.5855 232.179 49.2161V45.4592C231.987 45.114 231.741 44.8374 231.433 44.6337C231.124 44.43 230.754 44.3255 230.323 44.3255C229.614 44.3255 229.09 44.621 228.75 45.2058C228.411 45.7906 228.239 46.5549 228.239 47.4965V47.6633H228.245V47.6643ZM239.19 51.5933C238.019 51.5933 237.106 51.2175 236.446 50.4722C235.793 49.7206 235.46 48.7358 235.46 47.5165V47.184C235.46 46.0144 235.799 45.0475 236.478 44.2769C237.156 43.5137 237.983 43.1252 238.956 43.1252C240.048 43.1252 240.868 43.4641 241.41 44.1418C241.952 44.8195 242.23 45.7241 242.23 46.8515V47.6337H237.008L236.984 47.6707C236.984 48.4898 237.163 49.1548 237.526 49.6658C237.89 50.1767 238.438 50.429 239.184 50.429C239.689 50.429 240.128 50.3551 240.51 50.2136C240.892 50.0722 241.212 49.8748 241.49 49.6225L242.069 50.5894C241.78 50.8723 241.391 51.1066 240.916 51.304C240.442 51.5014 239.862 51.5933 239.19 51.5933ZM238.955 44.2959C238.437 44.2959 238.006 44.4933 237.667 44.8934C237.327 45.2934 237.118 45.8044 237.044 46.4272L237.057 46.4641H240.738V46.3406C240.738 45.7495 240.59 45.2565 240.3 44.8691C240.017 44.4933 239.567 44.2959 238.956 44.2959H238.955ZM247.766 44.5915L247.002 44.5482C246.608 44.5482 246.28 44.6411 246.009 44.8258C245.738 45.0105 245.535 45.2755 245.387 45.608V51.4339H243.901V43.2741H245.226L245.368 44.4627C245.602 44.0373 245.886 43.7111 246.225 43.4778C246.564 43.2435 246.958 43.121 247.396 43.121C247.507 43.121 247.611 43.1273 247.711 43.1453C247.809 43.1643 247.896 43.1822 247.957 43.2012L247.766 44.5936V44.5915Z" fill="black"/>
<path d="M30.7921 63.9997L0.0772552 46.149L0 17.7888L30.6994 35.6395L30.7766 63.9997H30.7921Z" fill="url(#paint0_linear_204_11)"/>
<path d="M30.715 35.6395L0.0155945 17.7888L30.8077 0L61.507 17.8507L30.715 35.6395Z" fill="#86C7F7"/>
<path fill-rule="evenodd" clip-rule="evenodd" d="M31.4259 9.67486L29.6491 9.87578L29.3865 9.98398H29.1084L28.8612 10.0922L27.4707 10.4167L27.2698 10.5094H27.0844L26.9145 10.6485L24.3497 11.6068L24.2262 11.7149C23.0674 12.1631 22.1249 12.7968 21.1207 13.3223L21.0125 13.4459C20.101 13.9559 19.792 14.2187 19.1585 14.8369L19.004 14.9451L18.3706 15.7951L18.247 15.9033L18.0307 16.3361L17.9225 16.4597C17.1964 18.1134 17.2118 18.3761 17.3663 20.308L17.4899 20.5089V20.7098L17.5826 20.8798L17.8144 21.4826L17.9225 21.6217L18.0307 21.9308L18.1543 22.039C18.5251 22.7035 18.9731 23.229 19.4212 23.7081C19.6684 23.9863 20.719 24.8364 21.1361 25.0527L21.2443 25.1764C22.094 25.5782 22.712 26.0882 23.7781 26.4592L23.9171 26.5519L25.9875 27.201L26.2192 27.3092C26.9299 27.3864 27.687 27.6028 28.4749 27.6955C29.3402 27.8037 29.8036 27.3865 30.5143 27.0773L30.6534 26.9692H30.7461L30.8852 26.861L34.176 25.3464L34.3151 25.2382H34.4078L34.5468 25.13L36.4472 24.2336L36.2772 24.1564C35.1648 24.11 33.8516 24.28 32.6465 24.2491C31.4414 24.2182 30.3135 24.0018 29.2165 23.94L28.9848 23.8318C28.1814 23.7545 27.378 23.4145 26.6982 23.1827L26.5437 23.0899C25.4313 22.6881 24.4116 21.8072 23.9171 20.9108C23.1601 19.458 23.6236 18.3916 24.2107 17.1706L24.3343 17.0625L24.4425 16.8615L24.566 16.7533C25.1686 15.9033 26.6209 14.7287 28.0732 14.265L28.2277 14.1723L29.7573 13.7396L29.9736 13.6314H30.2054L30.4371 13.5232L31.4568 13.4305C31.704 13.2759 31.8276 13.2914 32.183 13.2914H34.5468C34.9176 13.2914 35.2421 13.2914 35.5047 13.4305L36.8798 13.6159L37.0497 13.7396C37.884 13.8632 38.5793 14.3269 39.29 14.5896L39.4136 14.6978L39.8462 14.8987L39.9544 15.0224C40.696 15.4087 42.0092 16.6142 42.2873 17.5725L42.38 17.727C42.689 18.8089 42.6118 19.1643 42.38 20.2307L42.2873 20.4317L41.9011 21.2662L42.4727 21.0344L42.5963 20.9262L47.1541 18.577L47.2777 18.4688L48.3592 17.9279L48.4828 17.8197L49.5643 17.2788L49.6879 17.1552C49.7343 16.9234 48.3283 15.7642 48.0193 15.4705L47.9112 15.316C47.5404 15.0069 47.0151 14.5432 46.5825 14.2805L46.4743 14.1569C46.0417 13.9096 45.6709 13.5232 45.2537 13.3223L45.1456 13.1987L44.0486 12.565L43.9405 12.4413L42.5036 11.6995L42.3646 11.5913L40.526 10.834L40.3715 10.7413L39.2591 10.4322L39.0892 10.3085H38.8883L38.672 10.2158H38.4711L38.2703 10.0922C37.3588 9.99945 36.3699 9.7058 35.3502 9.61307C34.1297 9.50489 32.94 9.64397 31.8431 9.55124L31.4105 9.65944L31.4259 9.67486Z" fill="url(#paint1_linear_204_11)"/>
<path d="M30.7148 35.6398L30.7921 63.9999L45.5778 55.4687V27.0467L30.7148 35.6398Z" fill="#A9DCFC"/>
<path d="M61.5842 46.2264L61.5069 17.8507L46.7212 26.3974V54.804L61.5842 46.2264Z" fill="#A9DCFC"/>
<path d="M46.7213 26.3974L45.5779 27.0465V55.4685L46.7213 54.8039V26.3974Z" fill="#A9DCFC"/>
<path d="M46.7213 26.3974L45.5779 27.0465V55.4685L46.7213 54.8039V26.3974Z" fill="url(#paint2_linear_204_11)"/>
<defs>
<linearGradient id="paint0_linear_204_11" x1="1.60681" y1="40.5388" x2="26.0025" y2="41.1566" gradientUnits="userSpaceOnUse">
<stop stop-color="#0086FD"/>
<stop offset="1" stop-color="#21AFFF"/>
</linearGradient>
<linearGradient id="paint1_linear_204_11" x1="17.2582" y1="18.6388" x2="49.7188" y2="18.6388" gradientUnits="userSpaceOnUse">
<stop stop-color="#0086FD"/>
<stop offset="1" stop-color="#21AFFF"/>
</linearGradient>
<linearGradient id="paint2_linear_204_11" x1="45.5779" y1="40.9252" x2="46.7213" y2="40.9252" gradientUnits="userSpaceOnUse">
<stop stop-color="#0086FD"/>
<stop offset="1" stop-color="#21AFFF"/>
</linearGradient>
</defs>
</svg>
