<svg width="161" height="313" viewBox="0 0 161 313" fill="none" xmlns="http://www.w3.org/2000/svg">
<path d="M-52.8785 125.4L0.242905 156.5V218.7L-52.8785 187.6V125.4Z" fill="#7BA7D3"/>
<path d="M-106 218.7L-52.8786 187.6L0.242889 218.7L-52.8786 249.8L-106 218.7Z" fill="#6699CB"/>
<path d="M0.242676 32.1L53.3642 63.1999V125.4L0.242676 94.2999V32.1Z" fill="#7BA7D3"/>
<path d="M106.485 218.7L53.364 249.8V312L106.485 280.9V218.7Z" fill="#6699CB"/>
<path d="M-106 218.7V156.5L-52.8786 125.4L0.242889 156.5V218.7" stroke="#2F6799" stroke-miterlimit="10"/>
<path d="M53.3643 187.6L0.242905 218.7L-52.8785 187.6V125.4L0.242905 94.2999L53.3643 125.4V187.6Z" stroke="#2F6799" stroke-miterlimit="10"/>
<path d="M106.486 32.1L53.3642 1L0.242676 32.1M106.486 94.2999L53.3642 125.4L106.486 94.2999Z" stroke="#2F6799" stroke-miterlimit="10"/>
<path d="M53.364 125.4V63.1999L106.485 32.1L159.607 63.1999V125.4L106.485 156.5" stroke="#2F6799" stroke-miterlimit="10"/>
<path d="M0.242676 218.7L53.3642 249.8V312" stroke="#2F6799" stroke-miterlimit="10"/>
<path d="M106.486 280.9L53.3642 312L0.242676 280.9V218.7L53.3642 187.6L106.486 218.7V280.9Z" stroke="#4C6B89" stroke-miterlimit="10"/>
</svg>
