<svg width="1920" height="480" viewBox="0 0 1920 480" fill="none" xmlns="http://www.w3.org/2000/svg">
<g opacity="0.15">
<path d="M1786.11 -272H1930.61V374.457H1786.11V-272Z" fill="#BCE1F8"/>
<path d="M1786.18 159.641H1930.55V171.002H1786.18V159.641Z" fill="#6E9CD0"/>
<path d="M1145.08 73.688V70.1785H1158.45V73.688C1158.45 74.1638 1158.07 74.5505 1157.59 74.5505H1145.96C1145.48 74.5505 1145.09 74.1638 1145.09 73.688" fill="#9DCBEE"/>
<path d="M1062.72 159.641V374.701H1786.16V176.504C1786.16 167.195 1778.6 159.641 1769.29 159.641H1062.72Z" fill="#BCE0F8"/>
<path d="M1606.07 340.215H1743.05C1745.23 340.215 1747 338.446 1747 336.26V230.603C1747 228.417 1745.23 226.648 1743.05 226.648H1606.07C1603.88 226.648 1602.11 228.417 1602.11 230.603V336.26C1602.11 338.446 1603.88 340.215 1606.07 340.215Z" fill="#6E9CD0"/>
<path d="M1608.26 232.656H1740.87V334.178H1608.26V232.656Z" fill="#9DCBEE"/>
<path d="M1639.93 250.679H1709.2C1710.57 250.679 1711.68 249.564 1711.68 248.196V247.541C1711.68 246.173 1710.57 245.058 1709.2 245.058H1639.93C1638.56 245.058 1637.45 246.173 1637.45 247.541V248.196C1637.45 249.564 1638.56 250.679 1639.93 250.679Z" fill="#BCE1F8"/>
<path d="M1576.51 217.354H1772.62V218.826H1576.51V217.354Z" fill="#6E9CD0"/>
<path d="M1608.26 301.567H1740.87V308.065H1608.26V301.567Z" fill="#6E9CD0"/>
<path d="M1749.12 195.137C1749.12 198.111 1751.53 200.505 1754.49 200.505C1757.45 200.505 1759.86 198.096 1759.86 195.137C1759.86 192.178 1757.45 189.769 1754.49 189.769C1751.53 189.769 1749.12 192.178 1749.12 195.137Z" fill="#6E9CD0"/>
<path d="M1612.42 187.523H1736.69V203.301H1612.42V187.523Z" fill="#6E9CD0"/>
<path d="M1726.58 209.294C1726.58 211.421 1728.3 213.161 1730.44 213.161C1732.59 213.161 1734.31 211.436 1734.31 209.294C1734.31 207.153 1732.59 205.428 1730.44 205.428C1728.3 205.428 1726.58 207.153 1726.58 209.294Z" fill="#6E9CD0"/>
<path d="M1660.59 209.294C1660.59 211.421 1662.32 213.16 1664.46 213.16C1666.6 213.16 1668.33 211.435 1668.33 209.294C1668.33 207.153 1666.6 205.428 1664.46 205.428C1662.32 205.428 1660.59 207.153 1660.59 209.294Z" fill="#6E9CD0"/>
<path d="M1630.08 209.294C1630.08 211.421 1631.81 213.16 1633.95 213.16C1636.09 213.16 1637.82 211.435 1637.82 209.294C1637.82 207.153 1636.09 205.428 1633.95 205.428C1631.81 205.428 1630.08 207.153 1630.08 209.294Z" fill="#6E9CD0"/>
<path d="M1645.34 209.294C1645.34 211.421 1647.07 213.16 1649.21 213.16C1651.36 213.16 1653.08 211.435 1653.08 209.294C1653.08 207.153 1651.36 205.428 1649.21 205.428C1647.07 205.428 1645.34 207.153 1645.34 209.294Z" fill="#6E9CD0"/>
<path d="M1614.82 209.294C1614.82 211.421 1616.54 213.16 1618.68 213.16C1620.83 213.16 1622.55 211.435 1622.55 209.294C1622.55 207.153 1620.83 205.428 1618.68 205.428C1616.54 205.428 1614.82 207.153 1614.82 209.294Z" fill="#6E9CD0"/>
<path d="M1670.55 191.256H1689.2V200.981H1670.55V191.256Z" fill="#9DCBEE"/>
<path d="M1062.78 173.084H1786.16V181.709H1062.78V173.084Z" fill="#6E9CD0"/>
<path d="M1304.81 175.225H1307.7V374.715H1304.81V175.225Z" fill="#6E9CD0"/>
<path d="M1499.69 210.498H1529.76C1529.95 210.498 1530.12 210.35 1530.12 210.156V206.796C1530.12 206.602 1529.95 206.439 1529.76 206.439H1499.69C1499.5 206.439 1499.35 206.587 1499.35 206.796V210.156C1499.35 210.35 1499.51 210.498 1499.69 210.498Z" fill="#6E9CD0"/>
<path d="M1499.69 282.22H1529.76C1529.95 282.22 1530.12 282.071 1530.12 281.878V278.517C1530.12 278.323 1529.95 278.16 1529.76 278.16H1499.69C1499.5 278.16 1499.35 278.309 1499.35 278.517V281.878C1499.35 282.071 1499.51 282.22 1499.69 282.22Z" fill="#6E9CD0"/>
<path d="M1499.69 353.941H1529.76C1529.95 353.941 1530.12 353.792 1530.12 353.599V350.238C1530.12 350.045 1529.95 349.881 1529.76 349.881H1499.69C1499.5 349.881 1499.35 350.03 1499.35 350.238V353.599C1499.35 353.792 1499.51 353.941 1499.69 353.941Z" fill="#6E9CD0"/>
<path d="M1562.51 176.549H1565.39V374.701H1562.51V176.549Z" fill="#6E9CD0"/>
<path d="M1465.01 175.225H1467.9V374.715H1465.01V175.225Z" fill="#6E9CD0"/>
<path d="M1466.46 242.247H1563.12V244.835H1466.46V242.247Z" fill="#6E9CD0"/>
<path d="M1466.46 305.359H1563.12V307.946H1466.46V305.359Z" fill="#6E9CD0"/>
<path d="M858.601 173.084H1064.4V159.314C1064.4 157.425 1062.87 155.893 1060.98 155.893H862.037C860.148 155.893 858.615 157.425 858.615 159.314V173.084H858.601Z" fill="#6E9CD0"/>
<path d="M1367.19 209.458H1397.26C1397.46 209.458 1397.62 209.309 1397.62 209.116V205.755C1397.62 205.562 1397.46 205.398 1397.26 205.398H1367.19C1367 205.398 1366.85 205.547 1366.85 205.755V209.116C1366.85 209.309 1367.02 209.458 1367.19 209.458Z" fill="#6E9CD0"/>
<path d="M1367.19 281.164H1397.26C1397.46 281.164 1397.62 281.015 1397.62 280.822V277.461C1397.62 277.268 1397.46 277.104 1397.26 277.104H1367.19C1367 277.104 1366.85 277.253 1366.85 277.461V280.822C1366.85 281.015 1367.02 281.164 1367.19 281.164Z" fill="#6E9CD0"/>
<path d="M1367.19 352.885H1397.26C1397.46 352.885 1397.62 352.737 1397.62 352.543V349.183C1397.62 348.989 1397.46 348.826 1397.26 348.826H1367.19C1367 348.826 1366.85 348.974 1366.85 349.183V352.543C1366.85 352.737 1367.02 352.885 1367.19 352.885Z" fill="#6E9CD0"/>
<path d="M1062.73 159.641H1786.18V176.831H1062.73V159.641Z" fill="#BCE1F8"/>
<path d="M1783.27 159.641H1786.16V374.701H1783.27V159.641Z" fill="#6E9CD0"/>
<path d="M1062.78 159.641H1065.67V374.701H1062.78V159.641Z" fill="#6E9CD0"/>
<path d="M918.412 159.522H1062.78V374.716H918.412V159.522Z" fill="#BCE1F8"/>
<path d="M918.204 347.77H1045.73C1048.74 347.77 1051.19 345.331 1051.19 342.312V215.793C1051.19 212.789 1048.75 210.335 1045.73 210.335H918.204V347.77Z" fill="#6E9CD0"/>
<path d="M918.205 342.119H1041.85C1044.02 342.119 1045.78 340.364 1045.78 338.193V219.941C1045.78 217.77 1044.02 216.016 1041.85 216.016H918.205V342.119Z" fill="#9DCBEE"/>
<path d="M918.398 308.764H1048.07V315.262H918.398V308.764Z" fill="#6E9CD0"/>
<path d="M944.686 241.325H1003.7C1005.07 241.325 1006.19 240.21 1006.19 238.842V238.188C1006.19 236.82 1005.07 235.704 1003.7 235.704H944.686C943.317 235.704 942.201 236.82 942.201 238.188V238.842C942.201 240.21 943.317 241.325 944.686 241.325Z" fill="#BCE1F8"/>
<path d="M918.412 173.099H1062.78V176.831H918.412V173.099Z" fill="#6E9CD0"/>
<path d="M931.557 104.388H994.483V110.597H931.557V104.388Z" fill="#679ACC"/>
<path d="M923.646 117.897H999.343C1001.23 117.897 1002.77 116.34 1002.77 114.42V113.876C1002.77 111.956 1001.23 110.399 999.343 110.399H923.646C921.757 110.399 920.224 111.956 920.224 113.876V114.42C920.224 116.34 921.757 117.897 923.646 117.897Z" fill="#679ACC"/>
<path d="M947.823 156.384H975.11C985.807 156.384 994.483 147.728 994.483 137.057V108.641C994.483 106.254 992.539 104.313 990.145 104.313H932.788C930.394 104.313 928.45 106.254 928.45 108.641V137.057C928.45 147.728 937.126 156.384 947.823 156.384Z" fill="#679ACC"/>
<path d="M932.086 104.313H939.148V119.178C939.148 129.655 947.663 138.147 958.167 138.147H994.483V140.117C994.483 149.101 987.181 156.384 978.173 156.384H944.76C935.752 156.384 928.45 149.101 928.45 140.117V107.955C928.45 105.94 930.081 104.313 932.101 104.313" fill="#7BA6D3"/>
<path d="M960.527 40.7512C969.558 45.2714 966.999 58.832 963.771 65.9676C960.527 73.088 963.101 78.8479 966.062 85.4241C969.022 92.0003 963.771 97.488 963.771 97.488C965.258 89.4 962.283 87.7673 958.236 82.0075C954.19 76.2476 955.945 69.9435 961.331 60.2228C966.731 50.5022 960.527 40.7663 960.527 40.7663" fill="#CFDAEE"/>
<path d="M979.139 61.8406C979.347 61.8859 979.556 61.9313 979.734 61.9917C979.928 62.0522 980.106 62.0976 980.285 62.158C980.627 62.2639 980.954 62.3848 981.252 62.5209C981.847 62.7779 982.323 63.0651 982.725 63.3675C983.528 63.9722 983.989 64.6827 984.212 65.4537C984.659 66.9806 984.183 68.7645 983.573 70.5786C983.275 71.4857 982.933 72.4078 982.65 73.2998C982.368 74.2069 982.144 75.0837 982.07 75.9303C981.996 76.7769 982.07 77.5781 982.353 78.334C982.501 78.7119 982.71 79.0596 982.978 79.4073C983.111 79.5736 983.26 79.7399 983.424 79.9062C983.498 79.9818 983.588 80.0725 983.677 80.1481C983.766 80.2237 983.855 80.2993 983.959 80.39C983.751 80.3446 983.558 80.2993 983.364 80.2388C983.171 80.1784 982.992 80.133 982.814 80.0725C982.457 79.9667 982.144 79.8458 981.847 79.7097C981.252 79.4527 980.761 79.1655 980.374 78.8631C979.571 78.2584 979.109 77.5479 978.886 76.792C978.663 76.021 978.678 75.2046 978.812 74.3278C978.961 73.4661 979.228 72.559 979.526 71.652C980.136 69.8378 980.88 67.9783 981.043 66.2852C981.118 65.4386 981.043 64.6373 980.761 63.8814C980.612 63.5035 980.404 63.1558 980.136 62.8081C980.002 62.6418 979.853 62.4755 979.69 62.3092C979.615 62.2336 979.526 62.1429 979.437 62.0673C979.347 61.9917 979.258 61.9161 979.154 61.8254" fill="#CFDAEE"/>
<path d="M939.073 63.3374C939.252 63.3828 939.415 63.4281 939.579 63.4735C939.743 63.5188 939.891 63.5642 940.04 63.6095C940.338 63.7002 940.605 63.8061 940.844 63.927C941.334 64.1386 941.736 64.3805 942.078 64.6375C942.748 65.1515 943.12 65.7411 943.298 66.3912C943.655 67.6762 943.239 69.1577 942.718 70.6695C942.45 71.4254 942.168 72.1964 941.93 72.9372C941.692 73.693 941.498 74.4187 941.424 75.1292C941.349 75.8398 941.409 76.52 941.647 77.1399C941.766 77.4573 941.929 77.7597 942.153 78.0469C942.257 78.1981 942.391 78.3342 942.525 78.4702C942.599 78.5307 942.659 78.6063 942.733 78.6668C942.807 78.7272 942.882 78.8028 942.956 78.8633C942.778 78.818 942.614 78.7726 942.45 78.7424C942.287 78.697 942.138 78.6516 941.989 78.6063C941.691 78.5156 941.424 78.4098 941.186 78.3039C940.695 78.0923 940.293 77.8504 939.951 77.5934C939.281 77.0794 938.909 76.4898 938.716 75.8398C938.537 75.2048 938.552 74.5094 938.671 73.7838C938.79 73.0581 939.028 72.3173 939.296 71.5614C939.832 70.0497 940.457 68.5077 940.605 67.1017C940.68 66.3912 940.62 65.726 940.382 65.0911C940.263 64.7736 940.1 64.4712 939.876 64.184C939.772 64.0328 939.638 63.8968 939.505 63.7607C939.445 63.6851 939.371 63.6246 939.296 63.5642C939.222 63.4886 939.147 63.4281 939.073 63.3676" fill="#CFDAEE"/>
<path d="M951.259 50.2905C952.895 50.2905 954.234 51.6511 954.234 53.3141C954.234 54.977 952.895 56.3376 951.259 56.3376C950.203 56.3376 949.221 55.7631 948.685 54.8258L949.964 54.07C950.232 54.5386 950.723 54.8258 951.244 54.8258C952.062 54.8258 952.732 54.1455 952.732 53.3141C952.732 52.4826 952.062 51.8023 951.244 51.8023C950.723 51.8023 950.217 52.0895 949.964 52.5582L948.685 51.8023C949.221 50.865 950.203 50.2905 951.259 50.2905Z" fill="#CFDAEE"/>
<path d="M980.434 87.6316C982.621 87.6316 984.391 89.4306 984.391 91.6529C984.391 93.8752 982.606 95.6742 980.434 95.6742C979.02 95.6742 977.711 94.9032 976.997 93.6635L978.708 92.6507C979.065 93.2705 979.72 93.6635 980.419 93.6635C981.505 93.6635 982.398 92.7565 982.398 91.6529C982.398 90.5493 981.505 89.6422 980.419 89.6422C979.72 89.6422 979.05 90.0353 978.708 90.6551L976.997 89.6422C977.711 88.4026 979.02 87.6316 980.434 87.6316Z" fill="#CFDAEE"/>
<path d="M971.135 67.5852C972.31 67.5852 973.262 68.5527 973.262 69.747C973.262 70.9413 972.31 71.9089 971.135 71.9089C970.376 71.9089 969.677 71.5007 969.29 70.8355L970.212 70.2913C970.406 70.6239 970.748 70.8355 971.135 70.8355C971.715 70.8355 972.191 70.3518 972.191 69.7622C972.191 69.1726 971.715 68.6888 971.135 68.6888C970.763 68.6888 970.406 68.9005 970.212 69.233L969.29 68.6888C969.677 68.0236 970.376 67.6154 971.135 67.6154" fill="#CFDAEE"/>
<path d="M942.953 95.0278H944.114V96.1877H945.289V97.3625H944.114V98.5373H942.953V97.3625H941.778V96.1877H942.953V95.0278Z" fill="#CFDAEE"/>
<path d="M951.107 82.908H952.788V84.6032H954.469V86.2836H952.788V87.9789H951.107V86.2836H949.411V84.6032H951.107V82.908Z" fill="#CFDAEE"/>
<path d="M137.533 -99.2134H-6.83887V374.701H137.533V-99.2134Z" fill="#BCE1F8"/>
<path d="M137.533 159.641H-6.83887V171.002H137.533V159.641Z" fill="#6E9CD0"/>
<path d="M611.487 159.522H417.424V149.261C417.424 147.12 419.164 145.38 421.307 145.38H607.589C609.731 145.38 611.472 147.12 611.472 149.261V159.522H611.487Z" fill="#6E9CD0"/>
<path d="M860.984 159.641V374.701H137.548V176.504C137.548 167.195 145.106 159.641 154.419 159.641H860.984Z" fill="#BCE0F8"/>
<path d="M283.778 250.679H214.508C213.14 250.679 212.024 249.564 212.024 248.196V247.542C212.024 246.174 213.14 245.058 214.508 245.058H283.778C285.147 245.058 286.263 246.174 286.263 247.542V248.196C286.263 249.564 285.147 250.679 283.778 250.679Z" fill="#BCE1F8"/>
<path d="M174.593 195.137C174.593 198.112 172.183 200.506 169.222 200.506C166.261 200.506 163.851 198.097 163.851 195.137C163.851 192.178 166.261 189.769 169.222 189.769C172.183 189.769 174.593 192.178 174.593 195.137Z" fill="#6E9CD0"/>
<path d="M253.161 191.256H234.505V200.981H253.161V191.256Z" fill="#9DCBEE"/>
<path d="M860.925 173.084H137.548V181.709H860.925V173.084Z" fill="#6E9CD0"/>
<path d="M618.896 175.225H616.01V374.715H618.896V175.225Z" fill="#6E9CD0"/>
<path d="M424.016 210.498H393.948C393.755 210.498 393.591 210.35 393.591 210.156V206.796C393.591 206.602 393.755 206.439 393.948 206.439H424.016C424.209 206.439 424.358 206.587 424.358 206.796V210.156C424.358 210.35 424.194 210.498 424.016 210.498Z" fill="#6E9CD0"/>
<path d="M424.016 282.22H393.948C393.755 282.22 393.591 282.071 393.591 281.878V278.517C393.591 278.324 393.755 278.16 393.948 278.16H424.016C424.209 278.16 424.358 278.309 424.358 278.517V281.878C424.358 282.071 424.194 282.22 424.016 282.22Z" fill="#6E9CD0"/>
<path d="M424.016 353.941H393.948C393.755 353.941 393.591 353.792 393.591 353.599V350.238C393.591 350.045 393.755 349.881 393.948 349.881H424.016C424.209 349.881 424.358 350.03 424.358 350.238V353.599C424.358 353.792 424.194 353.941 424.016 353.941Z" fill="#6E9CD0"/>
<path d="M361.203 176.549H358.316V374.701H361.203V176.549Z" fill="#6E9CD0"/>
<path d="M458.694 175.225H455.808V374.715H458.694V175.225Z" fill="#6E9CD0"/>
<path d="M457.252 242.248H360.593V244.835H457.252V242.248Z" fill="#6E9CD0"/>
<path d="M457.252 305.359H360.593V307.946H457.252V305.359Z" fill="#6E9CD0"/>
<path d="M860.984 159.641H137.533V176.831H860.984V159.641Z" fill="#BCE1F8"/>
<path d="M140.434 159.641H137.548V374.701H140.434V159.641Z" fill="#6E9CD0"/>
<path d="M860.923 159.641H858.037V374.701H860.923V159.641Z" fill="#6E9CD0"/>
<path d="M1005.3 159.522H860.925V374.716H1005.3V159.522Z" fill="#BCE1F8"/>
<path d="M1005.51 347.77H877.975C874.969 347.77 872.515 345.331 872.515 342.313V215.793C872.515 212.789 874.955 210.335 877.975 210.335H1005.51V347.77Z" fill="#6E9CD0"/>
<path d="M1005.5 342.119H881.857C879.685 342.119 877.93 340.365 877.93 338.193V219.942C877.93 217.771 879.685 216.016 881.857 216.016H1005.5V342.119Z" fill="#9DCBEE"/>
<path d="M1005.31 308.764H875.639V315.263H1005.31V308.764Z" fill="#6E9CD0"/>
<path d="M979.022 241.325H920.003C918.634 241.325 917.518 240.21 917.518 238.842V238.188C917.518 236.82 918.634 235.704 920.003 235.704H979.022C980.391 235.704 981.506 236.82 981.506 238.188V238.842C981.506 240.21 980.391 241.325 979.022 241.325Z" fill="#BCE1F8"/>
<path d="M1005.3 173.099H860.925V176.831H1005.3V173.099Z" fill="#6E9CD0"/>
</g>
</svg>
