<svg width="126" height="111" viewBox="0 0 126 111" fill="none" xmlns="http://www.w3.org/2000/svg">
<g clip-path="url(#clip0_3727_13)">
<path d="M77.4212 5.76919L77.0006 2L76.5801 5.76919C76.122 9.87843 72.8784 13.122 68.7692 13.5801L65 14.0006L68.7692 14.4212C72.8784 14.8793 76.122 18.1229 76.5801 22.2321L77.0006 26.0013L77.4212 22.2321C77.8793 18.1229 81.1229 14.8793 85.2321 14.4212L89.0013 14.0006L85.2321 13.5801C81.1229 13.122 77.8793 9.87843 77.4212 5.76919Z" fill="white"/>
</g>
<g clip-path="url(#clip1_3727_13)">
<path d="M118.149 79.1239L126 80L118.149 80.8761C109.588 81.8314 102.831 88.5881 101.876 97.1486L101 105L100.124 97.1486C99.1686 88.5881 92.4119 81.8314 83.8514 80.8761L76 80L83.8514 79.1239C92.4119 78.1686 99.1686 71.4119 100.124 62.8514L101 55L101.876 62.8514C102.831 71.4119 109.588 78.1686 118.149 79.1239Z" fill="white"/>
</g>
<circle cx="42.5" cy="100.5" r="3.5" fill="white"/>
<g clip-path="url(#clip2_3727_13)">
<path d="M31.19 52.8517L37 53.5L31.19 54.1483C24.8552 54.8552 19.8552 59.8552 19.1483 66.19L18.5 72L17.8517 66.19C17.1448 59.8552 12.1448 54.8552 5.81003 54.1483L0 53.5L5.81003 52.8517C12.1448 52.1448 17.1448 47.1448 17.8517 40.81L18.5 35L19.1483 40.81C19.8552 47.1448 24.8552 52.1448 31.19 52.8517Z" fill="white"/>
</g>
<defs>
<clipPath id="clip0_3727_13">
<rect width="24" height="24" fill="white" transform="translate(65 2)"/>
</clipPath>
<clipPath id="clip1_3727_13">
<rect width="50" height="50" fill="white" transform="translate(76 55)"/>
</clipPath>
<clipPath id="clip2_3727_13">
<rect width="37" height="37" fill="white" transform="translate(0 35)"/>
</clipPath>
</defs>
</svg>
